<?xml version="1.0" encoding="utf-8"?>
<!-- Generator: Adobe Illustrator 24.0.2, SVG Export Plug-In . SVG Version: 6.00 Build 0)  -->
<svg version="1.1" id="Layer_1" xmlns="http://www.w3.org/2000/svg" xmlns:xlink="http://www.w3.org/1999/xlink" x="0px" y="0px"
	 viewBox="0 0 612 792" style="enable-background:new 0 0 612 792;" xml:space="preserve">
<style type="text/css">
	.st0{fill:none;stroke:#000000;stroke-miterlimit:10;}
</style>
<polygon class="st0" points="63.17,61.17 0,93.2 0,93.31 38.97,77.46 "/>
<polygon class="st0" points="38.97,77.46 0,93.31 0,94.06 24.01,101.23 "/>
<polygon class="st0" points="0,94.06 0,114.3 24.01,101.23 "/>
<polygon class="st0" points="24.01,101.23 0,114.3 0,136.54 19.61,132.04 "/>
<polygon class="st0" points="73.17,121.98 73.17,127.78 84.59,122.54 "/>
<polygon class="st0" points="17.85,153.18 73.17,127.78 73.17,121.98 45.13,120.6 "/>
<polygon class="st0" points="84.59,122.54 73.17,139.08 73.17,181.01 79.44,179.9 "/>
<polygon class="st0" points="73.17,181.01 73.17,139.08 40.15,186.9 "/>
<polygon class="st0" points="123.02,136.83 131.8,116.64 84.59,122.54 "/>
<polygon class="st0" points="174.48,130.28 192.96,120.6 131.8,116.64 "/>
<polygon class="st0" points="131.8,116.64 192.96,120.6 188.56,113.56 "/>
<polygon class="st0" points="131.8,116.64 188.56,113.56 181.08,100.79 "/>
<polygon class="st0" points="188.56,113.56 218.91,108.71 181.08,100.79 "/>
<polygon class="st0" points="166.6,140.34 189.44,134.69 174.48,130.28 "/>
<polygon class="st0" points="178.88,145.25 189.44,134.69 166.6,140.34 "/>
<polygon class="st0" points="148.84,163.74 178.88,145.25 166.6,140.34 "/>
<polygon class="st0" points="178.88,151.41 198.68,150.09 178.88,145.25 "/>
<polygon class="st0" points="163.04,163.74 178.88,151.41 148.84,163.74 "/>
<polygon class="st0" points="73.17,181.01 73.17,183.7 79.44,179.9 "/>
<polygon class="st0" points="5.72,224.58 5.84,224.51 7.12,223.39 7.33,223.6 73.17,183.7 73.17,181.01 40.15,186.9 "/>
<polygon class="st0" points="40.15,186.9 0,197.73 0,220.01 5.72,224.58 "/>
<polygon class="st0" points="112.26,194.43 118.72,172.9 83.2,193.9 "/>
<polygon class="st0" points="83.2,193.9 73.17,208.87 73.17,216.61 112.26,194.43 "/>
<polygon class="st0" points="73.17,216.61 73.17,208.87 64.81,221.35 "/>
<polygon class="st0" points="416.02,458.25 448.58,467.05 442.42,459.13 "/>
<polygon class="st0" points="450.28,442.61 472.34,447.68 450.82,435.61 "/>
<polygon class="st0" points="450.28,442.61 450.82,435.61 422.85,432.12 "/>
<polygon class="st0" points="424.46,443.96 450.28,442.61 422.85,432.12 "/>
<polygon class="st0" points="408.1,451.2 424.46,443.96 422.85,432.12 "/>
<polygon class="st0" points="408.1,489.94 435.38,488.18 416.02,481.14 "/>
<polygon class="st0" points="290.68,580.88 331.35,630.81 303.19,586.99 "/>
<polygon class="st0" points="289.9,634.72 331.35,630.81 290.68,580.88 "/>
<polygon class="st0" points="163.04,163.74 204.83,162.42 184.16,160.22 "/>
<polygon class="st0" points="188.56,169.02 204.83,162.42 167.68,170.74 "/>
<polygon class="st0" points="171.98,213.81 178.88,177.83 157.45,193.9 "/>
<polygon class="st0" points="232.55,171.66 233.87,167.7 219.35,169.02 "/>
<polygon class="st0" points="236.07,184.87 243.11,173.43 232.55,171.66 "/>
<polygon class="st0" points="234.31,191.03 236.07,184.87 219.35,169.02 "/>
<polygon class="st0" points="198.24,176.95 234.31,191.03 219.35,169.02 "/>
<polygon class="st0" points="251.91,203.36 267.75,189.27 234.31,191.03 "/>
<polygon class="st0" points="264.23,210.4 273.47,193.24 251.91,203.36 "/>
<polygon class="st0" points="234.39,224.04 280.07,217.45 264.23,210.4 "/>
<polygon class="st0" points="277.43,227.13 304.71,220.09 280.07,217.45 "/>
<polygon class="st0" points="266.87,239.46 277.43,227.13 259.68,233.73 "/>
<polygon class="st0" points="195.66,237.5 235.47,258.49 231.16,247.19 "/>
<polygon class="st0" points="269.51,272.92 270.44,249.88 235.47,258.49 "/>
<polygon class="st0" points="270.44,249.88 313.07,231.97 266.87,239.46 "/>
<polygon class="st0" points="269.51,272.92 313.07,231.97 270.44,249.88 "/>
<polygon class="st0" points="347.38,277.47 375.1,277.32 346.01,269.72 "/>
<polygon class="st0" points="338.14,284.13 347.38,277.47 346.01,269.72 "/>
<polygon class="st0" points="338.14,284.13 346.01,269.72 315.27,273.8 "/>
<polygon class="st0" points="269.51,272.92 315.27,273.8 294.15,268.51 "/>
<polygon class="st0" points="315.27,297.57 338.14,284.13 315.27,273.8 "/>
<polygon class="st0" points="342.27,326.06 364.07,318.25 315.27,297.57 "/>
<polygon class="st0" points="376.17,345.44 422.44,356.74 384.34,335.87 "/>
<polygon class="st0" points="376.17,345.44 384.34,335.87 343.43,344.23 "/>
<polygon class="st0" points="343.43,344.23 384.34,335.87 342.27,326.06 "/>
<polygon class="st0" points="309.11,349.51 343.43,344.23 342.27,326.06 "/>
<polygon class="st0" points="260.96,398.38 269.51,272.92 194.28,354.55 "/>
<polygon class="st0" points="330.16,381.24 349.58,380.33 309.11,349.51 "/>
<polygon class="st0" points="349.58,380.33 359.26,364.48 309.11,349.51 "/>
<polygon class="st0" points="349.58,380.33 400.38,367.51 359.26,364.48 "/>
<polygon class="st0" points="397.98,395.3 421.74,377.69 388.28,388.51 "/>
<polygon class="st0" points="361.64,389.32 397.98,395.3 388.28,388.51 "/>
<polygon class="st0" points="374.22,408.5 397.98,395.3 361.64,389.32 "/>
<polygon class="st0" points="330.16,381.24 374.22,408.5 361.64,389.32 "/>
<polygon class="st0" points="441.14,415.7 490.78,402.23 446.39,402.23 "/>
<polygon class="st0" points="435.38,428.31 472.21,428.08 441.14,415.7 "/>
<polygon class="st0" points="435.38,428.31 441.14,415.7 422.85,432.12 "/>
<polygon class="st0" points="374.22,408.5 422.85,432.12 417.33,399 "/>
<polygon class="st0" points="402.82,459.13 427.96,452.03 408.1,451.2 "/>
<polygon class="st0" points="380.82,462.65 408.1,451.2 374.22,408.5 "/>
<polygon class="st0" points="448.58,467.05 463.74,466.03 442.42,459.13 "/>
<polygon class="st0" points="421.23,478.68 460.06,475.25 413.29,470.07 "/>
<polygon class="st0" points="403.7,481.14 421.23,478.68 413.29,470.07 "/>
<polygon class="st0" points="403.7,481.14 413.29,470.07 396.34,465.22 "/>
<polygon class="st0" points="380.82,462.65 403.7,481.14 396.34,465.22 "/>
<polygon class="st0" points="247.66,461.77 328.22,459.34 260.96,398.38 "/>
<polygon class="st0" points="435.38,504.91 451.22,505.79 445.06,498.75 "/>
<polygon class="st0" points="435.38,504.91 445.06,498.75 412.5,507.55 "/>
<polygon class="st0" points="412.5,507.55 445.06,498.75 408.1,489.94 "/>
<polygon class="st0" points="398.54,510.88 408.1,489.94 388.84,489.94 "/>
<polygon class="st0" points="435.38,488.18 454.74,493.47 438.9,483.78 "/>
<polygon class="st0" points="381.61,540.62 388.84,489.94 380.82,462.65 "/>
<polygon class="st0" points="452.1,524.28 466.16,519.33 452.7,517.45 "/>
<polygon class="st0" points="452.1,524.28 452.7,517.45 435.38,526.92 "/>
<polygon class="st0" points="435.38,526.92 452.7,517.45 438.45,511.25 "/>
<polygon class="st0" points="435.38,526.92 438.45,511.25 410.74,524.28 "/>
<polygon class="st0" points="410.74,524.28 438.45,511.25 412.5,507.55 "/>
<polygon class="st0" points="409.86,538.37 410.74,524.28 391.19,524.28 "/>
<polygon class="st0" points="196.69,279.42 269.51,272.92 235.47,258.49 "/>
<polygon class="st0" points="133.06,790.92 139.22,790.92 142.59,788.38 "/>
<path class="st0" d="M132.81,698.12"/>
<path class="st0" d="M114.3,684.03"/>
<path class="st0" d="M114.3,684.03"/>
<polygon class="st0" points="162.14,705.69 212.66,706.47 172.44,658.4 "/>
<polygon class="st0" points="242.96,645.29 234.16,646.92 242.15,646.92 "/>
<polygon class="st0" points="212.66,706.47 242.15,646.92 234.16,646.92 172.44,658.4 "/>
<polygon class="st0" points="303.19,586.99 311.8,577.6 290.68,580.88 "/>
<polygon class="st0" points="331.35,630.81 369.67,645.29 332.14,582.84 "/>
<polygon class="st0" points="369.67,645.29 411.62,561.26 381.61,540.62 "/>
<polygon class="st0" points="437.14,539.25 459.97,536.02 435.76,534.67 "/>
<polygon class="st0" points="410.74,524.28 437.14,539.25 435.76,534.67 "/>
<polygon class="st0" points="409.86,538.37 411.62,561.26 438.72,560.78 418.66,545.41 "/>
<polygon class="st0" points="439.78,570.06 462.39,570.47 438.72,560.78 "/>
<polygon class="st0" points="427.46,592.96 435.22,580.7 411.62,561.26 "/>
<polygon class="st0" points="427.46,592.96 447.7,593.84 464.42,594.72 435.22,580.7 "/>
<polygon class="st0" points="430.98,610.56 446.82,617.61 427.46,592.96 "/>
<polygon class="st0" points="446.82,617.61 447.6,604.66 427.46,592.96 "/>
<polygon class="st0" points="446.82,617.61 478.27,613.54 447.6,604.66 "/>
<polygon class="st0" points="452.1,630.81 454.88,646.92 461.7,646.92 "/>
<polygon class="st0" points="471.81,663.88 461.7,646.92 454.88,646.92 455.67,651.5 "/>
<polygon class="st0" points="452.1,630.81 430.98,610.56 452.91,646.92 454.88,646.92 "/>
<polygon class="st0" points="454.88,646.92 452.91,646.92 455.67,651.5 "/>
<polygon class="st0" points="421.3,656.35 456.21,671.96 437.14,648.42 "/>
<polygon class="st0" points="430.98,610.56 413.77,646.92 423.29,646.92 "/>
<polygon class="st0" points="421.3,656.35 423.29,646.92 413.77,646.92 407.22,660.75 "/>
<polygon class="st0" points="369.67,645.29 371.1,646.92 371.99,646.92 "/>
<polygon class="st0" points="416.93,678.68 371.99,646.92 371.1,646.92 428.5,712.6 "/>
<polygon class="st0" points="428.5,712.6 429.57,701.03 416.93,678.68 "/>
<polygon class="st0" points="428.5,712.6 450.28,715.56 429.57,701.03 "/>
<polygon class="st0" points="419.54,745.27 433.87,729.02 428.5,712.6 "/>
<polygon class="st0" points="419.54,745.27 435.22,757.55 433.87,729.02 "/>
<polygon class="st0" points="419.54,745.27 445.98,785.01 435.22,757.55 "/>
<polygon class="st0" points="399.98,779.63 407.56,790.92 416.46,790.92 412.09,776.93 "/>
<polygon class="st0" points="399.98,779.63 412.09,776.93 398.42,749.67 "/>
<polygon class="st0" points="398.42,749.67 424.61,790.92 427.86,790.92 422.04,773.44 "/>
<polygon class="st0" points="398.42,749.67 422.04,773.44 419.54,745.27 "/>
<polygon class="st0" points="289.9,634.72 242.96,645.29 246.7,646.92 299.14,646.92 "/>
<polygon class="st0" points="299.14,646.92 246.7,646.92 325.17,681.29 "/>
<polygon class="st0" points="296.15,735.16 381.7,739.99 325.17,681.29 "/>
<polygon class="st0" points="381.7,739.99 399.98,779.63 398.42,749.67 "/>
<polygon class="st0" points="216.77,771.95 235.36,790.92 265.79,790.92 212.66,706.47 "/>
<polygon class="st0" points="296.15,735.16 305.64,790.92 353.62,790.92 354.69,788.12 "/>
<polygon class="st0" points="354.69,788.12 381.7,739.99 296.15,735.16 "/>
<polygon class="st0" points="392.39,790.92 396.47,790.92 394.6,777.21 "/>
<polygon class="st0" points="381.7,739.99 384.96,790.92 392.39,790.92 394.6,777.21 "/>
<polygon class="st0" points="356.42,790.92 357.22,790.92 354.69,788.12 "/>
<polygon class="st0" points="73.17,127.78 73.17,131.29 84.59,122.54 "/>
<polygon class="st0" points="0,176.31 0,187.37 73.17,131.29 73.17,127.78 17.85,153.18 "/>
<polygon class="st0" points="19.61,132.04 0,166.59 0,176.31 17.85,153.18 "/>
<polygon class="st0" points="17.85,153.18 45.13,120.6 19.61,132.04 "/>
<polygon class="st0" points="0,136.54 0,166.59 19.61,132.04 "/>
<path class="st0" d="M123.02,136.83"/>
<polygon class="st0" points="123.02,136.83 174.48,130.28 131.8,116.64 "/>
<polygon class="st0" points="79.44,179.9 123.02,136.83 84.59,122.54 "/>
<polygon class="st0" points="126.42,448.47 157.71,392.64 128.77,396 "/>
<polygon class="st0" points="128.77,396 157.71,392.64 115.47,385.07 "/>
<polygon class="st0" points="110,442.35 128.77,396 115.47,385.07 "/>
<polygon class="st0" points="85.75,431.41 115.47,385.07 77.28,387.43 "/>
<polygon class="st0" points="123.42,490.73 138.15,461.77 126.42,448.47 "/>
<polygon class="st0" points="235.47,258.49 270.44,249.88 266.87,239.46 "/>
<polygon class="st0" points="231.16,247.19 234.39,224.04 195.66,237.5 "/>
<polygon class="st0" points="277.43,227.13 280.07,217.45 234.39,224.04 "/>
<polygon class="st0" points="73.17,183.7 73.17,186.79 79.44,179.9 "/>
<polygon class="st0" points="7.73,223.99 50.92,211.25 73.17,186.79 73.17,183.7 7.33,223.6 "/>
<polygon class="st0" points="207.49,221.88 264.23,210.4 251.91,203.36 "/>
<polygon class="st0" points="118.72,172.9 123.02,136.83 79.44,179.9 "/>
<polygon class="st0" points="148.84,163.74 166.6,140.34 174.48,130.28 123.02,136.83 "/>
<polygon class="st0" points="178.88,151.41 178.88,145.25 148.84,163.74 "/>
<polygon class="st0" points="234.39,224.04 264.23,210.4 207.49,221.88 "/>
<polygon class="st0" points="195.66,237.5 234.39,224.04 207.49,221.88 "/>
<polygon class="st0" points="195.66,237.5 207.49,221.88 171.98,213.81 "/>
<polygon class="st0" points="171.98,213.81 207.49,221.88 198.24,176.95 "/>
<polygon class="st0" points="171.98,213.81 198.24,176.95 178.88,177.83 "/>
<polygon class="st0" points="157.45,193.9 178.88,177.83 162.84,178.81 "/>
<polygon class="st0" points="178.88,177.83 188.56,169.02 162.84,178.81 "/>
<polygon class="st0" points="162.84,178.81 188.56,169.02 167.68,170.74 "/>
<polygon class="st0" points="167.68,170.74 204.83,162.42 163.04,163.74 "/>
<polygon class="st0" points="73.17,131.29 73.17,139.08 84.59,122.54 "/>
<polygon class="st0" points="0,197.73 40.15,186.9 73.17,139.08 73.17,131.29 0,187.37 "/>
<path class="st0" d="M53.29,327.94L0,298.3v32.17l3.31,10.18C3.84,339.62,53.29,327.94,53.29,327.94z"/>
<polygon class="st0" points="29.31,521.51 29.31,491.17 18.35,527.38 "/>
<polygon class="st0" points="139.85,308.12 208.68,304.46 196.69,279.42 "/>
<polygon class="st0" points="162.84,178.81 163.04,163.74 148.84,163.74 "/>
<polygon class="st0" points="157.45,193.9 162.84,178.81 148.84,163.74 "/>
<polygon class="st0" points="162.84,178.81 167.68,170.74 163.04,163.74 "/>
<polygon class="st0" points="112.26,194.43 157.45,193.9 118.72,172.9 "/>
<polygon class="st0" points="134.85,214.35 73.17,220.51 73.17,229.22 133.07,285.68 "/>
<polygon class="st0" points="73.17,229.22 73.17,220.51 64.81,221.35 "/>
<polygon class="st0" points="134.63,336.86 170.1,325.57 139.85,308.12 "/>
<polygon class="st0" points="170.1,325.57 208.68,304.46 139.85,308.12 "/>
<polygon class="st0" points="208.68,304.46 269.51,272.92 196.69,279.42 "/>
<polygon class="st0" points="134.85,214.35 157.45,193.9 112.26,194.43 "/>
<polygon class="st0" points="134.85,214.35 171.98,213.81 157.45,193.9 "/>
<polygon class="st0" points="134.85,214.35 195.66,237.5 171.98,213.81 "/>
<polygon class="st0" points="133.07,285.68 195.66,237.5 134.85,214.35 "/>
<polygon class="st0" points="196.69,279.42 235.47,258.49 133.07,285.68 "/>
<polygon class="st0" points="133.07,285.68 235.47,258.49 195.66,237.5 "/>
<polygon class="st0" points="118.72,172.9 157.45,193.9 148.84,163.74 "/>
<polygon class="st0" points="83.2,193.9 118.72,172.9 79.44,179.9 "/>
<polygon class="st0" points="79.44,179.9 73.17,186.79 73.17,199.29 83.2,193.9 "/>
<polygon class="st0" points="73.17,199.29 73.17,186.79 50.92,211.25 "/>
<polygon class="st0" points="73.17,199.29 73.17,208.87 83.2,193.9 "/>
<polygon class="st0" points="64.81,221.35 73.17,208.87 73.17,199.29 50.92,211.25 "/>
<polygon class="st0" points="27.11,243.15 50.92,211.25 7.73,223.99 "/>
<polygon class="st0" points="27.11,243.15 64.81,221.35 50.92,211.25 "/>
<polygon class="st0" points="73.17,229.22 73.17,261.64 133.07,285.68 "/>
<polygon class="st0" points="27.11,243.15 73.17,261.64 73.17,229.22 64.81,221.35 "/>
<polygon class="st0" points="112.26,194.43 73.17,216.61 73.17,220.51 134.85,214.35 "/>
<polygon class="st0" points="73.17,220.51 73.17,216.61 64.81,221.35 "/>
<polygon class="st0" points="74.01,504.81 73.17,506.48 73.17,534.23 88.88,522.03 "/>
<polygon class="st0" points="73.17,534.23 73.17,506.48 49.77,552.41 "/>
<polygon class="st0" points="158.49,487.27 180.39,417.16 138.15,461.77 "/>
<polygon class="st0" points="123.42,490.73 158.49,487.27 138.15,461.77 "/>
<polygon class="st0" points="127.21,511.9 158.49,487.27 123.42,490.73 "/>
<polygon class="st0" points="7.73,223.99 5.78,224.56 5.71,224.61 0,245.19 0,275.81 27.11,243.15 "/>
<polygon class="st0" points="73.17,261.64 73.17,317.41 133.07,285.68 "/>
<polygon class="st0" points="53.29,327.94 73.17,317.41 73.17,261.64 27.11,243.15 "/>
<polygon class="st0" points="27.11,243.15 0,275.81 0,298.3 53.29,327.94 "/>
<path class="st0" d="M19.46,622.01L5.32,548.68L0,570.89v31.74C7.52,610.43,19.46,622.01,19.46,622.01z"/>
<polygon class="st0" points="5.32,548.68 19.46,622.01 18.35,553.86 "/>
<path class="st0" d="M0,602.62v25.07l19.46-5.68C19.46,622.01,7.52,610.43,0,602.62z"/>
<polygon class="st0" points="5.32,548.68 18.35,527.38 4.27,516.3 "/>
<polygon class="st0" points="18.35,527.38 0,442.52 0,480.74 4.27,516.3 "/>
<polygon class="st0" points="18.35,553.86 18.35,527.38 5.32,548.68 "/>
<polygon class="st0" points="29.31,491.17 0,419.88 0,442.52 18.35,527.38 "/>
<polygon class="st0" points="43.41,451.07 0,405.57 0,419.88 29.31,491.17 "/>
<polygon class="st0" points="29.31,491.17 58.57,479.82 43.41,451.07 "/>
<polygon class="st0" points="110,442.35 115.47,385.07 85.75,431.41 "/>
<polygon class="st0" points="85.75,431.41 73.17,437.26 73.17,447.17 110,442.35 "/>
<polygon class="st0" points="73.17,447.17 73.17,437.26 43.41,451.07 "/>
<polygon class="st0" points="73.17,447.17 73.17,469.18 110,442.35 "/>
<polygon class="st0" points="58.57,479.82 73.17,469.18 73.17,447.17 43.41,451.07 "/>
<polygon class="st0" points="110,442.35 73.17,469.18 73.17,503.44 74.01,504.81 "/>
<polygon class="st0" points="73.17,503.44 73.17,469.18 58.57,479.82 "/>
<polygon class="st0" points="77.28,387.43 73.17,395.15 73.17,437.26 85.75,431.41 "/>
<polygon class="st0" points="73.17,437.26 73.17,395.15 43.41,451.07 "/>
<polygon class="st0" points="73.17,377.23 73.17,395.15 77.28,387.43 "/>
<polygon class="st0" points="43.41,451.07 73.17,395.15 73.17,377.23 53.29,327.94 "/>
<polygon class="st0" points="53.29,327.94 0,383.9 0,405.57 43.41,451.07 "/>
<path class="st0" d="M3.31,340.66c-0.16,0.32-1.51,5.58-3.31,12.7v30.53l53.29-55.95C53.29,327.94,3.84,339.62,3.31,340.66z"/>
<polygon class="st0" points="112.21,328.46 73.17,328.12 73.17,377.23 77.28,387.43 "/>
<polygon class="st0" points="73.17,377.23 73.17,328.12 53.29,327.94 "/>
<polygon class="st0" points="133.07,285.68 73.17,317.41 73.17,328.12 112.21,328.46 "/>
<polygon class="st0" points="73.17,328.12 73.17,317.41 53.29,327.94 "/>
<polygon class="st0" points="77.28,387.43 134.63,336.86 112.21,328.46 "/>
<polygon class="st0" points="134.63,336.86 139.85,308.12 112.21,328.46 "/>
<polygon class="st0" points="112.21,328.46 139.85,308.12 133.07,285.68 "/>
<polygon class="st0" points="139.85,308.12 196.69,279.42 133.07,285.68 "/>
<polygon class="st0" points="194.28,354.55 269.51,272.92 208.68,304.46 "/>
<polygon class="st0" points="118.72,172.9 148.84,163.74 123.02,136.83 "/>
<polygon class="st0" points="207.49,221.88 251.91,203.36 234.31,191.03 "/>
<polygon class="st0" points="207.49,221.88 234.31,191.03 198.24,176.95 "/>
<polygon class="st0" points="219.35,169.02 236.07,184.87 232.55,171.66 "/>
<polygon class="st0" points="259.68,233.73 277.43,227.13 234.39,224.04 "/>
<polygon class="st0" points="235.47,258.49 266.87,239.46 259.68,233.73 "/>
<polygon class="st0" points="235.47,258.49 259.68,233.73 231.16,247.19 "/>
<polygon class="st0" points="231.16,247.19 259.68,233.73 239.78,233.73 "/>
<polygon class="st0" points="239.78,233.73 259.68,233.73 234.39,224.04 "/>
<polygon class="st0" points="231.16,247.19 239.78,233.73 234.39,224.04 "/>
<path class="st0" d="M132.81,698.12"/>
<path class="st0" d="M114.3,684.03"/>
<polygon class="st0" points="139.41,613.86 236.71,589.43 229.67,495.48 "/>
<polygon class="st0" points="139.41,613.86 242.96,645.29 236.71,589.43 "/>
<polygon class="st0" points="242.96,645.29 139.41,613.86 163.94,646.92 234.16,646.92 "/>
<polygon class="st0" points="234.16,646.92 163.94,646.92 172.44,658.4 "/>
<path class="st0" d="M86.38,699.88"/>
<path class="st0" d="M122.38,715.86"/>
<path class="st0" d="M86.38,699.88"/>
<path class="st0" d="M132.81,698.12"/>
<polygon class="st0" points="0,760.4 0,787.55 40.12,758.12 "/>
<polygon class="st0" points="6.58,790.92 19.06,790.92 25.39,782.64 "/>
<polygon class="st0" points="19.06,790.92 30.37,790.92 25.39,782.64 "/>
<polygon class="st0" points="40.12,758.12 0,787.55 0,790.92 6.58,790.92 25.39,782.64 "/>
<polygon class="st0" points="25.39,782.64 43.49,790.92 66.1,790.92 40.12,758.12 "/>
<polygon class="st0" points="30.37,790.92 43.49,790.92 25.39,782.64 "/>
<polygon class="st0" points="223.78,790.92 235.36,790.92 216.77,771.95 "/>
<polygon class="st0" points="369.67,645.29 367.65,646.92 369.88,646.92 "/>
<polygon class="st0" points="381.7,739.99 369.88,646.92 367.65,646.92 325.17,681.29 "/>
<polygon class="st0" points="369.67,645.29 331.35,630.81 329.38,646.92 367.65,646.92 "/>
<polygon class="st0" points="367.65,646.92 329.38,646.92 325.17,681.29 "/>
<polygon class="st0" points="369.67,645.29 381.61,540.62 332.14,582.84 "/>
<polygon class="st0" points="344.65,542.38 381.61,540.62 380.82,462.65 "/>
<polygon class="st0" points="318.06,516.3 380.82,462.65 328.22,459.34 "/>
<path class="st0" d="M260.96,398.38c1.95-2.35,48.15-48.86,48.15-48.86l-39.6-76.6L260.96,398.38z"/>
<polygon class="st0" points="309.11,349.51 342.27,326.06 315.27,297.57 "/>
<polygon class="st0" points="315.27,297.57 315.27,273.8 269.51,272.92 "/>
<polygon class="st0" points="309.11,349.51 315.27,297.57 269.51,272.92 "/>
<polygon class="st0" points="408.1,451.2 422.85,432.12 374.22,408.5 "/>
<polygon class="st0" points="416.02,458.25 442.42,459.13 427.96,452.03 "/>
<polygon class="st0" points="402.82,459.13 408.1,451.2 380.82,462.65 "/>
<polygon class="st0" points="416.02,458.25 427.96,452.03 402.82,459.13 "/>
<polygon class="st0" points="417.33,399 422.85,432.12 441.14,415.7 418.25,399.11 "/>
<polygon class="st0" points="441.14,415.7 446.39,402.23 418.25,399.11 "/>
<polygon class="st0" points="388.84,489.94 408.1,489.94 403.7,481.14 "/>
<polygon class="st0" points="435.38,488.18 438.9,483.78 416.02,481.14 "/>
<polygon class="st0" points="408.1,489.94 416.02,481.14 403.7,481.14 "/>
<polygon class="st0" points="398.54,510.88 412.5,507.55 408.1,489.94 "/>
<path class="st0" d="M380.82,462.65"/>
<polygon class="st0" points="381.61,540.62 411.62,561.26 409.86,538.37 "/>
<polygon class="st0" points="391.19,524.28 410.74,524.28 398.54,510.88 "/>
<polygon class="st0" points="410.74,524.28 412.5,507.55 398.54,510.88 "/>
<polygon class="st0" points="411.62,561.26 439.78,570.06 438.72,560.78 "/>
<polygon class="st0" points="381.61,540.62 409.86,538.37 391.19,524.28 "/>
<polygon class="st0" points="409.86,538.37 437.14,539.25 410.74,524.28 "/>
<polygon class="st0" points="369.67,645.29 427.46,592.96 411.62,561.26 "/>
<polygon class="st0" points="430.98,610.56 436.89,646.92 452.91,646.92 "/>
<polygon class="st0" points="455.67,651.5 452.91,646.92 436.89,646.92 437.14,648.42 "/>
<polygon class="st0" points="430.98,610.56 423.29,646.92 436.89,646.92 "/>
<polygon class="st0" points="437.14,648.42 436.89,646.92 423.29,646.92 421.3,656.35 "/>
<polygon class="st0" points="427.46,592.96 369.67,645.29 373.65,646.92 411.35,646.92 "/>
<polygon class="st0" points="411.35,646.92 373.65,646.92 407.22,660.75 "/>
<polygon class="st0" points="430.98,610.56 427.46,592.96 411.35,646.92 413.77,646.92 "/>
<polygon class="st0" points="413.77,646.92 411.35,646.92 407.22,660.75 "/>
<polygon class="st0" points="381.61,540.62 391.19,524.28 388.84,489.94 "/>
<polygon class="st0" points="391.19,524.28 398.54,510.88 388.84,489.94 "/>
<polygon class="st0" points="388.84,489.94 403.7,481.14 380.82,462.65 "/>
<polygon class="st0" points="419.54,745.27 428.5,712.6 398.42,749.67 "/>
<polygon class="st0" points="369.67,645.29 371.99,646.92 373.65,646.92 "/>
<polygon class="st0" points="407.22,660.75 373.65,646.92 371.99,646.92 416.93,678.68 "/>
<polygon class="st0" points="369.67,645.29 370.12,646.92 371.1,646.92 "/>
<polygon class="st0" points="428.5,712.6 371.1,646.92 370.12,646.92 398.42,749.67 "/>
<polygon class="st0" points="369.67,645.29 369.88,646.92 370.12,646.92 "/>
<polygon class="st0" points="398.42,749.67 370.12,646.92 369.88,646.92 381.7,739.99 "/>
<polygon class="st0" points="0,627.69 0,637.89 19.46,622.01 "/>
<polygon class="st0" points="354.69,788.12 357.22,790.92 384.96,790.92 381.7,739.99 "/>
<polygon class="st0" points="242.96,645.29 242.15,646.92 243.93,646.92 "/>
<polygon class="st0" points="296.15,735.16 243.93,646.92 242.15,646.92 212.66,706.47 "/>
<polygon class="st0" points="242.96,645.29 243.93,646.92 246.7,646.92 "/>
<polygon class="st0" points="325.17,681.29 246.7,646.92 243.93,646.92 296.15,735.16 "/>
<path class="st0" d="M242.96,645.29c1.18-1.95,12.52-33.25,12.52-33.25l-18.78-22.6L242.96,645.29z"/>
<polygon class="st0" points="236.71,589.43 290.68,580.88 265.65,564.29 "/>
<polygon class="st0" points="265.65,564.29 271.12,532.15 236.71,589.43 "/>
<polygon class="st0" points="229.67,495.48 271.12,532.15 262.52,497.37 "/>
<polygon class="st0" points="271.12,532.15 295.37,516.3 262.52,497.37 "/>
<polygon class="st0" points="262.52,497.37 295.37,516.3 288.33,485.51 "/>
<polygon class="st0" points="262.52,497.37 288.33,485.51 278.16,472.72 "/>
<polygon class="st0" points="262.52,497.37 278.16,472.72 247.66,461.77 "/>
<polygon class="st0" points="278.16,472.72 328.22,459.34 247.66,461.77 "/>
<polygon class="st0" points="288.33,485.51 328.22,459.34 278.16,472.72 "/>
<polygon class="st0" points="229.67,495.48 262.52,497.37 247.66,461.77 "/>
<polygon class="st0" points="229.67,495.48 247.66,461.77 226.54,480.29 "/>
<polygon class="st0" points="226.54,480.29 247.66,461.77 212.66,464.53 "/>
<polygon class="st0" points="212.66,464.53 229.67,495.48 226.54,480.29 "/>
<polygon class="st0" points="177.27,525.85 229.67,495.48 212.66,464.53 "/>
<polygon class="st0" points="139.41,613.86 229.67,495.48 177.27,525.85 "/>
<polygon class="st0" points="236.71,589.43 271.12,532.15 229.67,495.48 "/>
<polygon class="st0" points="120.95,634.72 126.45,646.92 147.49,646.92 "/>
<polygon class="st0" points="172.44,658.4 147.49,646.92 126.45,646.92 131.9,658.99 "/>
<polygon class="st0" points="120.95,634.72 106.44,646.92 126.45,646.92 "/>
<polygon class="st0" points="131.9,658.99 126.45,646.92 106.44,646.92 96.44,655.33 "/>
<polygon class="st0" points="139.41,613.86 120.95,634.72 147.49,646.92 163.94,646.92 "/>
<polygon class="st0" points="163.94,646.92 147.49,646.92 172.44,658.4 "/>
<polygon class="st0" points="73.17,637.02 73.17,646.92 85.75,646.92 "/>
<polygon class="st0" points="85.75,646.92 73.17,646.92 73.17,676.11 96.44,655.33 "/>
<polygon class="st0" points="63.08,646.92 73.17,646.92 73.17,637.02 58.57,625.53 "/>
<polygon class="st0" points="63.08,646.92 69.84,679.07 73.17,676.11 73.17,646.92 "/>
<polygon class="st0" points="120.95,634.72 73.17,627.68 73.17,637.02 85.75,646.92 106.44,646.92 "/>
<polygon class="st0" points="106.44,646.92 85.75,646.92 96.44,655.33 "/>
<polygon class="st0" points="73.17,637.02 73.17,627.68 58.57,625.53 "/>
<polygon class="st0" points="139.41,613.86 73.17,623.42 73.17,627.68 120.95,634.72 "/>
<polygon class="st0" points="73.17,627.68 73.17,623.42 58.57,625.53 "/>
<polygon class="st0" points="42.36,646.92 43.08,646.92 42.54,646.28 "/>
<polygon class="st0" points="69.84,679.07 43.08,646.92 42.36,646.92 34.72,674.05 "/>
<polygon class="st0" points="52.28,718.21 69.84,679.07 28.46,692.45 "/>
<polygon class="st0" points="28.46,692.45 69.84,679.07 34.72,674.05 "/>
<polygon class="st0" points="40.25,757.68 52.28,718.21 0,725.52 0,733.27 40.12,758.12 "/>
<polygon class="st0" points="28.46,692.45 0,717.85 0,725.52 52.28,718.21 "/>
<polygon class="st0" points="0,733.27 0,760.4 40.12,758.12 "/>
<polygon class="st0" points="0,684.69 0,709.93 21.02,674.84 "/>
<polygon class="st0" points="21.02,674.84 0,709.93 0,717.85 28.46,692.45 "/>
<polygon class="st0" points="28.46,692.45 34.72,674.05 21.02,674.84 "/>
<polygon class="st0" points="22.79,646.92 24.15,646.92 22.98,643.92 "/>
<polygon class="st0" points="34.72,674.05 24.15,646.92 22.79,646.92 21.02,674.84 "/>
<polygon class="st0" points="22.98,643.92 24.15,646.92 31.41,646.92 30.8,641.97 "/>
<polygon class="st0" points="31.41,646.92 24.15,646.92 34.72,674.05 "/>
<polygon class="st0" points="30.8,641.97 31.41,646.92 42.36,646.92 42.54,646.28 "/>
<polygon class="st0" points="42.36,646.92 31.41,646.92 34.72,674.05 "/>
<polygon class="st0" points="6.56,640.01 9.43,646.92 22.79,646.92 22.98,643.92 "/>
<polygon class="st0" points="22.79,646.92 9.43,646.92 21.02,674.84 "/>
<polygon class="st0" points="42.54,646.28 43.08,646.92 63.08,646.92 58.57,625.53 "/>
<polygon class="st0" points="63.08,646.92 43.08,646.92 69.84,679.07 "/>
<polygon class="st0" points="9.43,646.92 0,646.92 0,667.35 21.02,674.84 "/>
<polygon class="st0" points="0,667.35 0,684.69 21.02,674.84 "/>
<polygon class="st0" points="19.46,622.01 44.49,618.1 18.35,553.86 "/>
<polygon class="st0" points="22.98,643.92 44.49,618.1 19.46,622.01 "/>
<polygon class="st0" points="6.56,640.01 22.98,643.92 19.46,622.01 "/>
<polygon class="st0" points="19.46,622.01 0,637.89 0,643.81 6.56,640.01 "/>
<polygon class="st0" points="40.38,511.9 58.57,479.82 29.31,491.17 "/>
<polygon class="st0" points="29.31,521.51 40.38,511.9 29.31,491.17 "/>
<polygon class="st0" points="73.17,503.44 73.17,504.99 74.01,504.81 "/>
<polygon class="st0" points="40.38,511.9 73.17,504.99 73.17,503.44 58.57,479.82 "/>
<polygon class="st0" points="73.17,504.99 73.17,506.48 74.01,504.81 "/>
<polygon class="st0" points="49.77,552.41 73.17,506.48 73.17,504.99 40.38,511.9 "/>
<polygon class="st0" points="29.31,521.51 49.77,552.41 40.38,511.9 "/>
<polygon class="st0" points="18.35,553.86 49.77,552.41 29.31,521.51 "/>
<polygon class="st0" points="44.49,618.1 49.77,552.41 18.35,553.86 "/>
<polygon class="st0" points="73.17,562.24 73.17,591.09 94.35,571.14 "/>
<polygon class="st0" points="44.49,618.1 73.17,591.09 73.17,562.24 49.77,552.41 "/>
<polygon class="st0" points="73.17,591.09 73.17,603.34 94.35,571.14 "/>
<polygon class="st0" points="58.57,625.53 73.17,603.34 73.17,591.09 44.49,618.1 "/>
<polygon class="st0" points="30.8,641.97 58.57,625.53 44.49,618.1 "/>
<polygon class="st0" points="42.54,646.28 58.57,625.53 30.8,641.97 "/>
<polygon class="st0" points="30.8,641.97 44.49,618.1 22.98,643.92 "/>
<polygon class="st0" points="94.35,571.14 73.17,603.34 73.17,623.42 139.41,613.86 "/>
<polygon class="st0" points="73.17,623.42 73.17,603.34 58.57,625.53 "/>
<polygon class="st0" points="94.35,571.14 139.41,613.86 115.47,532.15 "/>
<polygon class="st0" points="94.35,571.14 115.47,532.15 88.88,522.03 "/>
<polygon class="st0" points="88.88,522.03 73.17,534.23 73.17,562.24 94.35,571.14 "/>
<polygon class="st0" points="73.17,562.24 73.17,534.23 49.77,552.41 "/>
<path class="st0" d="M139.41,613.86l37.85-88.01c0,0-57.1,5.57-61.8,6.3L139.41,613.86z"/>
<path class="st0" d="M115.47,532.15c4.7-0.73,61.8-6.3,61.8-6.3l-50.06-13.95L115.47,532.15z"/>
<polygon class="st0" points="115.47,532.15 127.21,511.9 88.88,522.03 "/>
<polygon class="st0" points="88.88,522.03 127.21,511.9 101.39,480.29 "/>
<polygon class="st0" points="88.88,522.03 101.39,480.29 74.01,504.81 "/>
<polygon class="st0" points="101.39,480.29 127.21,511.9 123.42,490.73 "/>
<polygon class="st0" points="123.42,490.73 126.42,448.47 101.39,480.29 "/>
<polygon class="st0" points="101.39,480.29 126.42,448.47 110,442.35 "/>
<polygon class="st0" points="101.39,480.29 110,442.35 74.01,504.81 "/>
<polygon class="st0" points="138.15,461.77 157.71,392.64 126.42,448.47 "/>
<polygon class="st0" points="126.42,448.47 128.77,396 110,442.35 "/>
<polygon class="st0" points="158.49,487.27 212.66,464.53 180.39,417.16 "/>
<polygon class="st0" points="177.27,525.85 212.66,464.53 158.49,487.27 "/>
<polygon class="st0" points="127.21,511.9 177.27,525.85 158.49,487.27 "/>
<polygon class="st0" points="115.47,385.07 134.63,336.86 77.28,387.43 "/>
<polygon class="st0" points="115.47,385.07 157.71,392.64 134.63,336.86 "/>
<polygon class="st0" points="157.71,392.64 170.1,325.57 134.63,336.86 "/>
<polygon class="st0" points="194.28,354.55 208.68,304.46 170.1,325.57 "/>
<polygon class="st0" points="157.71,392.64 194.28,354.55 170.1,325.57 "/>
<polygon class="st0" points="180.39,417.16 194.28,354.55 157.71,392.64 "/>
<polygon class="st0" points="138.15,461.77 180.39,417.16 157.71,392.64 "/>
<polygon class="st0" points="180.39,417.16 260.96,398.38 194.28,354.55 "/>
<polygon class="st0" points="212.66,464.53 260.96,398.38 180.39,417.16 "/>
<polygon class="st0" points="247.66,461.77 260.96,398.38 212.66,464.53 "/>
<polygon class="st0" points="328.22,459.34 330.16,381.24 260.96,398.38 "/>
<path class="st0" d="M260.96,398.38l69.21-17.13l-21.06-31.73C309.11,349.51,262.91,396.03,260.96,398.38z"/>
<polygon class="st0" points="344.65,542.38 380.82,462.65 318.06,516.3 "/>
<polygon class="st0" points="318.06,516.3 328.22,459.34 288.33,485.51 "/>
<polygon class="st0" points="295.37,516.3 318.06,516.3 288.33,485.51 "/>
<polygon class="st0" points="328.22,459.34 380.82,462.65 330.16,381.24 "/>
<polygon class="st0" points="330.16,381.24 380.82,462.65 374.22,408.5 "/>
<polygon class="st0" points="331.35,630.81 332.14,582.84 303.19,586.99 "/>
<polygon class="st0" points="303.19,586.99 332.14,582.84 311.8,577.6 "/>
<polygon class="st0" points="311.8,577.6 332.14,582.84 316.49,560.97 "/>
<polygon class="st0" points="316.49,560.97 344.65,542.38 308.67,542.38 "/>
<polygon class="st0" points="295.37,555.1 316.49,560.97 308.67,542.38 "/>
<polygon class="st0" points="311.8,577.6 316.49,560.97 295.37,555.1 "/>
<polygon class="st0" points="271.12,532.15 308.67,542.38 295.37,516.3 "/>
<polygon class="st0" points="308.67,542.38 318.06,516.3 295.37,516.3 "/>
<polygon class="st0" points="308.67,542.38 344.65,542.38 318.06,516.3 "/>
<polygon class="st0" points="332.14,582.84 381.61,540.62 344.65,542.38 "/>
<polygon class="st0" points="290.68,580.88 311.8,577.6 295.37,555.1 "/>
<polygon class="st0" points="265.65,564.29 295.37,555.1 271.12,532.15 "/>
<polygon class="st0" points="290.68,580.88 295.37,555.1 265.65,564.29 "/>
<polygon class="st0" points="295.37,555.1 308.67,542.38 271.12,532.15 "/>
<polygon class="st0" points="331.35,630.81 289.9,634.72 299.14,646.92 329.38,646.92 "/>
<polygon class="st0" points="329.38,646.92 299.14,646.92 325.17,681.29 "/>
<polygon class="st0" points="332.14,582.84 344.65,542.38 316.49,560.97 "/>
<polygon class="st0" points="289.9,634.72 290.68,580.88 255.48,612.03 "/>
<path class="st0" d="M242.96,645.29l46.94-10.57l-34.41-22.69C255.48,612.03,244.14,643.33,242.96,645.29z"/>
<polygon class="st0" points="255.48,612.03 290.68,580.88 236.71,589.43 "/>
<polygon class="st0" points="353.62,790.92 356.42,790.92 354.69,788.12 "/>
<polygon class="st0" points="216.77,790.92 223.78,790.92 216.77,771.95 "/>
<polygon class="st0" points="139.22,790.92 142.98,790.92 142.59,788.38 "/>
<polygon class="st0" points="142.98,790.92 145.85,790.92 142.59,788.38 "/>
<polygon class="st0" points="200.31,790.92 216.77,790.92 216.77,771.95 "/>
<polygon class="st0" points="142.59,788.38 145.85,790.92 174.6,790.92 162.14,705.69 "/>
<polygon class="st0" points="162.14,705.69 174.6,790.92 200.31,790.92 216.77,771.95 "/>
<polygon class="st0" points="162.14,705.69 216.77,771.95 212.66,706.47 "/>
<polygon class="st0" points="212.66,706.47 265.79,790.92 305.64,790.92 296.15,735.16 "/>
<polygon class="st0" points="18.35,553.86 29.31,521.51 18.35,527.38 "/>
<polygon class="st0" points="364.07,318.25 404.02,301.83 361.24,305.6 "/>
<polygon class="st0" points="315.27,297.57 364.07,318.25 361.24,305.6 "/>
<path class="st0" d="M73.17,725.47v8.38c4.84-3.26,8.24-5.52,8.24-5.52L73.17,725.47z"/>
<path class="st0" d="M40.25,757.68c1.98-2.76,21.48-16.12,32.92-23.82v-8.38l-20.89-7.27L40.25,757.68z"/>
<polygon class="st0" points="73.17,684.03 73.17,705.15 83.15,698.91 "/>
<polygon class="st0" points="52.28,718.21 73.17,705.15 73.17,684.03 69.84,679.07 "/>
<polygon class="st0" points="96.44,655.33 73.17,676.11 73.17,678.69 92.77,676.45 "/>
<polygon class="st0" points="73.17,678.69 73.17,676.11 69.84,679.07 "/>
<polygon class="st0" points="129.13,679.65 131.9,658.99 96.44,655.33 "/>
<polygon class="st0" points="142.59,788.38 162.14,705.69 137.12,757.87 "/>
<path class="st0" d="M120.63,773.27l-21.7,17.65h34.12l9.53-2.55C141.72,787.83,120.63,773.27,120.63,773.27z"/>
<path class="st0" d="M73.17,760.53v30.4h8.4l4.79-29.95C86.35,760.97,80.61,760.81,73.17,760.53z"/>
<path class="st0" d="M66.1,790.92h7.06v-30.4c-13.38-0.5-32.24-1.39-33.05-2.41L66.1,790.92z"/>
<polygon class="st0" points="86.35,760.97 81.56,790.92 98.93,790.92 120.63,773.27 "/>
<path class="st0" d="M81.41,728.34c0,0-3.4,2.25-8.24,5.52v26.67c7.44,0.28,13.18,0.44,13.18,0.44L81.41,728.34z"/>
<path class="st0" d="M40.25,757.68l-0.13,0.44c0.8,1.02,19.67,1.91,33.05,2.41v-26.67C61.73,741.56,42.23,754.92,40.25,757.68z"/>
<path class="st0" d="M40.12,758.12l0.13-0.44C40.1,757.89,40.06,758.04,40.12,758.12z"/>
<polygon class="st0" points="83.15,698.91 73.17,705.15 73.17,725.47 81.41,728.34 "/>
<polygon class="st0" points="73.17,725.47 73.17,705.15 52.28,718.21 "/>
<polygon class="st0" points="92.77,676.45 73.17,678.69 73.17,684.03 83.15,698.91 "/>
<polygon class="st0" points="73.17,684.03 73.17,678.69 69.84,679.07 "/>
<polygon class="st0" points="92.77,676.45 129.13,679.65 96.44,655.33 "/>
<polygon class="st0" points="129.13,679.65 152.65,695.98 131.9,658.99 "/>
<polygon class="st0" points="137.12,757.87 162.14,705.69 152.65,695.98 "/>
<path class="st0" d="M120.63,773.27c0,0,21.08,14.56,21.95,15.11l-5.46-30.51L120.63,773.27z"/>
<polygon class="st0" points="162.14,705.69 172.44,658.4 152.65,695.98 "/>
<polygon class="st0" points="152.65,695.98 172.44,658.4 131.9,658.99 "/>
<polygon class="st0" points="96.91,744.67 97.58,739.47 90.18,739.02 "/>
<polygon class="st0" points="90.59,747.09 94.09,746.55 90.18,739.02 "/>
<polygon class="st0" points="89.92,728.34 97.58,725.42 89.11,714.32 "/>
<polygon class="st0" points="97.58,725.42 100.81,721.25 89.11,714.32 "/>
<polygon class="st0" points="89.11,714.32 98.26,701.47 89.11,703.96 "/>
<polygon class="st0" points="113.73,719.23 120.58,717.22 111.04,709.54 "/>
<polygon class="st0" points="120.58,717.22 125.83,713.62 130.54,709.94 116.55,708.19 "/>
<polygon class="st0" points="130.54,709.94 134.04,705.1 120.32,706.04 "/>
<polygon class="st0" points="124.35,694.64 135.38,694.64 131.36,687.7 "/>
<polygon class="st0" points="120.18,687.2 131.36,687.7 119.1,682.05 "/>
<polygon class="st0" points="104.98,686.39 112.51,684.88 104.28,681.75 "/>
<polygon class="st0" points="99.6,688.95 104.28,681.75 94.54,687.45 "/>
<polygon class="st0" points="91.12,695.97 97.58,692.45 94.54,687.45 "/>
<polygon class="st0" points="97.58,692.45 99.6,688.95 94.54,687.45 "/>
<polygon class="st0" points="89.11,703.96 97.58,696.49 91.12,695.97 "/>
<polygon class="st0" points="89.11,703.96 98.26,701.47 97.58,696.49 "/>
<polygon class="st0" points="101.08,706.04 109.37,700.83 105.24,699.71 "/>
<polygon class="st0" points="106.19,709.13 111.04,709.54 109.37,700.83 "/>
<polygon class="st0" points="116.55,708.19 120.32,706.04 115.52,699.41 "/>
<polygon class="st0" points="115.52,699.41 122.6,703.09 117.34,696.18 "/>
<path class="st0" d="M117.34,696.18l7.42,2.72c0,0-0.4-3.95-0.4-4.26L117.34,696.18z"/>
<path class="st0" d="M116.54,692.71l7.81,1.94c0-0.31-1.48-4.48-1.48-4.48L116.54,692.71z"/>
<polygon class="st0" points="115.73,690.84 122.87,690.16 120.18,687.2 "/>
<polygon class="st0" points="115.73,690.84 120.18,687.2 112.51,684.88 "/>
<polygon class="st0" points="110.17,688.11 112.51,684.88 104.98,686.39 "/>
<polygon class="st0" points="103.52,689.83 104.98,686.39 99.6,688.95 "/>
<polygon class="st0" points="97.58,692.45 102.21,692.71 99.6,688.95 "/>
<polygon class="st0" points="98.26,701.47 103.21,696.76 97.58,696.49 "/>
<polygon class="st0" points="98.26,701.47 105.24,699.71 103.21,696.76 "/>
<polygon class="st0" points="109.37,700.83 112.8,700.83 111.17,697.57 "/>
<polygon class="st0" points="115.52,699.41 117.34,696.18 111.17,697.57 "/>
<polygon class="st0" points="112.51,695.78 117.34,696.18 116.54,692.71 "/>
<polygon class="st0" points="112.51,693.81 116.54,692.71 115.73,690.84 "/>
<polygon class="st0" points="112.51,693.81 115.73,690.84 114.01,689.42 "/>
<polygon class="st0" points="111.01,692.71 114.01,689.42 110.17,688.11 "/>
<polygon class="st0" points="108.54,692.71 110.17,688.11 106.75,688.41 "/>
<polygon class="st0" points="102.21,692.71 107.43,694.17 103.52,689.83 "/>
<polygon class="st0" points="103.21,696.76 107.43,694.17 102.21,692.71 "/>
<polygon class="st0" points="105.24,699.71 107.52,696.54 103.21,696.76 "/>
<polygon class="st0" points="105.24,699.71 109.09,697.75 107.52,696.54 "/>
<polygon class="st0" points="109.09,697.75 109.87,695.28 107.52,696.54 "/>
<polygon class="st0" points="111.17,697.57 112.51,695.78 109.87,695.28 "/>
<polygon class="st0" points="109.87,695.28 112.51,693.81 111.01,692.71 "/>
<polygon class="st0" points="107.43,694.17 109.87,695.28 108.54,692.71 "/>
<polygon class="st0" points="111.04,709.54 116.55,708.19 112.8,700.83 "/>
<polygon class="st0" points="112.8,700.83 116.55,708.19 115.52,699.41 "/>
<polygon class="st0" points="112.8,700.83 115.52,699.41 111.17,697.57 "/>
<polygon class="st0" points="111.17,697.57 117.34,696.18 112.51,695.78 "/>
<polygon class="st0" points="112.51,695.78 116.54,692.71 112.51,693.81 "/>
<polygon class="st0" points="112.51,693.81 114.01,689.42 111.01,692.71 "/>
<polygon class="st0" points="108.54,692.71 111.01,692.71 110.17,688.11 "/>
<polygon class="st0" points="122.87,690.16 131.36,687.7 120.18,687.2 "/>
<polygon class="st0" points="117.34,696.18 124.35,694.64 116.54,692.71 "/>
<polygon class="st0" points="116.54,692.71 122.87,690.16 115.73,690.84 "/>
<polygon class="st0" points="110.17,688.11 114.01,689.42 112.51,684.88 "/>
<polygon class="st0" points="103.52,689.83 108.54,692.71 106.75,688.41 "/>
<polygon class="st0" points="107.43,694.17 108.54,692.71 103.52,689.83 "/>
<polygon class="st0" points="114.01,689.42 115.73,690.84 112.51,684.88 "/>
<polygon class="st0" points="100.81,721.25 105.25,719.52 101.08,706.04 "/>
<polygon class="st0" points="99.6,688.95 104.98,686.39 104.28,681.75 "/>
<polygon class="st0" points="101.08,706.04 105.24,699.71 98.26,701.47 "/>
<polygon class="st0" points="106.19,709.13 109.37,700.83 101.08,706.04 "/>
<polygon class="st0" points="106.75,688.41 110.17,688.11 104.98,686.39 "/>
<polygon class="st0" points="103.52,689.83 106.75,688.41 104.98,686.39 "/>
<polygon class="st0" points="102.21,692.71 103.52,689.83 99.6,688.95 "/>
<polygon class="st0" points="105.24,699.71 109.37,700.83 109.09,697.75 "/>
<polygon class="st0" points="103.21,696.76 107.52,696.54 107.43,694.17 "/>
<polygon class="st0" points="97.58,696.49 102.21,692.71 97.58,692.45 "/>
<polygon class="st0" points="97.58,696.49 103.21,696.76 102.21,692.71 "/>
<polygon class="st0" points="111.04,709.54 112.8,700.83 109.37,700.83 "/>
<polygon class="st0" points="109.37,700.83 111.17,697.57 109.09,697.75 "/>
<polygon class="st0" points="100.81,721.25 101.08,706.04 89.11,714.32 "/>
<polygon class="st0" points="89.11,714.32 101.08,706.04 98.26,701.47 "/>
<polygon class="st0" points="105.25,719.52 106.19,709.13 101.08,706.04 "/>
<polygon class="st0" points="97.58,696.49 97.58,692.45 91.12,695.97 "/>
<polygon class="st0" points="112.51,684.88 120.18,687.2 119.1,682.05 "/>
<polygon class="st0" points="112.51,684.88 119.1,682.05 104.28,681.75 "/>
<polygon class="st0" points="108.48,751.47 118.57,752.54 113.32,748.91 "/>
<polygon class="st0" points="120.64,748.51 120.64,741.1 113.32,748.91 "/>
<polygon class="st0" points="118.57,752.54 120.64,748.51 113.32,748.91 "/>
<polygon class="st0" points="111.17,746.62 120.64,741.1 118.97,736.39 "/>
<polygon class="st0" points="103.64,742.99 111.17,746.62 103.23,739.47 "/>
<polygon class="st0" points="104.58,749.32 111.17,746.62 103.64,742.99 "/>
<polygon class="st0" points="97.58,739.47 103.64,742.99 103.23,739.47 "/>
<polygon class="st0" points="118.97,736.39 122.06,731.09 103.23,739.47 "/>
<polygon class="st0" points="122.06,731.09 130.54,726.43 113.73,719.23 "/>
<polygon class="st0" points="130.54,726.43 137.13,718.9 120.58,717.22 "/>
<polygon class="st0" points="140.22,712.03 140.89,703.02 134.04,705.1 "/>
<polygon class="st0" points="135.92,699.85 140.89,703.02 139.95,697.9 "/>
<polygon class="st0" points="135.92,699.85 139.95,697.9 135.38,694.64 "/>
<polygon class="st0" points="124.75,698.9 135.92,699.85 135.38,694.64 "/>
<path class="st0" d="M124.75,698.9l10.63-4.26h-11.03C124.35,694.95,124.75,698.9,124.75,698.9z"/>
<path class="st0" d="M124.35,694.64l7.01-6.94l-8.49,2.46C122.87,690.16,124.35,694.33,124.35,694.64z"/>
<polygon class="st0" points="108.48,751.47 113.32,748.91 110.5,749.32 "/>
<polygon class="st0" points="90.18,739.02 96.91,730.67 89.92,728.34 "/>
<polygon class="st0" points="97.58,739.47 98.55,736.06 96.91,730.67 "/>
<polygon class="st0" points="96.91,730.67 98.55,736.06 97.58,725.42 "/>
<polygon class="st0" points="98.55,736.06 100.81,721.25 97.58,725.42 "/>
<polygon class="st0" points="96.91,730.67 97.58,725.42 89.92,728.34 "/>
<polygon class="st0" points="93.48,759.43 102.03,746.76 94.09,746.55 "/>
<polygon class="st0" points="93.48,759.43 94.09,746.55 90.59,747.09 "/>
<polygon class="st0" points="93.48,759.43 104.58,749.32 102.03,746.76 "/>
<polygon class="st0" points="108.48,751.47 110.5,749.32 104.58,749.32 "/>
<polygon class="st0" points="93.48,759.43 108.48,751.47 104.58,749.32 "/>
<polygon class="st0" points="93.48,759.43 118.57,752.54 108.48,751.47 "/>
<polygon class="st0" points="110.5,749.32 111.17,746.62 104.58,749.32 "/>
<polygon class="st0" points="110.5,749.32 113.32,748.91 111.17,746.62 "/>
<polygon class="st0" points="113.32,748.91 120.64,741.1 111.17,746.62 "/>
<polygon class="st0" points="102.03,746.76 104.58,749.32 103.64,742.99 "/>
<polygon class="st0" points="102.03,746.76 103.64,742.99 96.91,744.67 "/>
<polygon class="st0" points="96.91,744.67 103.64,742.99 97.58,739.47 "/>
<polygon class="st0" points="94.09,746.55 102.03,746.76 96.91,744.67 "/>
<polygon class="st0" points="94.09,746.55 96.91,744.67 90.18,739.02 "/>
<polygon class="st0" points="111.17,746.62 118.97,736.39 103.23,739.47 "/>
<polygon class="st0" points="97.58,739.47 103.23,739.47 98.55,736.06 "/>
<polygon class="st0" points="103.23,739.47 105.25,719.52 98.55,736.06 "/>
<polygon class="st0" points="103.23,739.47 122.06,731.09 113.73,719.23 "/>
<polygon class="st0" points="113.73,719.23 130.54,726.43 120.58,717.22 "/>
<polygon class="st0" points="125.83,713.62 120.58,717.22 137.13,718.9 130.54,709.94 "/>
<polygon class="st0" points="137.13,718.9 140.22,712.03 130.54,709.94 "/>
<polygon class="st0" points="130.54,709.94 140.22,712.03 134.04,705.1 "/>
<polygon class="st0" points="105.25,719.52 113.73,719.23 106.19,709.13 "/>
<polygon class="st0" points="106.19,709.13 113.73,719.23 111.04,709.54 "/>
<polygon class="st0" points="111.04,709.54 120.58,717.22 116.55,708.19 "/>
<polygon class="st0" points="116.55,708.19 130.54,709.94 120.32,706.04 "/>
<polygon class="st0" points="120.32,706.04 134.04,705.1 122.6,703.09 "/>
<polygon class="st0" points="134.04,705.1 135.92,699.85 122.6,703.09 "/>
<polygon class="st0" points="122.6,703.09 135.92,699.85 124.75,698.9 "/>
<polygon class="st0" points="120.32,706.04 122.6,703.09 115.52,699.41 "/>
<polygon class="st0" points="122.6,703.09 124.75,698.9 117.34,696.18 "/>
<polygon class="st0" points="134.04,705.1 140.89,703.02 135.92,699.85 "/>
<polygon class="st0" points="98.55,736.06 105.25,719.52 100.81,721.25 "/>
<polygon class="st0" points="103.23,739.47 113.73,719.23 105.25,719.52 "/>
<polygon class="st0" points="90.18,739.02 97.58,739.47 96.91,730.67 "/>
<polygon class="st0" points="109.87,695.28 111.01,692.71 108.54,692.71 "/>
<polygon class="st0" points="107.52,696.54 109.87,695.28 107.43,694.17 "/>
<polygon class="st0" points="109.09,697.75 111.17,697.57 109.87,695.28 "/>
<path class="st0" d="M108.54,698.57"/>
<path class="st0" d="M115.73,690.84"/>
<polygon class="st0" points="112.51,695.78 112.51,693.81 109.87,695.28 "/>
<path class="st0" d="M140.22,712.03"/>
<polygon class="st0" points="120.64,748.51 137.13,718.9 120.64,741.1 "/>
<polygon class="st0" points="120.64,741.1 122.06,731.09 118.97,736.39 "/>
<polygon class="st0" points="120.64,741.1 137.13,718.9 130.54,726.43 "/>
<polygon class="st0" points="120.64,741.1 130.54,726.43 122.06,731.09 "/>
<polygon class="st0" points="135.38,694.64 139.95,697.9 131.36,687.7 "/>
<polygon class="st0" points="139.95,697.9 152.65,695.97 131.36,687.7 "/>
<polygon class="st0" points="81.41,728.34 89.11,703.96 83.15,698.9 "/>
<polygon class="st0" points="86.35,760.97 93.48,759.43 90.59,747.09 "/>
<polygon class="st0" points="86.35,760.97 90.59,747.09 90.18,739.02 "/>
<polygon class="st0" points="86.35,760.97 90.18,739.02 81.41,728.34 "/>
<polygon class="st0" points="120.64,773.27 137.13,757.87 118.57,752.54 "/>
<polygon class="st0" points="118.57,752.54 137.13,757.87 137.13,718.9 120.64,748.51 "/>
<polygon class="st0" points="137.13,757.87 152.65,695.97 137.13,718.9 "/>
<polygon class="st0" points="140.89,703.02 152.65,695.97 139.95,697.9 "/>
<polygon class="st0" points="137.13,718.9 152.65,695.97 140.22,712.03 "/>
<polygon class="st0" points="140.22,712.03 152.65,695.97 140.89,703.02 "/>
<polygon class="st0" points="119.1,682.05 131.36,687.7 129.13,679.65 "/>
<polygon class="st0" points="94.54,687.45 104.28,681.75 92.78,676.44 "/>
<polygon class="st0" points="89.11,703.96 91.12,695.97 83.15,698.9 "/>
<polygon class="st0" points="91.12,695.97 94.54,687.45 92.78,676.44 "/>
<polygon class="st0" points="91.12,695.97 92.78,676.44 83.15,698.9 "/>
<polygon class="st0" points="81.41,728.34 90.18,739.02 89.92,728.34 "/>
<polygon class="st0" points="89.11,714.32 89.11,703.96 81.41,728.34 "/>
<polygon class="st0" points="81.41,728.34 89.92,728.34 89.11,714.32 "/>
<polygon class="st0" points="93.48,759.43 120.64,773.27 118.57,752.54 "/>
<polygon class="st0" points="86.35,760.97 120.64,773.27 93.48,759.43 "/>
<polygon class="st0" points="119.1,682.05 129.13,679.65 104.28,681.75 "/>
<polygon class="st0" points="104.28,681.75 129.13,679.65 92.78,676.44 "/>
<polygon class="st0" points="131.36,687.7 152.65,695.97 129.13,679.65 "/>
<rect x="0" y="-1.08" class="st0" width="612" height="792"/>
</svg>
