<?xml version="1.0" encoding="utf-8"?>
<!-- Generator: Adobe Illustrator 24.0.2, SVG Export Plug-In . SVG Version: 6.00 Build 0)  -->
<svg version="1.1" id="Layer_1" xmlns="http://www.w3.org/2000/svg" xmlns:xlink="http://www.w3.org/1999/xlink" x="0px" y="0px"
	 viewBox="0 0 612 792" style="enable-background:new 0 0 612 792;" xml:space="preserve">
<style type="text/css">
	.st0{fill:none;stroke:#000000;stroke-miterlimit:10;}
</style>
<polygon class="st0" points="375.91,366.99 376.18,344.38 367.58,332.54 "/>
<polygon class="st0" points="0.68,505.85 0.68,506.96 6.68,509.12 "/>
<polygon class="st0" points="6.68,509.12 0.68,509.31 0.68,541.81 8.83,547.35 "/>
<polygon class="st0" points="0.68,541.81 0.68,552.43 8.83,547.35 "/>
<polygon class="st0" points="8.83,547.35 0.68,552.43 0.68,596.66 27.12,627.56 "/>
<polygon class="st0" points="36.81,534.96 42.72,510.74 6.68,509.12 "/>
<polygon class="st0" points="36.81,534.96 47.03,529.05 42.72,510.74 "/>
<polygon class="st0" points="36.81,534.96 70.17,565.11 47.03,529.05 "/>
<polygon class="st0" points="73.85,531.95 73.85,532.54 75.01,533.35 "/>
<polygon class="st0" points="42.72,510.74 73.85,532.54 73.85,531.95 50.25,503.21 "/>
<polygon class="st0" points="42.72,510.74 50.25,503.21 40.97,484.63 "/>
<polygon class="st0" points="73.85,516.02 73.85,519.47 77.16,522.05 "/>
<polygon class="st0" points="67.47,514.51 73.85,519.47 73.85,516.02 54.17,480.23 "/>
<polygon class="st0" points="40.97,484.63 67.47,514.51 54.17,480.23 "/>
<polygon class="st0" points="40.97,484.63 54.17,480.23 48.01,455.58 "/>
<polygon class="st0" points="351.7,377.23 384.25,400.11 353.31,362.42 "/>
<polygon class="st0" points="353.31,362.42 380.22,381.27 371.61,366.46 "/>
<polygon class="st0" points="380.22,381.27 387.21,382.88 371.61,366.46 "/>
<polygon class="st0" points="356.93,254.48 400.66,238.33 387.21,193.38 "/>
<polygon class="st0" points="47.97,216.98 68.31,227.41 66.1,219.58 "/>
<polygon class="st0" points="20.86,270.19 68.31,227.41 33.16,242.02 "/>
<polygon class="st0" points="73.85,212.34 73.85,218.73 83.95,202.89 "/>
<polygon class="st0" points="68.31,227.41 73.85,218.73 73.85,212.34 66.1,219.58 "/>
<polygon class="st0" points="83.95,202.89 109.11,167.94 79.65,160.89 "/>
<polygon class="st0" points="0,216.98 0.68,218.41 0.68,216.91 "/>
<polygon class="st0" points="22.43,214.89 0.68,216.91 0.68,218.41 10.96,239.93 "/>
<polygon class="st0" points="10.96,239.93 33.16,242.02 22.43,214.89 "/>
<polygon class="st0" points="10.96,281.67 20.86,270.19 10.96,239.93 "/>
<polygon class="st0" points="10.96,239.93 0.68,237.59 0.68,268.92 10.96,281.67 "/>
<polygon class="st0" points="0.68,158.89 0.68,165.73 8.35,159.58 "/>
<polygon class="st0" points="109.11,167.94 139.9,144.65 133.74,144.65 93.48,155.41 "/>
<polygon class="st0" points="133.74,144.65 139.9,144.65 143.27,142.1 "/>
<path class="st0" d="M133.5,51.84"/>
<path class="st0" d="M114.98,37.75"/>
<path class="st0" d="M114.98,37.75"/>
<polygon class="st0" points="162.82,59.41 213.34,60.2 173.13,12.12 "/>
<polygon class="st0" points="213.34,60.2 242.84,0.65 234.85,0.65 173.13,12.12 "/>
<polygon class="st0" points="472.49,17.6 462.39,0.65 455.56,0.65 456.35,5.22 "/>
<polygon class="st0" points="455.56,0.65 453.6,0.65 456.35,5.22 "/>
<polygon class="st0" points="421.98,10.07 456.89,25.68 437.82,2.15 "/>
<polygon class="st0" points="421.98,10.07 423.97,0.65 414.45,0.65 407.9,14.47 "/>
<polygon class="st0" points="417.61,32.41 372.67,0.65 371.79,0.65 429.18,66.32 "/>
<polygon class="st0" points="429.18,66.32 430.25,54.75 417.61,32.41 "/>
<polygon class="st0" points="429.18,66.32 450.97,69.28 430.25,54.75 "/>
<polygon class="st0" points="420.22,99 434.56,82.74 429.18,66.32 "/>
<polygon class="st0" points="420.22,99 435.9,111.28 434.56,82.74 "/>
<polygon class="st0" points="420.22,99 446.66,138.73 435.9,111.28 "/>
<polygon class="st0" points="417.14,144.65 408.25,144.65 424.88,169.42 "/>
<polygon class="st0" points="400.66,133.35 408.25,144.65 417.14,144.65 412.77,130.66 "/>
<polygon class="st0" points="400.66,133.35 412.77,130.66 399.1,103.4 "/>
<polygon class="st0" points="428.55,144.65 425.3,144.65 432.14,155.42 "/>
<polygon class="st0" points="399.1,103.4 425.3,144.65 428.55,144.65 422.72,127.16 "/>
<polygon class="st0" points="399.1,103.4 422.72,127.16 420.22,99 "/>
<polygon class="st0" points="299.82,0.65 247.38,0.65 325.85,35.02 "/>
<polygon class="st0" points="296.84,88.89 382.39,93.71 325.85,35.02 "/>
<polygon class="st0" points="382.39,93.71 400.66,133.35 399.1,103.4 "/>
<polygon class="st0" points="266.47,144.65 236.04,144.65 321.08,231.45 "/>
<polygon class="st0" points="217.45,125.67 236.04,144.65 266.47,144.65 213.34,60.2 "/>
<polygon class="st0" points="354.3,144.65 306.32,144.65 321.08,231.45 "/>
<polygon class="st0" points="296.84,88.89 306.32,144.65 354.3,144.65 355.37,141.85 "/>
<polygon class="st0" points="355.37,141.85 382.39,93.71 296.84,88.89 "/>
<polygon class="st0" points="137.53,277.76 156.83,226.37 125.28,214.11 "/>
<polygon class="st0" points="137.53,277.76 73.85,231.44 73.85,278.99 76.66,305.15 "/>
<polygon class="st0" points="73.85,278.99 73.85,231.44 68.31,227.41 "/>
<polygon class="st0" points="116.42,315.59 137.53,277.76 76.66,305.15 "/>
<polygon class="st0" points="201.8,303.58 217.45,239.93 156.83,226.37 "/>
<polygon class="st0" points="116.42,315.59 181.07,373.5 137.53,277.76 "/>
<polygon class="st0" points="137.53,277.76 201.8,303.58 156.83,226.37 "/>
<polygon class="st0" points="181.07,373.5 201.8,303.58 137.53,277.76 "/>
<polygon class="st0" points="314.69,313.23 326.17,293.11 280.28,295.76 "/>
<polygon class="st0" points="181.07,373.5 279.63,366.84 201.8,303.58 "/>
<polygon class="st0" points="279.63,366.84 314.69,313.23 280.28,295.76 "/>
<polygon class="st0" points="326.17,293.11 356.93,254.48 321.08,231.45 "/>
<polygon class="st0" points="396.36,189.21 414.65,221.37 400.93,172.51 "/>
<polygon class="st0" points="396.36,189.21 400.93,172.51 387.75,177.63 "/>
<polygon class="st0" points="400.93,172.51 397.15,144.65 393.07,144.65 387.75,177.63 "/>
<polygon class="st0" points="393.07,144.65 397.15,144.65 395.29,130.93 "/>
<polygon class="st0" points="393.07,144.65 385.64,144.65 387.75,177.63 "/>
<polygon class="st0" points="382.39,93.71 385.64,144.65 393.07,144.65 395.29,130.93 "/>
<polygon class="st0" points="387.75,177.63 357.91,144.65 357.1,144.65 387.21,193.38 "/>
<polygon class="st0" points="357.1,144.65 357.91,144.65 355.37,141.85 "/>
<polygon class="st0" points="399.85,270.63 406.31,256.37 400.66,238.33 "/>
<polygon class="st0" points="399.85,270.63 414.12,288.4 406.31,256.37 "/>
<polygon class="st0" points="400.39,293.51 407.93,298.63 399.85,270.63 "/>
<polygon class="st0" points="400.39,313.43 400.39,293.51 395.01,310.47 "/>
<polygon class="st0" points="386.67,322.05 397.71,351.38 395.01,310.47 "/>
<polygon class="st0" points="376.18,326.08 388.29,342.24 384.25,328.24 "/>
<polygon class="st0" points="376.18,326.08 384.25,328.24 379.14,315.59 "/>
<polygon class="st0" points="379.14,315.59 399.85,270.63 358.15,327.96 "/>
<polygon class="st0" points="358.15,327.96 399.85,270.63 356.93,254.48 "/>
<polygon class="st0" points="310.52,388.11 335.04,355.5 279.63,366.84 "/>
<polygon class="st0" points="353.31,362.42 358.15,327.96 335.04,355.5 "/>
<polygon class="st0" points="367.58,332.54 376.18,326.08 358.15,327.96 "/>
<polygon class="st0" points="383.44,354.08 409,372.92 386.94,350.85 "/>
<polygon class="st0" points="383.44,354.08 386.94,350.85 376.18,326.08 "/>
<polygon class="st0" points="353.31,362.42 361.38,355.15 358.15,327.96 "/>
<polygon class="st0" points="353.31,362.42 371.61,366.46 361.38,355.15 "/>
<polygon class="st0" points="380.22,381.27 395.67,391.59 387.21,382.88 "/>
<polygon class="st0" points="310.52,388.11 349.28,383.41 337.12,372.72 "/>
<polygon class="st0" points="349.28,383.41 351.7,377.23 337.12,372.72 "/>
<polygon class="st0" points="349.28,383.41 372.42,403.07 351.7,377.23 "/>
<polygon class="st0" points="354.12,405.49 366.23,408.72 349.28,383.41 "/>
<polygon class="st0" points="330.72,405.76 356.01,424.87 345.78,406.3 "/>
<polygon class="st0" points="345.78,406.3 362.73,417.6 354.12,405.49 "/>
<polygon class="st0" points="345.78,406.3 349.28,383.41 310.52,388.11 "/>
<polygon class="st0" points="317.56,420.97 330.72,405.76 310.52,388.11 "/>
<polygon class="st0" points="302.18,436.63 310.52,388.11 279.63,366.84 "/>
<polygon class="st0" points="299.57,454.89 322.51,444.97 302.18,436.63 "/>
<polygon class="st0" points="346.85,465.52 347.94,446.14 341.75,448.96 "/>
<polygon class="st0" points="322.51,444.97 341.75,448.96 317.56,420.97 "/>
<polygon class="st0" points="341.75,448.96 347.94,446.14 330.72,405.76 "/>
<polygon class="st0" points="295.66,487.76 318.07,474.27 299.57,454.89 "/>
<polygon class="st0" points="330.44,469.42 335.29,463.77 322.51,444.97 "/>
<polygon class="st0" points="335.02,480.73 335.29,463.77 330.44,469.42 "/>
<polygon class="st0" points="335.29,463.77 342.55,487.46 341.75,448.96 "/>
<polygon class="st0" points="342.55,487.46 345.78,488.27 341.75,448.96 "/>
<polygon class="st0" points="340.4,508.45 345.78,488.27 342.55,487.46 "/>
<polygon class="st0" points="307.05,505.76 318.07,474.27 295.66,487.76 "/>
<polygon class="st0" points="326.41,499.57 335.02,480.73 330.44,469.42 "/>
<polygon class="st0" points="326.14,515.72 332.06,495.27 326.41,499.57 "/>
<polygon class="st0" points="330.99,515.99 332.06,495.27 326.14,515.72 "/>
<polygon class="st0" points="326.14,515.72 334.75,538.6 330.99,515.99 "/>
<polygon class="st0" points="304.08,531.06 309.73,537.53 305.96,519.76 "/>
<polygon class="st0" points="305.96,519.76 307.05,505.76 300.05,522.99 "/>
<polygon class="st0" points="301.4,555.56 320.76,567.67 309.47,556.1 "/>
<polygon class="st0" points="301.4,555.56 303.01,543.44 300.05,522.99 "/>
<polygon class="st0" points="301.4,555.56 309.47,556.1 303.01,543.44 "/>
<polygon class="st0" points="295.66,487.76 281.62,508.59 301.4,555.56 300.05,522.99 "/>
<polygon class="st0" points="281.62,508.59 295.66,487.76 275.97,456.9 "/>
<polygon class="st0" points="275.97,456.9 299.57,454.89 262.71,440.61 "/>
<polygon class="st0" points="262.71,440.61 302.18,436.63 252.15,431.8 "/>
<polygon class="st0" points="194.96,420.36 279.63,366.84 181.07,373.5 "/>
<path class="st0" d="M231.92,423l47.71-56.15l-84.67,53.51C194.96,420.36,208.05,421.36,231.92,423z"/>
<path class="st0" d="M209.92,423.88l22-0.88c-23.86-1.64-36.96-2.64-36.96-2.64L209.92,423.88z"/>
<polygon class="st0" points="216.96,431.8 231.92,427.4 206.4,427.4 "/>
<polygon class="st0" points="197.6,434.44 216.96,431.8 206.4,427.4 "/>
<polygon class="st0" points="197.6,434.44 206.4,427.4 194.96,420.36 "/>
<polygon class="st0" points="185.38,429.05 197.6,434.44 194.96,420.36 "/>
<polygon class="st0" points="172.08,441.49 197.37,450.29 185.38,429.05 "/>
<polygon class="st0" points="138.64,447.65 158,455.58 150.96,441.49 "/>
<polygon class="st0" points="172.08,441.49 185.38,429.05 150.96,441.49 "/>
<polygon class="st0" points="127.2,450.29 152.72,467.02 138.64,447.65 "/>
<polygon class="st0" points="91.13,448.53 99.93,445.89 80.57,447.65 "/>
<polygon class="st0" points="91.13,448.53 104.33,474.06 99.93,445.89 "/>
<polygon class="st0" points="80.57,447.65 95.53,472.3 91.13,448.53 "/>
<polygon class="st0" points="80.57,447.65 73.85,455.49 73.85,461.63 88.49,467.9 "/>
<polygon class="st0" points="73.85,461.63 73.85,455.49 70.01,459.98 "/>
<polygon class="st0" points="73.85,468.37 73.85,474.25 79.69,481.11 "/>
<polygon class="st0" points="59.45,457.34 73.85,474.25 73.85,468.37 70.01,459.98 "/>
<polygon class="st0" points="73.85,449.29 73.85,450.73 80.57,447.65 "/>
<polygon class="st0" points="59.45,457.34 73.85,450.73 73.85,449.29 48.01,455.58 "/>
<polygon class="st0" points="48.01,455.58 63.85,482.87 59.45,457.34 "/>
<path class="st0" d="M133.5,51.84"/>
<path class="st0" d="M114.98,37.75"/>
<polygon class="st0" points="234.85,0.65 164.62,0.65 173.13,12.12 "/>
<path class="st0" d="M87.06,53.6"/>
<path class="st0" d="M123.07,69.58"/>
<path class="st0" d="M87.06,53.6"/>
<path class="st0" d="M133.5,51.84"/>
<polygon class="st0" points="0.68,114.13 0.68,141.27 40.8,111.84 "/>
<polygon class="st0" points="79.65,160.89 109.11,167.94 93.48,155.41 "/>
<polygon class="st0" points="19.75,144.65 7.26,144.65 0.68,147.55 0.68,158.89 8.35,159.58 "/>
<polygon class="st0" points="7.26,144.65 19.75,144.65 26.07,136.36 "/>
<polygon class="st0" points="0,216.98 0.68,216.91 0.68,216.29 "/>
<polygon class="st0" points="8.35,208.63 0.68,216.29 0.68,216.91 22.43,214.89 "/>
<polygon class="st0" points="40.8,160.89 31.05,144.65 19.75,144.65 8.35,159.58 "/>
<polygon class="st0" points="19.75,144.65 31.05,144.65 26.07,136.36 "/>
<polygon class="st0" points="8.35,159.58 42.76,206.02 40.8,160.89 "/>
<polygon class="st0" points="0.68,206.23 0.68,216.29 8.35,208.63 "/>
<polygon class="st0" points="0.68,144.65 0.68,147.55 7.26,144.65 "/>
<polygon class="st0" points="40.8,111.84 0.68,141.27 0.68,144.65 7.26,144.65 26.07,136.36 "/>
<polygon class="st0" points="73.85,153.57 73.85,158.24 79.65,160.89 "/>
<polygon class="st0" points="44.17,144.65 73.85,158.24 73.85,153.57 66.79,144.65 "/>
<polygon class="st0" points="26.07,136.36 44.17,144.65 66.79,144.65 40.8,111.84 "/>
<polygon class="st0" points="73.85,158.24 73.85,160.89 79.65,160.89 "/>
<polygon class="st0" points="31.05,144.65 40.8,160.89 73.85,160.89 73.85,158.24 44.17,144.65 "/>
<polygon class="st0" points="31.05,144.65 44.17,144.65 26.07,136.36 "/>
<polygon class="st0" points="8.35,159.58 0.68,165.73 0.68,206.23 8.35,208.63 "/>
<polygon class="st0" points="33.16,242.02 68.31,227.41 47.97,216.98 "/>
<polygon class="st0" points="33.16,242.02 47.97,216.98 22.43,214.89 "/>
<polygon class="st0" points="42.76,206.02 66.1,219.58 63.1,207.06 "/>
<polygon class="st0" points="47.97,216.98 66.1,219.58 42.76,206.02 "/>
<polygon class="st0" points="22.43,214.89 47.97,216.98 42.76,206.02 "/>
<polygon class="st0" points="73.85,160.89 73.85,167.99 79.65,160.89 "/>
<polygon class="st0" points="42.76,206.02 73.85,167.99 73.85,160.89 40.8,160.89 "/>
<polygon class="st0" points="73.85,167.99 73.85,177.08 79.65,160.89 "/>
<polygon class="st0" points="63.1,207.06 73.85,177.08 73.85,167.99 42.76,206.02 "/>
<polygon class="st0" points="79.65,160.89 73.85,177.08 73.85,204.91 83.95,202.89 "/>
<polygon class="st0" points="73.85,204.91 73.85,177.08 63.1,207.06 "/>
<polygon class="st0" points="73.85,204.91 73.85,212.34 83.95,202.89 "/>
<polygon class="st0" points="66.1,219.58 73.85,212.34 73.85,204.91 63.1,207.06 "/>
<polygon class="st0" points="73.85,278.99 73.85,303.39 76.66,305.15 "/>
<polygon class="st0" points="20.86,270.19 73.85,303.39 73.85,278.99 68.31,227.41 "/>
<polygon class="st0" points="125.28,214.11 73.85,226.12 73.85,231.44 137.53,277.76 "/>
<polygon class="st0" points="73.85,231.44 73.85,226.12 68.31,227.41 "/>
<polygon class="st0" points="0.68,234.71 0.68,237.59 10.96,239.93 "/>
<polygon class="st0" points="0.68,218.41 0.68,234.71 10.96,239.93 "/>
<polygon class="st0" points="20.86,270.19 33.16,242.02 10.96,239.93 "/>
<polygon class="st0" points="280.28,295.76 326.17,293.11 321.08,231.45 "/>
<polygon class="st0" points="321.08,231.45 236.04,144.65 224.46,144.65 280.28,295.76 "/>
<polygon class="st0" points="224.46,144.65 236.04,144.65 217.45,125.67 "/>
<polygon class="st0" points="382.39,93.71 370.56,0.65 368.33,0.65 325.85,35.02 "/>
<polygon class="st0" points="368.33,0.65 330.06,0.65 325.85,35.02 "/>
<polygon class="st0" points="127.2,450.29 138.64,447.65 99.93,445.89 "/>
<polygon class="st0" points="138.64,447.65 150.96,441.49 99.93,445.89 "/>
<polygon class="st0" points="73.85,450.73 73.85,455.49 80.57,447.65 "/>
<polygon class="st0" points="70.01,459.98 73.85,455.49 73.85,450.73 59.45,457.34 "/>
<polygon class="st0" points="456.35,5.22 453.6,0.65 437.58,0.65 437.82,2.15 "/>
<polygon class="st0" points="437.82,2.15 437.58,0.65 423.97,0.65 421.98,10.07 "/>
<polygon class="st0" points="412.03,0.65 374.33,0.65 407.9,14.47 "/>
<polygon class="st0" points="414.45,0.65 412.03,0.65 407.9,14.47 "/>
<polygon class="st0" points="420.22,99 429.18,66.32 399.1,103.4 "/>
<polygon class="st0" points="407.9,14.47 374.33,0.65 372.67,0.65 417.61,32.41 "/>
<polygon class="st0" points="429.18,66.32 371.79,0.65 370.81,0.65 399.1,103.4 "/>
<polygon class="st0" points="399.1,103.4 370.81,0.65 370.56,0.65 382.39,93.71 "/>
<polygon class="st0" points="0.68,498.79 0.68,505.85 6.68,509.12 "/>
<path class="st0" d="M48.01,455.58c-0.7,0.17-33.13,5.62-47.33,8v3.89l40.29,17.17L48.01,455.58z"/>
<polygon class="st0" points="194.96,420.36 73.85,374.78 73.85,377.94 104.55,413.15 "/>
<polygon class="st0" points="73.85,377.94 73.85,374.78 69.74,373.24 "/>
<polygon class="st0" points="73.85,377.94 73.85,425.95 104.55,413.15 "/>
<polygon class="st0" points="53.25,434.54 73.85,425.95 73.85,377.94 69.74,373.24 "/>
<polygon class="st0" points="116.42,315.59 73.85,368.16 73.85,373.25 181.07,373.5 "/>
<polygon class="st0" points="73.85,373.25 73.85,368.16 69.74,373.24 "/>
<polygon class="st0" points="104.55,413.15 73.85,425.95 73.85,439.55 99.93,445.89 "/>
<polygon class="st0" points="73.85,439.55 73.85,425.95 53.25,434.54 "/>
<polygon class="st0" points="73.85,444.43 73.85,449.29 80.57,447.65 "/>
<path class="st0" d="M48.01,455.58l25.84-6.29v-4.86l-20.6-9.89C53.25,434.54,48.91,455.36,48.01,455.58z"/>
<polygon class="st0" points="150.96,441.49 185.38,429.05 104.55,413.15 "/>
<polygon class="st0" points="185.38,429.05 194.96,420.36 104.55,413.15 "/>
<polygon class="st0" points="299.57,454.89 302.18,436.63 262.71,440.61 "/>
<polygon class="st0" points="295.66,487.76 299.57,454.89 275.97,456.9 "/>
<polygon class="st0" points="318.07,474.27 322.51,444.97 299.57,454.89 "/>
<polygon class="st0" points="332.06,495.27 335.02,480.73 326.41,499.57 "/>
<polygon class="st0" points="335.29,463.77 341.75,448.96 322.51,444.97 "/>
<polygon class="st0" points="317.56,420.97 341.75,448.96 330.72,405.76 "/>
<polygon class="st0" points="300.05,522.99 307.05,505.76 295.66,487.76 "/>
<polygon class="st0" points="304.08,531.06 305.96,519.76 300.05,522.99 "/>
<polygon class="st0" points="318.07,474.27 330.44,469.42 322.51,444.97 "/>
<polygon class="st0" points="302.18,436.63 322.51,444.97 317.56,420.97 "/>
<polygon class="st0" points="302.18,436.63 317.56,420.97 310.52,388.11 "/>
<polygon class="st0" points="330.72,405.76 345.78,406.3 310.52,388.11 "/>
<polygon class="st0" points="345.78,406.3 354.12,405.49 349.28,383.41 "/>
<polygon class="st0" points="351.7,377.23 353.31,362.42 337.12,372.72 "/>
<polygon class="st0" points="337.12,372.72 353.31,362.42 335.04,355.5 "/>
<polygon class="st0" points="310.52,388.11 337.12,372.72 335.04,355.5 "/>
<polygon class="st0" points="376.18,344.38 376.18,326.08 367.58,332.54 "/>
<polygon class="st0" points="376.18,344.38 383.44,354.08 376.18,326.08 "/>
<polygon class="st0" points="376.18,326.08 379.14,315.59 358.15,327.96 "/>
<polygon class="st0" points="386.67,322.05 395.01,310.47 379.14,315.59 "/>
<polygon class="st0" points="395.01,310.47 400.39,293.51 379.14,315.59 "/>
<polygon class="st0" points="379.14,315.59 400.39,293.51 399.85,270.63 "/>
<polygon class="st0" points="399.85,270.63 400.66,238.33 356.93,254.48 "/>
<polygon class="st0" points="335.04,355.5 358.15,327.96 326.17,293.11 "/>
<polygon class="st0" points="314.69,313.23 335.04,355.5 326.17,293.11 "/>
<polygon class="st0" points="326.17,293.11 358.15,327.96 356.93,254.48 "/>
<polygon class="st0" points="385.64,144.65 357.91,144.65 387.75,177.63 "/>
<polygon class="st0" points="355.37,141.85 357.91,144.65 385.64,144.65 382.39,93.71 "/>
<polygon class="st0" points="296.84,88.89 244.61,0.65 242.84,0.65 213.34,60.2 "/>
<polygon class="st0" points="325.85,35.02 247.38,0.65 244.61,0.65 296.84,88.89 "/>
<polygon class="st0" points="173.13,12.12 148.17,0.65 127.14,0.65 132.58,12.71 "/>
<polygon class="st0" points="132.58,12.71 127.14,0.65 107.12,0.65 97.12,9.06 "/>
<polygon class="st0" points="164.62,0.65 148.17,0.65 173.13,12.12 "/>
<polygon class="st0" points="86.43,0.65 73.85,0.65 73.85,29.83 97.12,9.06 "/>
<polygon class="st0" points="63.76,0.65 70.53,32.8 73.85,29.83 73.85,0.65 "/>
<polygon class="st0" points="107.12,0.65 86.43,0.65 97.12,9.06 "/>
<polygon class="st0" points="43.04,0.65 43.76,0.65 43.22,0 "/>
<polygon class="st0" points="70.53,32.8 43.76,0.65 43.04,0.65 35.4,27.78 "/>
<polygon class="st0" points="52.96,71.93 70.53,32.8 29.14,46.17 "/>
<polygon class="st0" points="29.14,46.17 70.53,32.8 35.4,27.78 "/>
<polygon class="st0" points="40.93,111.4 52.96,71.93 0.68,79.25 0.68,86.99 40.8,111.84 "/>
<polygon class="st0" points="29.14,46.17 0.68,71.57 0.68,79.25 52.96,71.93 "/>
<polygon class="st0" points="0.68,86.99 0.68,114.13 40.8,111.84 "/>
<polygon class="st0" points="0.68,38.41 0.68,63.66 21.71,28.56 "/>
<polygon class="st0" points="21.71,28.56 0.68,63.66 0.68,71.57 29.14,46.17 "/>
<polygon class="st0" points="29.14,46.17 35.4,27.78 21.71,28.56 "/>
<polygon class="st0" points="35.4,27.78 24.83,0.65 23.47,0.65 21.71,28.56 "/>
<polygon class="st0" points="32.09,0.65 24.83,0.65 35.4,27.78 "/>
<polygon class="st0" points="43.04,0.65 32.09,0.65 35.4,27.78 "/>
<polygon class="st0" points="23.47,0.65 10.12,0.65 21.71,28.56 "/>
<polygon class="st0" points="63.76,0.65 43.76,0.65 70.53,32.8 "/>
<polygon class="st0" points="10.12,0.65 0.68,0.65 0.68,21.07 21.71,28.56 "/>
<polygon class="st0" points="0.68,21.07 0.68,38.41 21.71,28.56 "/>
<polygon class="st0" points="330.06,0.65 299.82,0.65 325.85,35.02 "/>
<polygon class="st0" points="279.63,366.84 335.04,355.5 314.69,313.23 "/>
<polygon class="st0" points="356.93,254.48 387.21,193.38 321.08,231.45 "/>
<polygon class="st0" points="387.21,193.38 357.1,144.65 354.3,144.65 321.08,231.45 "/>
<polygon class="st0" points="354.3,144.65 357.1,144.65 355.37,141.85 "/>
<polygon class="st0" points="280.28,295.76 224.46,144.65 217.45,144.65 217.45,239.93 "/>
<polygon class="st0" points="217.45,144.65 224.46,144.65 217.45,125.67 "/>
<polygon class="st0" points="83.95,202.89 73.85,218.73 73.85,226.12 125.28,214.11 "/>
<polygon class="st0" points="73.85,226.12 73.85,218.73 68.31,227.41 "/>
<polygon class="st0" points="83.95,202.89 125.28,214.11 109.11,167.94 "/>
<polygon class="st0" points="125.05,214.63 156.6,226.89 150.35,189.59 "/>
<polygon class="st0" points="156.83,226.37 178.99,170.02 150.57,189.07 "/>
<polygon class="st0" points="156.83,226.37 217.45,239.93 178.99,170.02 "/>
<polygon class="st0" points="125.28,214.11 150.57,189.07 109.11,167.94 "/>
<polygon class="st0" points="150.57,189.07 143.67,144.65 139.9,144.65 109.11,167.94 "/>
<polygon class="st0" points="139.9,144.65 143.67,144.65 143.27,142.1 "/>
<polygon class="st0" points="178.99,170.02 146.53,144.65 143.67,144.65 150.57,189.07 "/>
<polygon class="st0" points="143.67,144.65 146.53,144.65 143.27,142.1 "/>
<polygon class="st0" points="217.45,239.93 217.45,144.65 200.99,144.65 178.99,170.02 "/>
<polygon class="st0" points="200.99,144.65 217.45,144.65 217.45,125.67 "/>
<polygon class="st0" points="175.28,144.65 146.53,144.65 178.99,170.02 "/>
<polygon class="st0" points="143.27,142.1 146.53,144.65 175.28,144.65 162.82,59.41 "/>
<polygon class="st0" points="200.99,144.65 175.28,144.65 178.99,170.02 "/>
<polygon class="st0" points="162.82,59.41 175.28,144.65 200.99,144.65 217.45,125.67 "/>
<polygon class="st0" points="162.82,59.41 217.45,125.67 213.34,60.2 "/>
<polygon class="st0" points="306.32,144.65 266.47,144.65 321.08,231.45 "/>
<polygon class="st0" points="213.34,60.2 266.47,144.65 306.32,144.65 296.84,88.89 "/>
<path class="st0" d="M150.96,441.49"/>
<path class="st0" d="M53.25,434.54L0.68,461.34v2.24c14.2-2.38,46.63-7.83,47.33-8C48.91,455.36,53.25,434.54,53.25,434.54z"/>
<polygon class="st0" points="99.93,445.89 73.85,439.55 73.85,444.43 80.57,447.65 "/>
<polygon class="st0" points="73.85,444.43 73.85,439.55 53.25,434.54 "/>
<polygon class="st0" points="99.93,445.89 150.96,441.49 104.55,413.15 "/>
<polygon class="st0" points="0.68,390.7 0.68,461.34 53.25,434.54 "/>
<polygon class="st0" points="69.74,373.24 0.68,376.63 0.68,390.7 53.25,434.54 "/>
<polygon class="st0" points="0.68,268.92 0.68,285.36 10.96,281.67 "/>
<polygon class="st0" points="0.68,285.36 0.68,296.46 10.96,281.67 "/>
<polygon class="st0" points="0.68,326.44 0.68,366.19 54.76,328.11 "/>
<polygon class="st0" points="50.06,301.5 0.68,320.69 0.68,326.44 54.76,328.11 "/>
<polygon class="st0" points="54.76,328.11 0.68,366.19 0.68,376.63 69.74,373.24 "/>
<polygon class="st0" points="10.96,281.67 0.68,296.46 0.68,300.51 50.06,301.5 "/>
<polygon class="st0" points="10.96,281.67 50.06,301.5 20.86,270.19 "/>
<polygon class="st0" points="73.85,303.39 73.85,304.77 76.66,305.15 "/>
<polygon class="st0" points="50.06,301.5 73.85,304.77 73.85,303.39 20.86,270.19 "/>
<polygon class="st0" points="73.85,304.77 73.85,308.1 76.66,305.15 "/>
<polygon class="st0" points="54.76,328.11 73.85,308.1 73.85,304.77 50.06,301.5 "/>
<polygon class="st0" points="0.68,300.51 0.68,320.69 50.06,301.5 "/>
<polygon class="st0" points="76.66,305.15 73.85,308.1 73.85,324.23 116.42,315.59 "/>
<polygon class="st0" points="73.85,324.23 73.85,308.1 54.76,328.11 "/>
<polygon class="st0" points="73.85,324.23 73.85,368.16 116.42,315.59 "/>
<polygon class="st0" points="69.74,373.24 73.85,368.16 73.85,324.23 54.76,328.11 "/>
<polygon class="st0" points="181.07,373.5 73.85,373.25 73.85,374.78 194.96,420.36 "/>
<polygon class="st0" points="73.85,374.78 73.85,373.25 69.74,373.24 "/>
<polygon class="st0" points="279.63,366.84 280.28,295.76 217.45,239.93 "/>
<polygon class="st0" points="201.8,303.58 279.63,366.84 217.45,239.93 "/>
<polygon class="st0" points="0.68,506.96 0.68,509.31 6.68,509.12 "/>
<polygon class="st0" points="0.68,487.87 0.68,498.79 6.68,509.12 "/>
<polygon class="st0" points="40.97,484.63 0.68,467.46 0.68,487.87 6.68,509.12 "/>
<polygon class="st0" points="6.68,509.12 42.72,510.74 40.97,484.63 "/>
<polygon class="st0" points="361.38,355.15 367.58,332.54 358.15,327.96 "/>
<path class="st0" d="M252.15,431.8"/>
<polygon class="st0" points="22.43,214.89 42.76,206.02 8.35,159.58 "/>
<polygon class="st0" points="8.35,208.63 22.43,214.89 8.35,159.58 "/>
<polygon class="st0" points="252.15,431.8 302.18,436.63 279.63,366.84 "/>
<polygon class="st0" points="252.15,431.8 279.63,366.84 231.92,423 "/>
<path class="st0" d="M73.85,79.2v8.38c4.84-3.26,8.24-5.52,8.24-5.52L73.85,79.2z"/>
<path class="st0" d="M40.93,111.4c1.98-2.76,21.48-16.12,32.92-23.82V79.2l-20.89-7.27L40.93,111.4z"/>
<polygon class="st0" points="73.85,37.75 73.85,58.87 83.83,52.63 "/>
<polygon class="st0" points="52.96,71.93 73.85,58.87 73.85,37.75 70.53,32.8 "/>
<polygon class="st0" points="97.12,9.06 73.85,29.83 73.85,32.42 93.46,30.17 "/>
<polygon class="st0" points="73.85,32.42 73.85,29.83 70.53,32.8 "/>
<polygon class="st0" points="129.81,33.38 132.58,12.71 97.12,9.06 "/>
<polygon class="st0" points="143.27,142.1 162.82,59.41 137.81,111.6 "/>
<polygon class="st0" points="93.48,155.41 133.74,144.65 99.62,144.65 79.65,160.89 "/>
<path class="st0" d="M121.32,126.99l-21.7,17.65h34.12l9.53-2.55C142.4,141.56,121.32,126.99,121.32,126.99z"/>
<polygon class="st0" points="82.25,144.65 73.85,144.65 73.85,153.57 79.65,160.89 "/>
<path class="st0" d="M73.85,114.25v30.4h8.4l4.79-29.95C87.03,114.7,81.29,114.53,73.85,114.25z"/>
<polygon class="st0" points="66.79,144.65 73.85,153.57 73.85,144.65 "/>
<path class="st0" d="M66.79,144.65h7.06v-30.4c-13.38-0.5-32.24-1.39-33.05-2.41L66.79,144.65z"/>
<polygon class="st0" points="99.62,144.65 82.25,144.65 79.65,160.89 "/>
<polygon class="st0" points="87.03,114.7 82.25,144.65 99.62,144.65 121.32,126.99 "/>
<path class="st0" d="M82.09,82.07c0,0-3.4,2.25-8.24,5.52v26.67c7.44,0.28,13.18,0.44,13.18,0.44L82.09,82.07z"/>
<path class="st0" d="M40.93,111.4l-0.13,0.44c0.8,1.02,19.67,1.91,33.05,2.41V87.58C62.42,95.29,42.91,108.64,40.93,111.4z"/>
<path class="st0" d="M40.8,111.84l0.13-0.44C40.79,111.61,40.74,111.76,40.8,111.84z"/>
<polygon class="st0" points="83.83,52.63 73.85,58.87 73.85,79.2 82.09,82.07 "/>
<polygon class="st0" points="73.85,79.2 73.85,58.87 52.96,71.93 "/>
<polygon class="st0" points="93.46,30.17 73.85,32.42 73.85,37.75 83.83,52.63 "/>
<polygon class="st0" points="73.85,37.75 73.85,32.42 70.53,32.8 "/>
<polygon class="st0" points="93.46,30.17 129.81,33.38 97.12,9.06 "/>
<polygon class="st0" points="129.81,33.38 153.33,49.7 132.58,12.71 "/>
<polygon class="st0" points="137.81,111.6 162.82,59.41 153.33,49.7 "/>
<path class="st0" d="M121.32,126.99c0,0,21.08,14.56,21.95,15.11l-5.46-30.51L121.32,126.99z"/>
<polygon class="st0" points="162.82,59.41 173.13,12.12 153.33,49.7 "/>
<polygon class="st0" points="153.33,49.7 173.13,12.12 132.58,12.71 "/>
<polygon class="st0" points="97.6,98.39 98.26,93.2 90.86,92.74 "/>
<polygon class="st0" points="91.27,100.81 94.77,100.28 90.86,92.74 "/>
<polygon class="st0" points="90.6,82.06 98.26,79.15 89.79,68.04 "/>
<polygon class="st0" points="98.26,79.15 101.49,74.97 89.79,68.04 "/>
<polygon class="st0" points="89.79,68.04 98.94,55.19 89.79,57.68 "/>
<polygon class="st0" points="114.41,72.96 121.27,70.94 111.72,63.26 "/>
<polygon class="st0" points="121.27,70.94 126.51,67.35 131.22,63.67 117.24,61.92 "/>
<polygon class="st0" points="131.22,63.67 134.72,58.83 121,59.77 "/>
<polygon class="st0" points="125.03,48.37 136.07,48.37 132.05,41.43 "/>
<polygon class="st0" points="120.86,40.93 132.05,41.43 119.79,35.78 "/>
<polygon class="st0" points="105.66,40.12 113.2,38.6 104.96,35.48 "/>
<polygon class="st0" points="100.28,42.68 104.96,35.48 95.22,41.17 "/>
<polygon class="st0" points="91.81,49.7 98.26,46.17 95.22,41.17 "/>
<polygon class="st0" points="98.26,46.17 100.28,42.68 95.22,41.17 "/>
<polygon class="st0" points="89.79,57.68 98.26,50.22 91.81,49.7 "/>
<polygon class="st0" points="89.79,57.68 98.94,55.19 98.26,50.22 "/>
<polygon class="st0" points="101.77,59.77 110.06,54.56 105.92,53.44 "/>
<polygon class="st0" points="106.87,62.86 111.72,63.26 110.06,54.56 "/>
<polygon class="st0" points="117.24,61.92 121,59.77 116.21,53.14 "/>
<polygon class="st0" points="116.21,53.14 123.28,56.81 118.02,49.91 "/>
<path class="st0" d="M118.02,49.91l7.42,2.72c0,0-0.4-3.95-0.4-4.26L118.02,49.91z"/>
<path class="st0" d="M117.22,46.43l7.81,1.94c0-0.31-1.48-4.48-1.48-4.48L117.22,46.43z"/>
<polygon class="st0" points="116.41,44.56 123.55,43.89 120.86,40.93 "/>
<polygon class="st0" points="116.41,44.56 120.86,40.93 113.2,38.6 "/>
<polygon class="st0" points="110.86,41.83 113.2,38.6 105.66,40.12 "/>
<polygon class="st0" points="104.2,43.55 105.66,40.12 100.28,42.68 "/>
<polygon class="st0" points="98.26,46.17 102.89,46.43 100.28,42.68 "/>
<polygon class="st0" points="98.94,55.19 103.9,50.49 98.26,50.22 "/>
<polygon class="st0" points="98.94,55.19 105.92,53.44 103.9,50.49 "/>
<polygon class="st0" points="110.06,54.56 113.48,54.56 111.85,51.29 "/>
<polygon class="st0" points="116.21,53.14 118.02,49.91 111.85,51.29 "/>
<polygon class="st0" points="113.2,49.5 118.02,49.91 117.22,46.43 "/>
<polygon class="st0" points="113.2,47.54 117.22,46.43 116.41,44.56 "/>
<polygon class="st0" points="113.2,47.54 116.41,44.56 114.69,43.15 "/>
<polygon class="st0" points="111.69,46.43 114.69,43.15 110.86,41.83 "/>
<polygon class="st0" points="109.22,46.43 110.86,41.83 107.43,42.13 "/>
<polygon class="st0" points="102.89,46.43 108.11,47.89 104.2,43.55 "/>
<polygon class="st0" points="103.9,50.49 108.11,47.89 102.89,46.43 "/>
<polygon class="st0" points="105.92,53.44 108.21,50.26 103.9,50.49 "/>
<polygon class="st0" points="105.92,53.44 109.77,51.48 108.21,50.26 "/>
<polygon class="st0" points="109.77,51.48 110.56,49 108.21,50.26 "/>
<polygon class="st0" points="111.85,51.29 113.2,49.5 110.56,49 "/>
<polygon class="st0" points="110.56,49 113.2,47.54 111.69,46.43 "/>
<polygon class="st0" points="108.11,47.89 110.56,49 109.22,46.43 "/>
<polygon class="st0" points="111.72,63.26 117.24,61.92 113.48,54.56 "/>
<polygon class="st0" points="113.48,54.56 117.24,61.92 116.21,53.14 "/>
<polygon class="st0" points="113.48,54.56 116.21,53.14 111.85,51.29 "/>
<polygon class="st0" points="111.85,51.29 118.02,49.91 113.2,49.5 "/>
<polygon class="st0" points="113.2,49.5 117.22,46.43 113.2,47.54 "/>
<polygon class="st0" points="113.2,47.54 114.69,43.15 111.69,46.43 "/>
<polygon class="st0" points="109.22,46.43 111.69,46.43 110.86,41.83 "/>
<polygon class="st0" points="123.55,43.89 132.05,41.43 120.86,40.93 "/>
<polygon class="st0" points="118.02,49.91 125.03,48.37 117.22,46.43 "/>
<polygon class="st0" points="117.22,46.43 123.55,43.89 116.41,44.56 "/>
<polygon class="st0" points="110.86,41.83 114.69,43.15 113.2,38.6 "/>
<polygon class="st0" points="104.2,43.55 109.22,46.43 107.43,42.13 "/>
<polygon class="st0" points="108.11,47.89 109.22,46.43 104.2,43.55 "/>
<polygon class="st0" points="114.69,43.15 116.41,44.56 113.2,38.6 "/>
<polygon class="st0" points="101.49,74.97 105.93,73.25 101.77,59.77 "/>
<polygon class="st0" points="100.28,42.68 105.66,40.12 104.96,35.48 "/>
<polygon class="st0" points="101.77,59.77 105.92,53.44 98.94,55.19 "/>
<polygon class="st0" points="106.87,62.86 110.06,54.56 101.77,59.77 "/>
<polygon class="st0" points="107.43,42.13 110.86,41.83 105.66,40.12 "/>
<polygon class="st0" points="104.2,43.55 107.43,42.13 105.66,40.12 "/>
<polygon class="st0" points="102.89,46.43 104.2,43.55 100.28,42.68 "/>
<polygon class="st0" points="105.92,53.44 110.06,54.56 109.77,51.48 "/>
<polygon class="st0" points="103.9,50.49 108.21,50.26 108.11,47.89 "/>
<polygon class="st0" points="98.26,50.22 102.89,46.43 98.26,46.17 "/>
<polygon class="st0" points="98.26,50.22 103.9,50.49 102.89,46.43 "/>
<polygon class="st0" points="111.72,63.26 113.48,54.56 110.06,54.56 "/>
<polygon class="st0" points="110.06,54.56 111.85,51.29 109.77,51.48 "/>
<polygon class="st0" points="101.49,74.97 101.77,59.77 89.79,68.04 "/>
<polygon class="st0" points="89.79,68.04 101.77,59.77 98.94,55.19 "/>
<polygon class="st0" points="105.93,73.25 106.87,62.86 101.77,59.77 "/>
<polygon class="st0" points="98.26,50.22 98.26,46.17 91.81,49.7 "/>
<polygon class="st0" points="113.2,38.6 120.86,40.93 119.79,35.78 "/>
<polygon class="st0" points="113.2,38.6 119.79,35.78 104.96,35.48 "/>
<polygon class="st0" points="109.16,105.19 119.25,106.26 114.01,102.64 "/>
<polygon class="st0" points="121.32,102.23 121.32,94.83 114.01,102.64 "/>
<polygon class="st0" points="119.25,106.26 121.32,102.23 114.01,102.64 "/>
<polygon class="st0" points="111.85,100.35 121.32,94.83 119.66,90.12 "/>
<polygon class="st0" points="104.32,96.71 111.85,100.35 103.91,93.2 "/>
<polygon class="st0" points="105.26,103.04 111.85,100.35 104.32,96.71 "/>
<polygon class="st0" points="98.26,93.2 104.32,96.71 103.91,93.2 "/>
<polygon class="st0" points="119.66,90.12 122.74,84.82 103.91,93.2 "/>
<polygon class="st0" points="122.74,84.82 131.22,80.16 114.41,72.96 "/>
<polygon class="st0" points="131.22,80.16 137.81,72.62 121.27,70.94 "/>
<polygon class="st0" points="140.91,65.76 141.58,56.74 134.72,58.83 "/>
<polygon class="st0" points="136.6,53.58 141.58,56.74 140.63,51.62 "/>
<polygon class="st0" points="136.6,53.58 140.63,51.62 136.07,48.37 "/>
<polygon class="st0" points="125.44,52.63 136.6,53.58 136.07,48.37 "/>
<path class="st0" d="M125.44,52.63l10.63-4.26h-11.03C125.03,48.68,125.44,52.63,125.44,52.63z"/>
<path class="st0" d="M125.03,48.37l7.01-6.94l-8.49,2.46C123.55,43.89,125.03,48.06,125.03,48.37z"/>
<polygon class="st0" points="109.16,105.19 114.01,102.64 111.18,103.04 "/>
<polygon class="st0" points="90.86,92.74 97.6,84.39 90.6,82.06 "/>
<polygon class="st0" points="98.26,93.2 99.23,89.78 97.6,84.39 "/>
<polygon class="st0" points="97.6,84.39 99.23,89.78 98.26,79.15 "/>
<polygon class="st0" points="99.23,89.78 101.49,74.97 98.26,79.15 "/>
<polygon class="st0" points="97.6,84.39 98.26,79.15 90.6,82.06 "/>
<polygon class="st0" points="94.16,113.16 102.71,100.48 94.77,100.28 "/>
<polygon class="st0" points="94.16,113.16 94.77,100.28 91.27,100.81 "/>
<polygon class="st0" points="94.16,113.16 105.26,103.04 102.71,100.48 "/>
<polygon class="st0" points="109.16,105.19 111.18,103.04 105.26,103.04 "/>
<polygon class="st0" points="94.16,113.16 109.16,105.19 105.26,103.04 "/>
<polygon class="st0" points="94.16,113.16 119.25,106.26 109.16,105.19 "/>
<polygon class="st0" points="111.18,103.04 111.85,100.35 105.26,103.04 "/>
<polygon class="st0" points="111.18,103.04 114.01,102.64 111.85,100.35 "/>
<polygon class="st0" points="114.01,102.64 121.32,94.83 111.85,100.35 "/>
<polygon class="st0" points="102.71,100.48 105.26,103.04 104.32,96.71 "/>
<polygon class="st0" points="102.71,100.48 104.32,96.71 97.6,98.39 "/>
<polygon class="st0" points="97.6,98.39 104.32,96.71 98.26,93.2 "/>
<polygon class="st0" points="94.77,100.28 102.71,100.48 97.6,98.39 "/>
<polygon class="st0" points="94.77,100.28 97.6,98.39 90.86,92.74 "/>
<polygon class="st0" points="111.85,100.35 119.66,90.12 103.91,93.2 "/>
<polygon class="st0" points="98.26,93.2 103.91,93.2 99.23,89.78 "/>
<polygon class="st0" points="103.91,93.2 105.93,73.25 99.23,89.78 "/>
<polygon class="st0" points="103.91,93.2 122.74,84.82 114.41,72.96 "/>
<polygon class="st0" points="114.41,72.96 131.22,80.16 121.27,70.94 "/>
<polygon class="st0" points="126.51,67.35 121.27,70.94 137.81,72.62 131.22,63.67 "/>
<polygon class="st0" points="137.81,72.62 140.91,65.76 131.22,63.67 "/>
<polygon class="st0" points="131.22,63.67 140.91,65.76 134.72,58.83 "/>
<polygon class="st0" points="105.93,73.25 114.41,72.96 106.87,62.86 "/>
<polygon class="st0" points="106.87,62.86 114.41,72.96 111.72,63.26 "/>
<polygon class="st0" points="111.72,63.26 121.27,70.94 117.24,61.92 "/>
<polygon class="st0" points="117.24,61.92 131.22,63.67 121,59.77 "/>
<polygon class="st0" points="121,59.77 134.72,58.83 123.28,56.81 "/>
<polygon class="st0" points="134.72,58.83 136.6,53.58 123.28,56.81 "/>
<polygon class="st0" points="123.28,56.81 136.6,53.58 125.44,52.63 "/>
<polygon class="st0" points="121,59.77 123.28,56.81 116.21,53.14 "/>
<polygon class="st0" points="123.28,56.81 125.44,52.63 118.02,49.91 "/>
<polygon class="st0" points="134.72,58.83 141.58,56.74 136.6,53.58 "/>
<polygon class="st0" points="99.23,89.78 105.93,73.25 101.49,74.97 "/>
<polygon class="st0" points="103.91,93.2 114.41,72.96 105.93,73.25 "/>
<polygon class="st0" points="90.86,92.74 98.26,93.2 97.6,84.39 "/>
<polygon class="st0" points="110.56,49 111.69,46.43 109.22,46.43 "/>
<polygon class="st0" points="108.21,50.26 110.56,49 108.11,47.89 "/>
<polygon class="st0" points="109.77,51.48 111.85,51.29 110.56,49 "/>
<path class="st0" d="M109.22,52.3"/>
<path class="st0" d="M116.41,44.56"/>
<polygon class="st0" points="113.2,49.5 113.2,47.54 110.56,49 "/>
<path class="st0" d="M140.91,65.76"/>
<polygon class="st0" points="121.32,102.23 137.81,72.62 121.32,94.83 "/>
<polygon class="st0" points="121.32,94.83 122.74,84.82 119.66,90.12 "/>
<polygon class="st0" points="121.32,94.83 137.81,72.62 131.22,80.16 "/>
<polygon class="st0" points="121.32,94.83 131.22,80.16 122.74,84.82 "/>
<polygon class="st0" points="136.07,48.37 140.63,51.62 132.05,41.43 "/>
<polygon class="st0" points="140.63,51.62 153.33,49.7 132.05,41.43 "/>
<polygon class="st0" points="82.09,82.06 89.79,57.68 83.83,52.63 "/>
<polygon class="st0" points="87.04,114.69 94.16,113.16 91.27,100.81 "/>
<polygon class="st0" points="87.04,114.69 91.27,100.81 90.86,92.74 "/>
<polygon class="st0" points="87.04,114.69 90.86,92.74 82.09,82.06 "/>
<polygon class="st0" points="121.32,126.99 137.81,111.59 119.25,106.26 "/>
<polygon class="st0" points="119.25,106.26 137.81,111.59 137.81,72.62 121.32,102.23 "/>
<polygon class="st0" points="137.81,111.59 153.33,49.7 137.81,72.62 "/>
<polygon class="st0" points="141.58,56.74 153.33,49.7 140.63,51.62 "/>
<polygon class="st0" points="137.81,72.62 153.33,49.7 140.91,65.76 "/>
<polygon class="st0" points="140.91,65.76 153.33,49.7 141.58,56.74 "/>
<polygon class="st0" points="119.79,35.78 132.05,41.43 129.81,33.37 "/>
<polygon class="st0" points="95.22,41.17 104.96,35.48 93.46,30.17 "/>
<polygon class="st0" points="89.79,57.68 91.81,49.7 83.83,52.63 "/>
<polygon class="st0" points="91.81,49.7 95.22,41.17 93.46,30.17 "/>
<polygon class="st0" points="91.81,49.7 93.46,30.17 83.83,52.63 "/>
<polygon class="st0" points="82.09,82.06 90.86,92.74 90.6,82.06 "/>
<polygon class="st0" points="89.79,68.04 89.79,57.68 82.09,82.06 "/>
<polygon class="st0" points="82.09,82.06 90.6,82.06 89.79,68.04 "/>
<polygon class="st0" points="94.16,113.16 121.32,126.99 119.25,106.26 "/>
<polygon class="st0" points="87.04,114.69 121.32,126.99 94.16,113.16 "/>
<polygon class="st0" points="119.79,35.78 129.81,33.37 104.96,35.48 "/>
<polygon class="st0" points="104.96,35.48 129.81,33.37 93.46,30.17 "/>
<polygon class="st0" points="132.05,41.43 153.33,49.7 129.81,33.37 "/>
</svg>
