<?xml version="1.0" encoding="utf-8"?>
<!-- Generator: Adobe Illustrator 24.0.2, SVG Export Plug-In . SVG Version: 6.00 Build 0)  -->
<svg version="1.1" id="Layer_1" xmlns="http://www.w3.org/2000/svg" xmlns:xlink="http://www.w3.org/1999/xlink" x="0px" y="0px"
	 viewBox="0 0 612 792" style="enable-background:new 0 0 612 792;" xml:space="preserve">
<style type="text/css">
	.st0{fill:none;stroke:#000000;stroke-miterlimit:10;}
</style>
<polygon class="st0" points="229.78,11.83 222.22,0.65 216.93,0.65 220.99,10.95 "/>
<polygon class="st0" points="208.45,0.65 202.98,0.65 202.51,3.03 "/>
<polygon class="st0" points="202.51,3.03 202.98,0.65 191,0.65 190.19,1.27 "/>
<polygon class="st0" points="220.99,10.95 212.27,0.65 210.93,0.65 206.03,15.35 "/>
<polygon class="st0" points="270.46,43.46 278.8,0.65 263.64,0.65 229.78,11.83 "/>
<polygon class="st0" points="222.75,21.52 230.66,22.4 229.78,11.83 "/>
<polygon class="st0" points="222.75,39.13 230.66,22.4 209.55,34.72 "/>
<polygon class="st0" points="211.31,61.14 231.14,57.98 222.75,39.13 "/>
<polygon class="st0" points="210.7,108.58 227.53,95.42 223.07,83.82 "/>
<polygon class="st0" points="223.07,83.82 231.14,57.98 215,71.98 "/>
<polygon class="st0" points="203.7,94.59 223.07,83.82 215,71.98 "/>
<polygon class="st0" points="215.54,121.51 227.91,128.51 227.53,95.42 "/>
<polygon class="st0" points="213.68,144.65 212.09,144.65 211.77,146.81 "/>
<polygon class="st0" points="215.54,121.51 212.09,144.65 213.68,144.65 227.91,128.51 "/>
<polygon class="st0" points="240.83,153.8 236.15,144.65 221.9,144.65 217.69,155.96 "/>
<polygon class="st0" points="221.9,144.65 236.15,144.65 227.91,128.51 "/>
<path class="st0" d="M227.37,171.03l13.45-17.23l-23.14,2.16C217.77,157.78,227.37,171.03,227.37,171.03z"/>
<path class="st0" d="M219.3,190.96l8.07-19.92c0,0-9.6-13.25-9.69-15.07L219.3,190.96z"/>
<polygon class="st0" points="232.42,201.13 243.86,189.68 240.83,153.8 "/>
<polygon class="st0" points="236.82,228.42 250.02,212.57 243.86,189.68 "/>
<polygon class="st0" points="252.66,271.56 269.38,254.83 250.02,212.57 "/>
<polygon class="st0" points="240.34,243.39 252.66,271.56 250.02,212.57 "/>
<polygon class="st0" points="272.02,286.53 279.03,269.56 269.38,254.83 "/>
<polygon class="st0" points="260.58,288.29 272.02,286.53 269.38,254.83 "/>
<polygon class="st0" points="267.62,312.06 272.02,286.53 260.58,288.29 "/>
<polygon class="st0" points="274.66,307.66 273.78,321.75 307.01,325.01 279.03,269.56 "/>
<polygon class="st0" points="295.78,356.97 307.01,325.01 273.78,321.75 "/>
<polygon class="st0" points="276.88,351.92 295.78,356.97 273.78,321.75 "/>
<polygon class="st0" points="290.5,391.3 295.78,356.97 276.88,351.92 "/>
<polygon class="st0" points="302.16,390.69 312.92,355.15 303.24,353.54 "/>
<polygon class="st0" points="303.24,353.54 312.92,355.15 307.01,325.01 "/>
<polygon class="st0" points="307.01,325.01 364.91,368.8 331.68,298.36 "/>
<polygon class="st0" points="311.31,400.38 323.15,400.92 312.92,355.15 "/>
<polygon class="st0" points="297.32,434.83 323.15,400.92 311.31,400.38 "/>
<polygon class="st0" points="319.92,433.76 338.75,422.99 323.15,400.92 "/>
<polygon class="st0" points="319.92,433.76 323.15,400.92 303.24,469.82 "/>
<polygon class="st0" points="338.75,422.99 364.91,368.8 323.15,400.92 "/>
<polygon class="st0" points="335.53,462.83 352.2,435.37 338.75,422.99 "/>
<polygon class="st0" points="335.53,462.83 353.28,466.05 352.2,435.37 "/>
<polygon class="st0" points="335.53,462.83 361.89,492.44 353.28,466.05 "/>
<polygon class="st0" points="352.2,435.37 384.49,509.12 378.03,467.67 "/>
<polygon class="st0" points="387.72,487.59 425.91,532.82 409.78,475.21 "/>
<polygon class="st0" points="409.78,475.21 419.46,440.76 382.87,454.21 "/>
<polygon class="st0" points="442.6,494.59 452.28,475.75 421.61,477.37 "/>
<polygon class="st0" points="441.52,523.12 442.6,494.59 421.61,477.37 "/>
<polygon class="st0" points="419.46,440.76 452.28,475.75 538.83,506.96 538.83,505.85 "/>
<polygon class="st0" points="538.83,505.85 538.83,506.96 544.83,509.12 "/>
<polygon class="st0" points="468.96,546.81 493.17,510.74 452.28,475.75 "/>
<polygon class="st0" points="468.96,546.81 512.01,600.11 493.17,510.74 "/>
<polygon class="st0" points="493.17,510.74 538.83,541.81 538.83,509.31 "/>
<polygon class="st0" points="544.83,509.12 538.83,509.31 538.83,541.81 546.98,547.35 "/>
<polygon class="st0" points="493.17,510.74 514.15,567.81 538.83,552.43 538.83,541.81 "/>
<polygon class="st0" points="538.83,541.81 538.83,552.43 546.98,547.35 "/>
<polygon class="st0" points="514.15,567.81 538.83,596.66 538.83,552.43 "/>
<polygon class="st0" points="546.98,547.35 538.83,552.43 538.83,596.66 565.27,627.56 "/>
<polygon class="st0" points="574.96,534.96 580.87,510.74 544.83,509.12 "/>
<polygon class="st0" points="574.96,534.96 585.18,529.05 580.87,510.74 "/>
<polygon class="st0" points="574.96,534.96 608.32,565.11 585.18,529.05 "/>
<polygon class="st0" points="580.87,510.74 612,532.54 612,531.95 588.4,503.21 "/>
<polygon class="st0" points="580.87,510.74 588.4,503.21 579.12,484.63 "/>
<polygon class="st0" points="605.62,514.51 612,519.47 612,516.02 592.32,480.23 "/>
<polygon class="st0" points="579.12,484.63 605.62,514.51 592.32,480.23 "/>
<polygon class="st0" points="579.12,484.63 592.32,480.23 586.16,455.58 "/>
<polygon class="st0" points="403.63,368.8 493.38,420.45 476.23,337.24 "/>
<polygon class="st0" points="331.68,298.36 342.61,190.76 290.24,225.84 "/>
<polygon class="st0" points="290.24,225.84 342.61,190.76 270.46,148.11 "/>
<polygon class="st0" points="271.37,144.65 270.46,144.65 270.46,148.11 "/>
<polygon class="st0" points="270.46,43.46 270.46,144.65 271.37,144.65 296.07,51.26 "/>
<polygon class="st0" points="277.05,144.65 273.07,144.65 270.46,148.11 "/>
<polygon class="st0" points="324.62,76.37 273.07,144.65 277.05,144.65 342.61,110.28 "/>
<polygon class="st0" points="342.61,110.28 348.49,94.89 324.62,76.37 "/>
<polygon class="st0" points="394.43,144.65 382.74,144.65 397.13,156.97 "/>
<polygon class="st0" points="342.61,110.28 382.74,144.65 394.43,144.65 377.61,67.89 "/>
<polygon class="st0" points="324.62,76.37 348.49,94.89 336.75,51.26 "/>
<polygon class="st0" points="420.96,180.46 427.11,144.65 408.2,144.65 397.13,156.97 "/>
<polygon class="st0" points="408.2,144.65 427.11,144.65 431.58,118.63 "/>
<polygon class="st0" points="324.62,76.37 324.62,53.21 296.07,51.26 "/>
<polygon class="st0" points="324.62,53.21 342.61,10.95 296.07,51.26 "/>
<polygon class="st0" points="369.2,22.3 368.14,0.65 348.28,0.65 342.61,10.95 "/>
<polygon class="st0" points="336.75,51.26 369.2,22.3 342.61,10.95 "/>
<polygon class="st0" points="463.09,40.11 465.33,32.06 441.81,48.38 "/>
<polygon class="st0" points="465.33,32.06 454.62,0.65 442.7,0.65 441.81,48.38 "/>
<polygon class="st0" points="431.58,118.63 441.8,48.38 414.57,54.38 "/>
<polygon class="st0" points="473.82,144.65 469.47,144.65 473.82,156.97 "/>
<polygon class="st0" points="457.33,110.28 469.47,144.65 473.82,144.65 473.82,125.67 "/>
<polygon class="st0" points="499.68,151.76 492.63,144.65 473.82,144.65 473.82,156.97 "/>
<polygon class="st0" points="473.82,144.65 492.63,144.65 473.82,125.67 "/>
<polygon class="st0" points="517.43,156.97 518,144.65 503.52,144.65 499.68,151.76 "/>
<polygon class="st0" points="503.52,144.65 518,144.65 519.38,115.23 "/>
<polygon class="st0" points="586.12,216.98 606.46,227.41 604.25,219.58 "/>
<polygon class="st0" points="559.01,270.19 606.46,227.41 571.31,242.02 "/>
<polygon class="st0" points="606.46,227.41 612,218.73 612,212.34 604.25,219.58 "/>
<polygon class="st0" points="538.15,216.98 538.83,218.41 538.83,216.91 "/>
<polygon class="st0" points="560.58,214.89 538.83,216.91 538.83,218.41 549.11,239.93 "/>
<polygon class="st0" points="549.11,239.93 571.31,242.02 560.58,214.89 "/>
<polygon class="st0" points="549.11,281.67 559.01,270.19 549.11,239.93 "/>
<polygon class="st0" points="507.91,230.54 538.83,268.92 538.83,237.59 "/>
<polygon class="st0" points="549.11,239.93 538.83,237.59 538.83,268.92 549.11,281.67 "/>
<polygon class="st0" points="495.91,225.84 507.91,230.54 505.99,218.02 "/>
<polygon class="st0" points="517.43,156.97 502.5,194.87 538.83,165.73 538.83,158.89 "/>
<polygon class="st0" points="538.83,158.89 538.83,165.73 546.5,159.58 "/>
<polygon class="st0" points="612,278.99 612,231.44 606.46,227.41 "/>
<polygon class="st0" points="612,461.63 612,455.49 608.16,459.98 "/>
<polygon class="st0" points="597.6,457.34 612,474.25 612,468.37 608.16,459.98 "/>
<polygon class="st0" points="597.6,457.34 612,450.73 612,449.29 586.16,455.58 "/>
<polygon class="st0" points="586.16,455.58 602,482.87 597.6,457.34 "/>
<polygon class="st0" points="263.64,0.65 222.22,0.65 229.78,11.83 "/>
<polygon class="st0" points="216.93,0.65 212.27,0.65 220.99,10.95 "/>
<polygon class="st0" points="377.61,67.89 388.56,7.43 369.2,22.3 "/>
<polygon class="st0" points="364.51,66.32 369.2,22.3 336.75,51.26 "/>
<polygon class="st0" points="375.25,0.65 368.14,0.65 369.2,22.3 "/>
<polygon class="st0" points="389.13,0.65 383.7,0.65 388.56,7.43 "/>
<polygon class="st0" points="336.75,51.26 342.61,10.95 324.62,53.21 "/>
<polygon class="st0" points="501.24,144.65 492.63,144.65 499.68,151.76 "/>
<polygon class="st0" points="473.82,125.67 492.63,144.65 501.24,144.65 508.1,113.37 "/>
<polygon class="st0" points="392.94,0.65 389.13,0.65 388.56,7.43 "/>
<polygon class="st0" points="399.9,0.65 392.94,0.65 388.56,7.43 "/>
<polygon class="st0" points="534.23,144.65 518,144.65 517.43,156.97 "/>
<polygon class="st0" points="519.38,115.23 518,144.65 534.23,144.65 538.83,141.27 538.83,114.13 "/>
<polygon class="st0" points="538.83,114.13 538.83,141.27 578.95,111.84 "/>
<polygon class="st0" points="494.87,179.41 517.43,156.97 473.82,156.97 "/>
<polygon class="st0" points="475.06,194.02 494.87,179.41 457.33,185.15 "/>
<polygon class="st0" points="517.43,156.97 538.83,158.89 538.83,147.55 "/>
<polygon class="st0" points="557.9,144.65 545.41,144.65 538.83,147.55 538.83,158.89 546.5,159.58 "/>
<polygon class="st0" points="545.41,144.65 557.9,144.65 564.22,136.36 "/>
<polygon class="st0" points="538.15,216.98 538.83,216.91 538.83,216.29 "/>
<polygon class="st0" points="546.5,208.63 538.83,216.29 538.83,216.91 560.58,214.89 "/>
<polygon class="st0" points="578.95,160.89 569.2,144.65 557.9,144.65 546.5,159.58 "/>
<polygon class="st0" points="557.9,144.65 569.2,144.65 564.22,136.36 "/>
<polygon class="st0" points="546.5,159.58 580.92,206.02 578.95,160.89 "/>
<polygon class="st0" points="502.5,194.87 538.15,216.98 538.83,216.29 538.83,206.23 "/>
<polygon class="st0" points="538.83,206.23 538.83,216.29 546.5,208.63 "/>
<polygon class="st0" points="501.13,194.02 505.99,218.02 538.15,216.98 502.5,194.87 "/>
<polygon class="st0" points="495.91,225.84 505.99,218.02 501.13,194.02 "/>
<polygon class="st0" points="534.23,144.65 517.43,156.97 538.83,147.55 538.83,144.65 "/>
<polygon class="st0" points="538.83,144.65 538.83,147.55 545.41,144.65 "/>
<polygon class="st0" points="534.23,144.65 538.83,144.65 538.83,141.27 "/>
<polygon class="st0" points="578.95,111.84 538.83,141.27 538.83,144.65 545.41,144.65 564.22,136.36 "/>
<polygon class="st0" points="582.32,144.65 612,158.24 612,153.57 604.94,144.65 "/>
<polygon class="st0" points="564.22,136.36 582.32,144.65 604.94,144.65 578.95,111.84 "/>
<polygon class="st0" points="569.2,144.65 578.95,160.89 612,160.89 612,158.24 582.32,144.65 "/>
<polygon class="st0" points="569.2,144.65 582.32,144.65 564.22,136.36 "/>
<polygon class="st0" points="502.5,194.87 538.83,206.23 538.83,165.73 "/>
<polygon class="st0" points="546.5,159.58 538.83,165.73 538.83,206.23 546.5,208.63 "/>
<polygon class="st0" points="571.31,242.02 606.46,227.41 586.12,216.98 "/>
<polygon class="st0" points="571.31,242.02 586.12,216.98 560.58,214.89 "/>
<polygon class="st0" points="580.92,206.02 604.25,219.58 601.25,207.06 "/>
<polygon class="st0" points="586.12,216.98 604.25,219.58 580.92,206.02 "/>
<polygon class="st0" points="560.58,214.89 586.12,216.98 580.92,206.02 "/>
<polygon class="st0" points="580.92,206.02 612,167.99 612,160.89 578.95,160.89 "/>
<polygon class="st0" points="601.25,207.06 612,177.08 612,167.99 580.92,206.02 "/>
<polygon class="st0" points="612,204.91 612,177.08 601.25,207.06 "/>
<polygon class="st0" points="604.25,219.58 612,212.34 612,204.91 601.25,207.06 "/>
<polygon class="st0" points="559.01,270.19 612,303.39 612,278.99 606.46,227.41 "/>
<polygon class="st0" points="612,231.44 612,226.12 606.46,227.41 "/>
<polygon class="st0" points="457.33,185.15 441.65,144.65 427.11,144.65 420.96,180.46 "/>
<polygon class="st0" points="427.11,144.65 441.65,144.65 431.58,118.63 "/>
<polygon class="st0" points="431.58,118.63 457.33,110.28 441.81,48.38 "/>
<polygon class="st0" points="505.99,218.02 507.91,230.54 538.83,237.59 538.83,234.71 "/>
<polygon class="st0" points="538.83,234.71 538.83,237.59 549.11,239.93 "/>
<polygon class="st0" points="538.15,216.98 505.99,218.02 538.83,234.71 538.83,218.41 "/>
<polygon class="st0" points="538.83,218.41 538.83,234.71 549.11,239.93 "/>
<polygon class="st0" points="559.01,270.19 571.31,242.02 549.11,239.93 "/>
<polygon class="st0" points="364.51,66.32 377.61,67.89 369.2,22.3 "/>
<polygon class="st0" points="388.56,7.43 383.7,0.65 375.25,0.65 369.2,22.3 "/>
<polygon class="st0" points="399.23,144.65 394.43,144.65 397.13,156.97 "/>
<polygon class="st0" points="377.61,67.89 394.43,144.65 399.23,144.65 414.57,54.38 "/>
<polygon class="st0" points="408.2,144.65 399.23,144.65 397.13,156.97 "/>
<polygon class="st0" points="414.57,54.38 399.23,144.65 408.2,144.65 431.58,118.63 "/>
<polygon class="st0" points="430.28,0.65 423.11,0.65 423.76,17.21 "/>
<polygon class="st0" points="423.76,17.21 423.11,0.65 399.9,0.65 388.56,7.43 "/>
<polygon class="st0" points="364.91,368.8 403.63,368.8 331.68,298.36 "/>
<polygon class="st0" points="403.63,368.8 476.23,337.24 384.27,289.63 "/>
<polygon class="st0" points="331.68,298.36 384.27,289.63 342.61,190.76 "/>
<polygon class="st0" points="342.61,190.76 342.61,144.65 277.05,144.65 270.46,148.11 "/>
<polygon class="st0" points="277.05,144.65 342.61,144.65 342.61,110.28 "/>
<polygon class="st0" points="348.49,94.89 377.61,67.89 364.51,66.32 "/>
<polygon class="st0" points="342.61,110.28 377.61,67.89 348.49,94.89 "/>
<polygon class="st0" points="414.57,54.38 441.8,48.38 442.7,0.65 433.5,0.65 431.48,7.43 "/>
<polygon class="st0" points="431.48,7.43 433.5,0.65 430.28,0.65 423.76,17.21 "/>
<polygon class="st0" points="414.57,54.38 431.48,7.43 423.76,17.21 "/>
<polygon class="st0" points="414.57,54.38 423.76,17.21 388.56,7.43 "/>
<polygon class="st0" points="377.61,67.89 414.57,54.38 388.56,7.43 "/>
<polygon class="st0" points="608.16,459.98 612,455.49 612,450.73 597.6,457.34 "/>
<polygon class="st0" points="511.3,51.31 513.71,12.12 501.68,28.85 "/>
<polygon class="st0" points="501.68,28.86 513.71,12.12 493.38,9.78 "/>
<polygon class="st0" points="465.33,32.06 501.68,28.85 493.38,9.78 "/>
<polygon class="st0" points="493.38,9.78 482.56,0.65 454.61,0.65 465.32,32.06 "/>
<polygon class="st0" points="492.54,0.65 482.56,0.65 493.38,9.78 "/>
<polygon class="st0" points="497.84,0.65 492.54,0.65 493.38,9.78 "/>
<polygon class="st0" points="513.71,12.12 506.96,0.65 497.84,0.65 493.38,9.78 "/>
<polygon class="st0" points="527.77,0.65 506.96,0.65 513.71,12.12 "/>
<polygon class="st0" points="384.27,289.63 476.23,337.24 458.24,242.02 "/>
<polygon class="st0" points="384.27,289.63 458.24,242.02 420.96,180.46 "/>
<polygon class="st0" points="384.27,289.63 420.96,180.46 397.13,156.97 "/>
<polygon class="st0" points="384.27,289.63 397.13,156.97 342.61,190.76 "/>
<polygon class="st0" points="397.13,156.97 382.74,144.65 342.61,144.65 342.61,190.76 "/>
<polygon class="st0" points="342.61,144.65 382.74,144.65 342.61,110.28 "/>
<polygon class="st0" points="348.28,0.65 333.96,0.65 342.61,10.95 "/>
<polygon class="st0" points="333.96,0.65 301.3,0.65 342.61,10.95 "/>
<polygon class="st0" points="342.61,10.95 301.3,0.65 281.4,0.65 296.07,51.26 "/>
<polygon class="st0" points="296.07,51.26 281.4,0.65 278.8,0.65 270.46,43.46 "/>
<polygon class="st0" points="230.66,22.4 270.46,43.46 229.78,11.83 "/>
<polygon class="st0" points="270.46,148.11 262.95,144.65 236.15,144.65 240.83,153.8 "/>
<polygon class="st0" points="236.15,144.65 262.95,144.65 227.91,128.51 "/>
<polygon class="st0" points="243.86,189.68 270.46,148.11 240.83,153.8 "/>
<polygon class="st0" points="250.02,212.57 270.46,148.11 243.86,189.68 "/>
<polygon class="st0" points="269.38,254.83 290.24,225.84 250.02,212.57 "/>
<polygon class="st0" points="279.03,269.56 290.24,225.84 269.38,254.83 "/>
<polygon class="st0" points="279.03,269.56 307.01,325.01 290.24,225.84 "/>
<polygon class="st0" points="312.92,355.15 364.91,368.8 307.01,325.01 "/>
<polygon class="st0" points="378.03,467.67 382.87,454.21 364.91,368.8 "/>
<polygon class="st0" points="382.87,454.21 419.46,440.76 364.91,368.8 "/>
<polygon class="st0" points="493.38,420.45 419.46,440.76 538.83,505.85 538.83,498.79 "/>
<polygon class="st0" points="538.83,498.79 538.83,505.85 544.83,509.12 "/>
<path class="st0" d="M532.29,464.67l6.54,2.79v-3.89C534.84,464.24,532.29,464.67,532.29,464.67z"/>
<path class="st0" d="M586.16,455.58c-0.7,0.17-33.13,5.62-47.33,8v3.89l40.29,17.17L586.16,455.58z"/>
<polygon class="st0" points="612,377.94 612,374.78 607.89,373.24 "/>
<polygon class="st0" points="591.4,434.54 612,425.95 612,377.94 607.89,373.24 "/>
<polygon class="st0" points="612,373.25 612,368.16 607.89,373.24 "/>
<polygon class="st0" points="612,439.55 612,425.95 591.4,434.54 "/>
<path class="st0" d="M586.16,455.58l25.84-6.29v-4.86l-20.6-9.89C591.4,434.54,587.06,455.36,586.16,455.58z"/>
<polygon class="st0" points="601.91,0.65 608.68,32.8 612,29.83 612,0.65 "/>
<polygon class="st0" points="581.19,0.65 581.91,0.65 581.37,0 "/>
<polygon class="st0" points="608.68,32.8 581.91,0.65 581.19,0.65 573.55,27.78 "/>
<polygon class="st0" points="591.11,71.93 608.68,32.8 567.29,46.17 "/>
<polygon class="st0" points="567.29,46.17 608.68,32.8 573.55,27.78 "/>
<polygon class="st0" points="528.64,80.67 538.83,86.99 538.83,79.25 "/>
<polygon class="st0" points="579.08,111.4 591.11,71.93 538.83,79.25 538.83,86.99 578.95,111.84 "/>
<polygon class="st0" points="528.64,80.67 538.83,79.25 538.83,71.57 "/>
<polygon class="st0" points="567.29,46.17 538.83,71.57 538.83,79.25 591.11,71.93 "/>
<polygon class="st0" points="528.64,80.67 519.38,115.23 538.83,114.13 538.83,86.99 "/>
<polygon class="st0" points="538.83,86.99 538.83,114.13 578.95,111.84 "/>
<polygon class="st0" points="503.52,144.65 501.24,144.65 499.68,151.76 "/>
<polygon class="st0" points="508.1,113.38 501.24,144.65 503.52,144.65 519.38,115.23 "/>
<polygon class="st0" points="508.1,113.37 519.38,115.23 513.05,80.75 "/>
<polygon class="st0" points="519.38,115.23 528.64,80.67 513.05,80.75 "/>
<polygon class="st0" points="511.3,51.32 528.64,80.67 538.83,63.66 538.83,38.41 "/>
<polygon class="st0" points="538.83,38.41 538.83,63.66 559.86,28.56 "/>
<polygon class="st0" points="528.64,80.67 538.83,71.57 538.83,63.66 "/>
<polygon class="st0" points="559.86,28.56 538.83,63.66 538.83,71.57 567.29,46.17 "/>
<polygon class="st0" points="567.29,46.17 573.55,27.78 559.86,28.56 "/>
<polygon class="st0" points="573.55,27.78 562.98,0.65 561.62,0.65 559.86,28.56 "/>
<polygon class="st0" points="570.24,0.65 562.98,0.65 573.55,27.78 "/>
<polygon class="st0" points="581.19,0.65 570.24,0.65 573.55,27.78 "/>
<polygon class="st0" points="561.62,0.65 548.27,0.65 559.86,28.56 "/>
<polygon class="st0" points="601.91,0.65 581.91,0.65 608.68,32.8 "/>
<polygon class="st0" points="533.48,0.65 513.71,12.12 538.83,21.07 538.83,0.65 "/>
<polygon class="st0" points="548.27,0.65 538.83,0.65 538.83,21.07 559.86,28.56 "/>
<polygon class="st0" points="513.71,12.12 511.3,51.32 538.83,38.41 538.83,21.07 "/>
<polygon class="st0" points="538.83,21.07 538.83,38.41 559.86,28.56 "/>
<polygon class="st0" points="513.05,80.75 528.64,80.67 511.3,51.31 "/>
<polygon class="st0" points="533.48,0.65 527.77,0.65 513.71,12.12 "/>
<polygon class="st0" points="273.07,144.65 271.37,144.65 270.46,148.11 "/>
<polygon class="st0" points="296.07,51.26 271.37,144.65 273.07,144.65 324.62,76.37 "/>
<polygon class="st0" points="324.62,76.37 336.75,51.26 324.62,53.21 "/>
<polygon class="st0" points="348.49,94.89 364.51,66.32 336.75,51.26 "/>
<polygon class="st0" points="493.38,420.45 522.9,377.41 476.23,337.24 "/>
<polygon class="st0" points="331.68,298.36 403.63,368.8 384.27,289.63 "/>
<polygon class="st0" points="612,226.12 612,218.73 606.46,227.41 "/>
<polygon class="st0" points="250.02,212.57 290.24,225.84 270.46,148.11 "/>
<polygon class="st0" points="364.91,368.8 419.46,440.76 403.63,368.8 "/>
<path class="st0" d="M532.29,464.67c0,0,2.55-0.43,6.54-1.1v-2.24L532.29,464.67z"/>
<path class="st0" d="M591.4,434.54l-52.57,26.79v2.24c14.2-2.38,46.63-7.83,47.33-8C587.06,455.36,591.4,434.54,591.4,434.54z"/>
<polygon class="st0" points="612,444.43 612,439.55 591.4,434.54 "/>
<polygon class="st0" points="522.9,377.41 532.29,464.67 538.83,461.34 538.83,390.7 "/>
<polygon class="st0" points="538.83,390.7 538.83,461.34 591.4,434.54 "/>
<polygon class="st0" points="522.9,377.41 538.83,390.7 538.83,376.63 "/>
<polygon class="st0" points="607.89,373.24 538.83,376.63 538.83,390.7 591.4,434.54 "/>
<polygon class="st0" points="420.96,180.46 458.24,242.02 457.33,185.15 "/>
<polygon class="st0" points="457.33,144.65 441.65,144.65 457.33,185.15 "/>
<polygon class="st0" points="431.58,118.63 441.65,144.65 457.33,144.65 457.33,110.28 "/>
<polygon class="st0" points="473.82,156.97 469.47,144.65 457.33,144.65 457.33,185.15 "/>
<polygon class="st0" points="457.33,144.65 469.47,144.65 457.33,110.28 "/>
<polygon class="st0" points="475.06,194.02 501.13,194.02 494.87,179.41 "/>
<polygon class="st0" points="501.13,194.02 502.5,194.87 517.43,156.97 494.87,179.41 "/>
<polygon class="st0" points="495.91,225.84 501.13,194.02 475.06,194.02 "/>
<polygon class="st0" points="458.24,242.02 495.91,225.84 475.06,194.02 "/>
<polygon class="st0" points="458.24,242.02 475.06,194.02 457.33,185.15 "/>
<polygon class="st0" points="458.24,242.02 507.91,230.54 495.91,225.84 "/>
<polygon class="st0" points="488.1,303.58 507.91,230.54 458.24,242.02 "/>
<polygon class="st0" points="476.23,337.24 488.1,303.58 458.24,242.02 "/>
<polygon class="st0" points="507.91,230.54 488.1,303.58 538.83,285.36 538.83,268.92 "/>
<polygon class="st0" points="538.83,268.92 538.83,285.36 549.11,281.67 "/>
<polygon class="st0" points="488.1,303.58 536.06,300.45 538.83,296.46 538.83,285.36 "/>
<polygon class="st0" points="538.83,285.36 538.83,296.46 549.11,281.67 "/>
<polygon class="st0" points="525.12,326.02 536.06,300.45 488.1,303.58 "/>
<polygon class="st0" points="476.23,337.24 525.12,326.02 488.1,303.58 "/>
<polygon class="st0" points="522.9,377.41 525.12,326.02 476.23,337.24 "/>
<polygon class="st0" points="525.12,326.02 522.9,377.41 538.83,366.19 538.83,326.44 "/>
<polygon class="st0" points="538.83,326.44 538.83,366.19 592.91,328.11 "/>
<polygon class="st0" points="525.12,326.02 538.83,326.44 538.83,320.69 "/>
<polygon class="st0" points="588.21,301.5 538.83,320.69 538.83,326.44 592.91,328.11 "/>
<polygon class="st0" points="522.9,377.41 538.83,376.63 538.83,366.19 "/>
<polygon class="st0" points="592.91,328.11 538.83,366.19 538.83,376.63 607.89,373.24 "/>
<polygon class="st0" points="536.06,300.45 538.83,300.51 538.83,296.46 "/>
<polygon class="st0" points="549.11,281.67 538.83,296.46 538.83,300.51 588.21,301.5 "/>
<polygon class="st0" points="549.11,281.67 588.21,301.5 559.01,270.19 "/>
<polygon class="st0" points="588.21,301.5 612,304.77 612,303.39 559.01,270.19 "/>
<polygon class="st0" points="592.91,328.11 612,308.1 612,304.77 588.21,301.5 "/>
<polygon class="st0" points="536.06,300.45 525.12,326.02 538.83,320.69 538.83,300.51 "/>
<polygon class="st0" points="538.83,300.51 538.83,320.69 588.21,301.5 "/>
<polygon class="st0" points="612,324.23 612,308.1 592.91,328.11 "/>
<polygon class="st0" points="607.89,373.24 612,368.16 612,324.23 592.91,328.11 "/>
<polygon class="st0" points="612,374.78 612,373.25 607.89,373.24 "/>
<path class="st0" d="M231.14,57.98l39.32-14.52L230.66,22.4C231.93,24.85,231.14,57.98,231.14,57.98z"/>
<path class="st0" d="M222.75,39.13l8.39,18.85c0,0,0.79-33.13-0.48-35.58L222.75,39.13z"/>
<polygon class="st0" points="227.53,95.42 231.14,57.98 223.07,83.82 "/>
<polygon class="st0" points="227.53,95.42 270.46,43.46 231.14,57.98 "/>
<polygon class="st0" points="227.91,128.51 270.46,43.46 227.53,95.42 "/>
<polygon class="st0" points="270.46,144.65 262.95,144.65 270.46,148.11 "/>
<polygon class="st0" points="227.91,128.51 262.95,144.65 270.46,144.65 270.46,43.46 "/>
<polygon class="st0" points="307.01,325.01 331.68,298.36 290.24,225.84 "/>
<polygon class="st0" points="323.15,400.92 364.91,368.8 312.92,355.15 "/>
<polygon class="st0" points="352.2,435.37 364.91,368.8 338.75,422.99 "/>
<polygon class="st0" points="352.2,435.37 378.03,467.67 364.91,368.8 "/>
<polygon class="st0" points="387.72,487.59 409.78,475.21 382.87,454.21 "/>
<polygon class="st0" points="421.61,477.37 452.28,475.75 419.46,440.76 "/>
<polygon class="st0" points="419.46,440.76 493.38,420.45 403.63,368.8 "/>
<polygon class="st0" points="493.38,420.45 532.29,464.67 522.9,377.41 "/>
<polygon class="st0" points="452.28,475.75 493.17,510.74 538.83,509.31 538.83,506.96 "/>
<polygon class="st0" points="538.83,506.96 538.83,509.31 544.83,509.12 "/>
<polygon class="st0" points="532.29,464.67 493.38,420.45 538.83,498.79 538.83,487.87 "/>
<polygon class="st0" points="538.83,487.87 538.83,498.79 544.83,509.12 "/>
<polygon class="st0" points="532.29,464.67 538.83,487.87 538.83,467.46 "/>
<polygon class="st0" points="579.12,484.63 538.83,467.46 538.83,487.87 544.83,509.12 "/>
<polygon class="st0" points="544.83,509.12 580.87,510.74 579.12,484.63 "/>
<polygon class="st0" points="560.58,214.89 580.92,206.02 546.5,159.58 "/>
<polygon class="st0" points="546.5,208.63 560.58,214.89 546.5,159.58 "/>
<polygon class="st0" points="473.82,156.97 517.43,156.97 499.68,151.76 "/>
<polygon class="st0" points="457.33,185.15 494.87,179.41 473.82,156.97 "/>
<path class="st0" d="M579.08,111.4c1.98-2.76,21.48-16.12,32.92-23.82V79.2l-20.89-7.27L579.08,111.4z"/>
<polygon class="st0" points="591.11,71.93 612,58.87 612,37.75 608.68,32.8 "/>
<polygon class="st0" points="612,32.42 612,29.83 608.68,32.8 "/>
<polygon class="st0" points="604.94,144.65 612,153.57 612,144.65 "/>
<path class="st0" d="M604.94,144.65H612v-30.4c-13.38-0.5-32.24-1.39-33.05-2.41L604.94,144.65z"/>
<path class="st0" d="M579.08,111.4l-0.13,0.44c0.8,1.02,19.67,1.91,33.05,2.41V87.58C600.57,95.29,581.06,108.64,579.08,111.4z"/>
<path class="st0" d="M578.95,111.84l0.13-0.44C578.94,111.61,578.89,111.76,578.95,111.84z"/>
<polygon class="st0" points="612,79.2 612,58.87 591.11,71.93 "/>
<polygon class="st0" points="612,37.75 612,32.42 608.68,32.8 "/>
<polygon class="st0" points="497.54,97.08 504.27,91.42 496.87,91.88 "/>
<polygon class="st0" points="503.87,99.5 504.27,91.42 500.37,98.96 "/>
<polygon class="st0" points="504.54,80.75 505.35,66.73 496.87,77.83 "/>
<polygon class="st0" points="496.87,77.83 505.35,66.73 493.64,73.66 "/>
<polygon class="st0" points="505.35,66.73 505.35,56.37 496.19,53.87 "/>
<polygon class="st0" points="480.73,71.64 483.42,61.95 473.87,69.63 "/>
<polygon class="st0" points="468.63,66.03 473.87,69.63 477.9,60.6 463.92,62.35 "/>
<polygon class="st0" points="463.92,62.35 474.13,58.45 460.42,57.51 "/>
<polygon class="st0" points="459.07,47.05 470.1,47.05 463.09,40.11 "/>
<polygon class="st0" points="474.28,39.61 475.35,34.46 463.09,40.11 "/>
<polygon class="st0" points="489.47,38.8 490.18,34.16 481.94,37.29 "/>
<polygon class="st0" points="494.86,41.36 499.92,39.86 490.18,34.16 "/>
<polygon class="st0" points="496.87,44.86 503.33,48.38 499.92,39.86 "/>
<polygon class="st0" points="496.87,44.86 499.92,39.86 494.86,41.36 "/>
<polygon class="st0" points="496.87,48.9 505.35,56.37 503.33,48.38 "/>
<polygon class="st0" points="496.19,53.87 505.35,56.37 496.87,48.9 "/>
<polygon class="st0" points="485.08,53.24 493.37,58.45 489.22,52.12 "/>
<polygon class="st0" points="483.42,61.95 488.27,61.54 485.08,53.24 "/>
<polygon class="st0" points="477.9,60.6 478.93,51.82 474.13,58.45 "/>
<polygon class="st0" points="471.86,55.49 478.93,51.82 477.12,48.59 "/>
<path class="st0" d="M469.7,51.31l7.42-2.72l-7.01-1.54C470.1,47.36,469.7,51.31,469.7,51.31z"/>
<path class="st0" d="M470.1,47.05l7.81-1.94l-6.34-2.54C471.58,42.57,470.1,46.74,470.1,47.05z"/>
<polygon class="st0" points="471.58,42.57 478.73,43.25 474.28,39.61 "/>
<polygon class="st0" points="478.73,43.25 481.94,37.29 474.28,39.61 "/>
<polygon class="st0" points="484.28,40.52 489.47,38.8 481.94,37.29 "/>
<polygon class="st0" points="490.93,42.23 494.86,41.36 489.47,38.8 "/>
<polygon class="st0" points="492.24,45.11 496.87,44.86 494.86,41.36 "/>
<polygon class="st0" points="496.19,53.87 496.87,48.9 491.24,49.17 "/>
<polygon class="st0" points="489.22,52.12 496.19,53.87 491.24,49.17 "/>
<polygon class="st0" points="481.66,53.24 485.08,53.24 483.29,49.97 "/>
<polygon class="st0" points="478.93,51.82 483.29,49.97 477.12,48.59 "/>
<polygon class="st0" points="477.12,48.59 481.94,48.19 477.92,45.11 "/>
<polygon class="st0" points="477.92,45.11 481.94,46.22 478.73,43.25 "/>
<polygon class="st0" points="478.73,43.25 481.94,46.22 480.44,41.83 "/>
<polygon class="st0" points="483.44,45.11 484.28,40.52 480.44,41.83 "/>
<polygon class="st0" points="485.92,45.11 487.7,40.82 484.28,40.52 "/>
<polygon class="st0" points="487.03,46.58 492.24,45.11 490.93,42.23 "/>
<polygon class="st0" points="491.24,49.17 492.24,45.11 487.03,46.58 "/>
<polygon class="st0" points="489.22,52.12 491.24,49.17 486.93,48.94 "/>
<polygon class="st0" points="485.36,50.16 489.22,52.12 486.93,48.94 "/>
<polygon class="st0" points="485.36,50.16 486.93,48.94 484.58,47.68 "/>
<polygon class="st0" points="483.29,49.97 484.58,47.68 481.94,48.19 "/>
<polygon class="st0" points="481.94,46.22 484.58,47.68 483.44,45.11 "/>
<polygon class="st0" points="484.58,47.68 487.03,46.58 485.92,45.11 "/>
<polygon class="st0" points="477.9,60.6 483.42,61.95 481.66,53.24 "/>
<polygon class="st0" points="477.9,60.6 481.66,53.24 478.93,51.82 "/>
<polygon class="st0" points="481.66,53.24 483.29,49.97 478.93,51.82 "/>
<polygon class="st0" points="477.12,48.59 483.29,49.97 481.94,48.19 "/>
<polygon class="st0" points="481.94,48.19 481.94,46.22 477.92,45.11 "/>
<polygon class="st0" points="481.94,46.22 483.44,45.11 480.44,41.83 "/>
<polygon class="st0" points="483.44,45.11 485.92,45.11 484.28,40.52 "/>
<polygon class="st0" points="471.58,42.57 474.28,39.61 463.09,40.11 "/>
<polygon class="st0" points="477.12,48.59 477.92,45.11 470.1,47.05 "/>
<polygon class="st0" points="477.92,45.11 478.73,43.25 471.58,42.57 "/>
<polygon class="st0" points="480.44,41.83 484.28,40.52 481.94,37.29 "/>
<polygon class="st0" points="485.92,45.11 490.93,42.23 487.7,40.82 "/>
<polygon class="st0" points="487.03,46.58 490.93,42.23 485.92,45.11 "/>
<polygon class="st0" points="480.44,41.83 481.94,37.29 478.73,43.25 "/>
<polygon class="st0" points="489.21,71.93 493.64,73.66 493.37,58.45 "/>
<polygon class="st0" points="489.47,38.8 494.86,41.36 490.18,34.16 "/>
<polygon class="st0" points="493.37,58.45 496.19,53.87 489.22,52.12 "/>
<polygon class="st0" points="488.27,61.54 493.37,58.45 485.08,53.24 "/>
<polygon class="st0" points="487.7,40.82 489.47,38.8 484.28,40.52 "/>
<polygon class="st0" points="487.7,40.82 490.93,42.23 489.47,38.8 "/>
<polygon class="st0" points="492.24,45.11 494.86,41.36 490.93,42.23 "/>
<polygon class="st0" points="485.08,53.24 489.22,52.12 485.36,50.16 "/>
<polygon class="st0" points="486.93,48.94 491.24,49.17 487.03,46.58 "/>
<polygon class="st0" points="496.87,48.9 496.87,44.86 492.24,45.11 "/>
<polygon class="st0" points="491.24,49.17 496.87,48.9 492.24,45.11 "/>
<polygon class="st0" points="483.42,61.95 485.08,53.24 481.66,53.24 "/>
<polygon class="st0" points="485.08,53.24 485.36,50.16 483.29,49.97 "/>
<polygon class="st0" points="493.64,73.66 505.35,66.73 493.37,58.45 "/>
<polygon class="st0" points="493.37,58.45 505.35,66.73 496.19,53.87 "/>
<polygon class="st0" points="489.21,71.93 493.37,58.45 488.27,61.54 "/>
<polygon class="st0" points="496.87,48.9 503.33,48.38 496.87,44.86 "/>
<polygon class="st0" points="474.28,39.61 481.94,37.29 475.35,34.46 "/>
<polygon class="st0" points="481.94,37.29 490.18,34.16 475.35,34.46 "/>
<polygon class="st0" points="475.89,104.95 485.98,103.87 481.13,101.32 "/>
<polygon class="st0" points="473.82,100.92 481.13,101.32 473.82,93.51 "/>
<polygon class="st0" points="475.89,104.95 481.13,101.32 473.82,100.92 "/>
<polygon class="st0" points="473.82,93.51 483.29,99.03 475.48,88.8 "/>
<polygon class="st0" points="490.82,95.4 491.22,91.88 483.29,99.03 "/>
<polygon class="st0" points="489.88,101.73 490.82,95.4 483.29,99.03 "/>
<polygon class="st0" points="490.82,95.4 496.87,91.88 491.22,91.88 "/>
<polygon class="st0" points="475.48,88.8 491.22,91.88 472.39,83.5 "/>
<polygon class="st0" points="472.39,83.5 480.73,71.64 463.92,78.84 "/>
<polygon class="st0" points="463.92,78.84 473.87,69.63 457.33,71.31 "/>
<polygon class="st0" points="454.23,64.44 460.42,57.51 453.56,55.42 "/>
<polygon class="st0" points="453.56,55.42 458.53,52.26 454.5,50.31 "/>
<polygon class="st0" points="458.53,52.26 459.07,47.05 454.5,50.31 "/>
<polygon class="st0" points="458.53,52.26 469.7,51.31 459.07,47.05 "/>
<path class="st0" d="M469.7,51.31c0,0,0.4-3.95,0.4-4.26h-11.03L469.7,51.31z"/>
<path class="st0" d="M470.1,47.05c0-0.31,1.48-4.48,1.48-4.48l-8.49-2.46L470.1,47.05z"/>
<polygon class="st0" points="481.13,101.32 485.98,103.87 483.95,101.73 "/>
<polygon class="st0" points="504.27,91.42 504.54,80.75 497.54,83.08 "/>
<polygon class="st0" points="496.87,91.88 497.54,83.08 495.9,88.47 "/>
<polygon class="st0" points="495.9,88.47 497.54,83.08 496.87,77.83 "/>
<polygon class="st0" points="495.9,88.47 496.87,77.83 493.64,73.66 "/>
<polygon class="st0" points="497.54,83.08 504.54,80.75 496.87,77.83 "/>
<polygon class="st0" points="492.43,99.16 500.97,111.84 500.37,98.96 "/>
<polygon class="st0" points="500.97,111.84 503.87,99.5 500.37,98.96 "/>
<polygon class="st0" points="489.88,101.73 500.97,111.84 492.43,99.16 "/>
<polygon class="st0" points="485.98,103.87 489.88,101.73 483.95,101.73 "/>
<polygon class="st0" points="485.98,103.87 500.97,111.84 489.88,101.73 "/>
<polygon class="st0" points="475.89,104.95 500.97,111.84 485.98,103.87 "/>
<polygon class="st0" points="483.95,101.73 489.88,101.73 483.29,99.03 "/>
<polygon class="st0" points="481.13,101.32 483.95,101.73 483.29,99.03 "/>
<polygon class="st0" points="481.13,101.32 483.29,99.03 473.82,93.51 "/>
<polygon class="st0" points="489.88,101.73 492.43,99.16 490.82,95.4 "/>
<polygon class="st0" points="492.43,99.16 497.54,97.08 490.82,95.4 "/>
<polygon class="st0" points="490.82,95.4 497.54,97.08 496.87,91.88 "/>
<polygon class="st0" points="492.43,99.16 500.37,98.96 497.54,97.08 "/>
<polygon class="st0" points="500.37,98.96 504.27,91.42 497.54,97.08 "/>
<polygon class="st0" points="483.29,99.03 491.22,91.88 475.48,88.8 "/>
<polygon class="st0" points="491.22,91.88 496.87,91.88 495.9,88.47 "/>
<polygon class="st0" points="491.22,91.88 495.9,88.47 489.21,71.93 "/>
<polygon class="st0" points="472.39,83.5 491.22,91.88 480.73,71.64 "/>
<polygon class="st0" points="463.92,78.84 480.73,71.64 473.87,69.63 "/>
<polygon class="st0" points="463.92,62.35 457.33,71.31 473.87,69.63 468.63,66.03 "/>
<polygon class="st0" points="457.33,71.31 463.92,62.35 454.23,64.44 "/>
<polygon class="st0" points="454.23,64.44 463.92,62.35 460.42,57.51 "/>
<polygon class="st0" points="480.73,71.64 489.21,71.93 488.27,61.54 "/>
<polygon class="st0" points="480.73,71.64 488.27,61.54 483.42,61.95 "/>
<polygon class="st0" points="473.87,69.63 483.42,61.95 477.9,60.6 "/>
<polygon class="st0" points="463.92,62.35 477.9,60.6 474.13,58.45 "/>
<polygon class="st0" points="460.42,57.51 474.13,58.45 471.86,55.49 "/>
<polygon class="st0" points="460.42,57.51 471.86,55.49 458.53,52.26 "/>
<polygon class="st0" points="458.53,52.26 471.86,55.49 469.7,51.31 "/>
<polygon class="st0" points="474.13,58.45 478.93,51.82 471.86,55.49 "/>
<polygon class="st0" points="471.86,55.49 477.12,48.59 469.7,51.31 "/>
<polygon class="st0" points="453.56,55.42 460.42,57.51 458.53,52.26 "/>
<polygon class="st0" points="489.21,71.93 495.9,88.47 493.64,73.66 "/>
<polygon class="st0" points="480.73,71.64 491.22,91.88 489.21,71.93 "/>
<polygon class="st0" points="496.87,91.88 504.27,91.42 497.54,83.08 "/>
<polygon class="st0" points="484.58,47.68 485.92,45.11 483.44,45.11 "/>
<polygon class="st0" points="486.93,48.94 487.03,46.58 484.58,47.68 "/>
<polygon class="st0" points="483.29,49.97 485.36,50.16 484.58,47.68 "/>
<path class="st0" d="M485.92,50.98"/>
<path class="st0" d="M478.73,43.25"/>
<polygon class="st0" points="481.94,48.19 484.58,47.68 481.94,46.22 "/>
<path class="st0" d="M454.23,64.44"/>
<polygon class="st0" points="473.82,100.92 473.82,93.51 457.33,71.31 "/>
<polygon class="st0" points="473.82,93.51 475.48,88.8 472.39,83.5 "/>
<polygon class="st0" points="457.33,71.31 473.82,93.51 463.92,78.84 "/>
<polygon class="st0" points="463.92,78.84 473.82,93.51 472.39,83.5 "/>
<polygon class="st0" points="459.07,47.05 463.09,40.11 454.5,50.31 "/>
<polygon class="st0" points="454.5,50.31 463.09,40.11 441.81,48.38 "/>
<polygon class="st0" points="505.35,56.37 513.05,80.75 511.3,51.31 "/>
<polygon class="st0" points="500.97,111.84 508.1,113.37 503.87,99.5 "/>
<polygon class="st0" points="503.87,99.5 508.1,113.37 504.27,91.42 "/>
<polygon class="st0" points="508.1,113.37 513.05,80.75 504.27,91.42 "/>
<polygon class="st0" points="473.82,125.67 475.89,104.95 457.33,110.28 "/>
<polygon class="st0" points="457.33,71.31 457.33,110.28 475.89,104.95 473.82,100.92 "/>
<polygon class="st0" points="457.33,110.28 457.33,71.31 441.81,48.38 "/>
<polygon class="st0" points="453.56,55.42 454.5,50.31 441.81,48.38 "/>
<polygon class="st0" points="441.81,48.38 457.33,71.31 454.23,64.44 "/>
<polygon class="st0" points="441.81,48.38 454.23,64.44 453.56,55.42 "/>
<polygon class="st0" points="463.09,40.11 475.35,34.46 465.33,32.06 "/>
<polygon class="st0" points="499.92,39.86 501.68,28.85 490.18,34.16 "/>
<polygon class="st0" points="505.35,56.37 511.3,51.31 503.33,48.38 "/>
<polygon class="st0" points="499.92,39.86 503.33,48.38 501.68,28.85 "/>
<polygon class="st0" points="503.33,48.38 511.3,51.31 501.68,28.85 "/>
<polygon class="st0" points="504.27,91.42 513.05,80.75 504.54,80.75 "/>
<polygon class="st0" points="505.35,66.73 513.05,80.75 505.35,56.37 "/>
<polygon class="st0" points="504.54,80.75 513.05,80.75 505.35,66.73 "/>
<polygon class="st0" points="473.82,125.67 500.97,111.84 475.89,104.95 "/>
<polygon class="st0" points="473.82,125.67 508.1,113.37 500.97,111.84 "/>
<polygon class="st0" points="475.35,34.46 490.18,34.16 465.33,32.06 "/>
<polygon class="st0" points="490.18,34.16 501.68,28.85 465.33,32.06 "/>
<polygon class="st0" points="463.09,40.11 465.33,32.06 441.81,48.38 "/>
<rect x="-1.17" y="0.65" class="st0" width="612" height="792"/>
</svg>
