<?xml version="1.0" encoding="utf-8"?>
<!-- Generator: Adobe Illustrator 24.0.2, SVG Export Plug-In . SVG Version: 6.00 Build 0)  -->
<svg version="1.1" id="Layer_1" xmlns="http://www.w3.org/2000/svg" xmlns:xlink="http://www.w3.org/1999/xlink" x="0px" y="0px"
	 viewBox="0 0 612 792" style="enable-background:new 0 0 612 792;" xml:space="preserve">
<style type="text/css">
	.st0{fill:none;stroke:#010202;stroke-miterlimit:10;}
</style>
<polygon class="st0" points="539.06,94.52 540.13,94.08 540.13,93.97 "/>
<polygon class="st0" points="603.3,61.94 540.13,93.97 540.13,94.08 579.1,78.23 "/>
<polygon class="st0" points="539.06,94.52 540.13,94.84 540.13,94.08 "/>
<polygon class="st0" points="579.1,78.23 540.13,94.08 540.13,94.84 564.14,102 "/>
<polygon class="st0" points="539.06,94.52 469.55,153.51 540.13,115.07 540.13,94.84 "/>
<polygon class="st0" points="540.13,94.84 540.13,115.07 564.14,102 "/>
<polygon class="st0" points="469.55,153.51 540.13,137.31 540.13,115.07 "/>
<polygon class="st0" points="564.14,102 540.13,115.07 540.13,137.31 559.74,132.82 "/>
<polygon class="st0" points="469.55,153.51 488.9,120.05 466.03,138.54 "/>
<polygon class="st0" points="454.59,145.58 466.03,138.54 463.39,128.85 "/>
<polygon class="st0" points="436.99,161.43 469.55,153.51 454.59,145.58 "/>
<polygon class="st0" points="557.98,153.95 613.3,128.55 613.3,122.75 585.26,121.37 "/>
<polygon class="st0" points="613.3,181.78 613.3,139.85 580.29,187.67 "/>
<polygon class="st0" points="545.85,225.35 545.97,225.28 547.25,224.16 547.46,224.37 613.3,184.47 613.3,181.78 580.29,187.67 "/>
<polygon class="st0" points="519.26,204.13 540.13,220.78 540.13,198.5 "/>
<polygon class="st0" points="580.29,187.67 540.13,198.5 540.13,220.78 545.85,225.35 "/>
<polygon class="st0" points="547.25,224.16 545.97,225.28 545.85,225.35 545.84,225.39 545.91,225.33 547.86,224.76 547.46,224.37 
	"/>
<polygon class="st0" points="613.3,217.38 613.3,209.65 604.94,222.12 "/>
<polygon class="st0" points="389.47,231.87 434.48,243.92 398.27,208.09 "/>
<polygon class="st0" points="372.07,275.22 389.47,231.87 386.83,213.38 "/>
<polygon class="st0" points="372.07,275.22 386.83,213.38 367.47,219.54 "/>
<polygon class="st0" points="357.79,237.15 372.07,275.22 367.47,219.54 "/>
<polygon class="st0" points="344.59,248.59 357.79,237.15 355.15,223.06 "/>
<polygon class="st0" points="359.55,220.42 366.59,206.33 355.15,223.06 "/>
<polygon class="st0" points="344.59,248.59 348.11,229.22 340.19,245.95 "/>
<polygon class="st0" points="333.15,266.2 344.59,248.59 340.19,245.95 "/>
<polygon class="st0" points="333.15,266.2 372.07,275.22 344.59,248.59 "/>
<polygon class="st0" points="315.56,281.17 333.15,266.2 322.6,259.16 "/>
<polygon class="st0" points="322.6,259.16 333.15,266.2 330.51,254.76 "/>
<polygon class="st0" points="330.51,254.76 334.91,245.07 322.6,259.16 "/>
<polygon class="st0" points="315.56,303.18 327.14,312.7 315.56,281.17 "/>
<polygon class="st0" points="302.36,311.1 315.56,303.18 311.16,292.62 "/>
<polygon class="st0" points="302.36,324.31 327.14,312.7 302.36,311.1 "/>
<polygon class="st0" points="299.72,342.8 307.77,378.92 302.36,324.31 "/>
<polygon class="st0" points="291.8,371.86 307.77,378.92 299.72,342.8 "/>
<polygon class="st0" points="364.86,426.43 372.07,397.35 359.47,414.15 "/>
<polygon class="st0" points="256.6,422.04 359.47,414.15 307.77,378.92 "/>
<polygon class="st0" points="256.6,422.04 291.8,371.86 261,404.43 "/>
<polygon class="st0" points="261,404.43 291.8,371.86 269.8,373.62 "/>
<polygon class="st0" points="269.8,373.62 291.8,371.86 284.76,354.25 "/>
<polygon class="st0" points="236.36,423.8 256.6,422.04 245.16,400.03 "/>
<polygon class="st0" points="245.16,454.62 256.6,422.04 236.36,423.8 "/>
<polygon class="st0" points="265.86,475.53 300.56,441.88 256.6,422.04 "/>
<polygon class="st0" points="300.56,441.88 324.77,430.03 256.6,422.04 "/>
<polygon class="st0" points="324.77,430.03 359.47,414.15 256.6,422.04 "/>
<polygon class="st0" points="324.77,430.03 362.7,440.53 359.47,414.15 "/>
<polygon class="st0" points="228.44,459.02 244.28,480.15 236.36,451.98 "/>
<polygon class="st0" points="228.44,459.02 236.36,451.98 229.32,440.53 "/>
<polygon class="st0" points="236.36,451.98 262.89,481.18 245.16,454.62 "/>
<polygon class="st0" points="244.28,480.15 302.44,497.33 308.89,491.14 271.77,484.14 "/>
<polygon class="st0" points="244.28,480.15 271.77,484.14 262.89,481.18 "/>
<polygon class="st0" points="271.77,484.14 308.89,491.14 305.94,476.87 "/>
<polygon class="st0" points="308.89,491.14 321.53,495.44 305.94,476.87 "/>
<polygon class="st0" points="271.77,484.14 307.82,465.02 300.56,441.88 "/>
<polygon class="st0" points="305.94,476.87 307.82,465.02 271.77,484.14 "/>
<polygon class="st0" points="305.94,476.87 323.16,485.75 307.82,465.02 "/>
<polygon class="st0" points="316.97,467.44 329.34,472.3 327.19,453.99 "/>
<polygon class="st0" points="327.19,453.99 346.02,482.79 343.6,465.02 "/>
<polygon class="st0" points="308.89,491.14 322.89,503.79 321.53,495.44 "/>
<polygon class="st0" points="311.31,518.33 327.46,515.9 310.51,508.36 "/>
<polygon class="st0" points="311.31,518.33 340.92,526.13 327.46,515.9 "/>
<polygon class="st0" points="258.85,517.91 311.31,518.33 248.68,498.14 "/>
<polygon class="st0" points="224.04,509.2 234.6,510.08 248.68,498.14 214.36,504.8 "/>
<polygon class="st0" points="214.36,504.8 233.72,488.07 217,494.24 "/>
<polygon class="st0" points="214.36,504.8 217,494.24 212.6,490.71 "/>
<polygon class="st0" points="233.72,488.07 248.68,498.14 244.28,480.15 "/>
<polygon class="st0" points="221.4,518.89 224.04,509.2 208.2,515.37 "/>
<polygon class="st0" points="221.4,524.17 234.6,510.08 221.4,518.89 "/>
<polygon class="st0" points="208.2,529.45 254.94,526.13 221.4,524.17 "/>
<polygon class="st0" points="217,536.5 241.25,531.6 208.2,529.45 "/>
<polygon class="st0" points="209.96,545.3 244.77,541.39 217,536.5 "/>
<polygon class="st0" points="201.16,548.82 228.44,557.04 209.96,545.3 "/>
<polygon class="st0" points="213.48,559.39 228.44,557.04 201.16,548.82 "/>
<polygon class="st0" points="225.8,567.31 228.44,557.04 213.48,559.39 "/>
<polygon class="st0" points="217,575.24 225.8,567.31 209.08,567.31 "/>
<polygon class="st0" points="217,590.2 217,575.24 205.56,584.04 "/>
<polygon class="st0" points="211.72,605.17 271.75,600.77 209.08,600.77 "/>
<polygon class="st0" points="201.16,625.42 210.84,628.94 209.08,612.22 "/>
<polygon class="st0" points="201.16,625.42 209.08,612.22 203.8,618.38 "/>
<polygon class="st0" points="201.16,625.42 203.8,618.38 192.36,618.38 "/>
<polygon class="st0" points="209.08,612.22 211.72,605.17 200.28,604.29 "/>
<polygon class="st0" points="210.84,628.94 281.14,642.34 271.75,600.77 "/>
<polygon class="st0" points="210.84,628.94 218.23,647.7 223.52,647.7 "/>
<polygon class="st0" points="231.08,658.88 223.52,647.7 218.23,647.7 222.28,658 "/>
<polygon class="st0" points="206.44,636.87 212.6,646.55 210.84,628.94 "/>
<polygon class="st0" points="212.6,646.55 206.44,636.87 204.28,647.7 209.75,647.7 "/>
<polygon class="st0" points="209.75,647.7 204.28,647.7 203.8,650.07 "/>
<polygon class="st0" points="206.44,636.87 192.29,647.7 204.28,647.7 "/>
<polygon class="st0" points="203.8,650.07 204.28,647.7 192.29,647.7 191.48,648.31 "/>
<polygon class="st0" points="212.6,646.55 212.22,647.7 213.57,647.7 "/>
<polygon class="st0" points="222.28,658 213.57,647.7 212.22,647.7 207.32,662.4 "/>
<polygon class="st0" points="254.94,526.13 295.61,545.3 258.85,517.91 "/>
<polygon class="st0" points="244.77,541.39 254.94,526.13 241.25,531.6 "/>
<polygon class="st0" points="271.75,600.77 307.77,574.26 262.89,554.3 "/>
<polygon class="st0" points="311.31,607.52 346.02,583.26 307.77,574.26 "/>
<polygon class="st0" points="281.14,642.34 311.31,607.52 271.75,600.77 "/>
<polygon class="st0" points="281.14,642.34 264.94,647.7 280.1,647.7 "/>
<polygon class="st0" points="271.75,690.5 280.1,647.7 264.94,647.7 231.08,658.88 "/>
<polygon class="st0" points="224.04,668.56 231.96,669.44 231.08,658.88 "/>
<polygon class="st0" points="224.04,686.17 231.96,669.44 210.84,681.77 "/>
<polygon class="st0" points="212.6,708.18 232.44,705.02 224.04,686.17 "/>
<polygon class="st0" points="212,755.63 228.83,742.47 224.37,730.86 "/>
<polygon class="st0" points="224.37,730.86 232.44,705.02 216.3,719.02 "/>
<polygon class="st0" points="205,741.63 224.37,730.86 216.3,719.02 "/>
<polygon class="st0" points="216.84,768.56 229.21,775.56 228.83,742.47 "/>
<polygon class="st0" points="214.98,791.7 213.39,791.7 213.07,793.86 "/>
<polygon class="st0" points="216.84,768.56 213.39,791.7 214.98,791.7 229.21,775.56 "/>
<polygon class="st0" points="223.2,791.7 237.45,791.7 229.21,775.56 "/>
<polygon class="st0" points="271.75,690.5 271.75,791.7 272.67,791.7 297.37,698.31 "/>
<polygon class="st0" points="325.92,723.42 274.36,791.7 278.35,791.7 343.91,757.32 "/>
<polygon class="st0" points="343.91,757.32 349.79,741.93 325.92,723.42 "/>
<polygon class="st0" points="343.91,757.32 384.04,791.7 395.73,791.7 378.91,714.94 "/>
<polygon class="st0" points="325.92,723.42 349.79,741.93 338.05,698.31 "/>
<polygon class="st0" points="409.5,791.7 428.41,791.7 432.88,765.68 "/>
<path class="st0" d="M449.5,511.05l2.54-78.87c-0.46,1.92-12.21,48.88-12.21,48.88L449.5,511.05z"/>
<polygon class="st0" points="362.7,440.53 378.52,426.43 364.86,426.43 "/>
<polygon class="st0" points="398.43,443.12 452.04,432.18 444.7,349.44 "/>
<polygon class="st0" points="452.04,432.18 477.14,425.24 444.7,349.44 "/>
<polygon class="st0" points="449.5,511.05 461.49,503.79 452.04,432.18 "/>
<path class="st0" d="M468.9,528.71l1.49-18.71c-4.25-3.07-8.21-5.87-8.9-6.21L468.9,528.71z"/>
<polygon class="st0" points="396.65,543.15 415.87,554.11 402.31,528.15 "/>
<polygon class="st0" points="396.65,543.15 402.31,528.15 385.04,512.67 "/>
<polygon class="st0" points="359.21,552.24 385.56,555.87 385.04,512.67 "/>
<polygon class="st0" points="383.21,569.57 398.43,574.26 385.56,555.87 "/>
<polygon class="st0" points="395.73,587.18 398.43,574.26 385.56,580.13 "/>
<polygon class="st0" points="370.31,580.13 385.56,580.13 362.7,568.78 "/>
<polygon class="st0" points="362.7,568.78 385.56,555.87 354.63,558.43 "/>
<polygon class="st0" points="393.97,605.49 395.73,587.18 378.91,591.87 "/>
<polygon class="st0" points="366.79,600.77 378.91,591.87 370.31,580.13 "/>
<polygon class="st0" points="367.82,614.57 380.57,603.61 378.91,591.87 "/>
<polygon class="st0" points="367.82,614.57 378.91,591.87 366.79,600.77 "/>
<polygon class="st0" points="366.79,600.77 370.31,580.13 346.02,583.26 "/>
<polygon class="st0" points="346.02,583.26 362.7,568.78 354.63,558.43 "/>
<polygon class="st0" points="325.92,723.42 325.92,700.26 297.37,698.31 "/>
<polygon class="st0" points="325.92,700.26 343.91,658 297.37,698.31 "/>
<polygon class="st0" points="367.82,614.57 349.58,647.7 369.44,647.7 "/>
<polygon class="st0" points="370.5,669.35 369.44,647.7 349.58,647.7 343.91,658 "/>
<polygon class="st0" points="338.05,698.31 370.5,669.35 343.91,658 "/>
<polygon class="st0" points="464.39,687.16 466.62,679.1 443.1,695.43 "/>
<polygon class="st0" points="444.62,614.57 444,647.7 455.91,647.7 "/>
<polygon class="st0" points="466.62,679.1 455.91,647.7 444,647.7 443.1,695.43 "/>
<polygon class="st0" points="432.88,765.68 443.1,695.43 415.87,701.43 "/>
<polygon class="st0" points="458.63,757.32 470.76,791.7 475.12,791.7 475.12,772.72 "/>
<polygon class="st0" points="475.12,791.7 493.93,791.7 475.12,772.72 "/>
<polygon class="st0" points="504.81,791.7 519.3,791.7 520.68,762.28 "/>
<polygon class="st0" points="434.48,243.92 519.26,204.13 469.55,153.51 "/>
<polygon class="st0" points="519.26,204.13 540.13,188.14 540.13,177.08 "/>
<polygon class="st0" points="540.13,177.08 540.13,188.14 613.3,132.06 613.3,128.55 557.98,153.95 "/>
<polygon class="st0" points="519.26,204.13 540.13,177.08 540.13,167.36 "/>
<polygon class="st0" points="559.74,132.82 540.13,167.36 540.13,177.08 557.98,153.95 "/>
<polygon class="st0" points="557.98,153.95 585.26,121.37 559.74,132.82 "/>
<polygon class="st0" points="469.55,153.51 519.26,204.13 540.13,167.36 540.13,137.31 "/>
<polygon class="st0" points="540.13,137.31 540.13,167.36 559.74,132.82 "/>
<polygon class="st0" points="547.86,224.76 591.05,212.02 613.3,187.56 613.3,184.47 547.46,224.37 "/>
<line class="st0" x1="547.46" y1="224.37" x2="545.97" y2="225.28"/>
<polygon class="st0" points="519.26,204.13 540.13,198.5 540.13,188.14 "/>
<polygon class="st0" points="540.13,198.5 580.29,187.67 613.3,139.85 613.3,132.06 540.13,188.14 "/>
<line class="st0" x1="545.91" y1="225.33" x2="545.85" y2="225.35"/>
<line class="st0" x1="545.97" y1="225.28" x2="545.91" y2="225.33"/>
<polygon class="st0" points="414.03,386.05 444.7,349.44 403.8,364.51 "/>
<polygon class="st0" points="454.59,145.58 469.55,153.51 466.03,138.54 "/>
<polygon class="st0" points="421.15,180.8 398.27,208.09 469.55,153.51 436.99,161.43 "/>
<polygon class="st0" points="434.48,243.92 469.55,153.51 398.27,208.09 "/>
<polygon class="st0" points="519.26,204.13 479.14,283.45 540.13,230.36 540.13,220.78 "/>
<polygon class="st0" points="545.85,225.35 540.13,220.78 540.13,230.36 545.84,225.39 "/>
<polygon class="st0" points="527.36,291.96 540.13,331.24 540.13,299.07 "/>
<path class="st0" d="M593.42,328.71l-53.29-29.64v32.17l3.31,10.18C543.97,340.39,593.42,328.71,593.42,328.71z"/>
<polygon class="st0" points="527.36,291.96 479.14,283.45 540.13,338.44 540.13,331.24 "/>
<polygon class="st0" points="540.13,331.24 540.13,338.44 543.44,341.43 "/>
<path class="st0" d="M479.14,283.45l50.66,112.06c0.21-0.78,6.36-25.63,10.33-41.38v-15.69L479.14,283.45z"/>
<path class="st0" d="M540.13,338.44v15.69c1.8-7.12,3.15-12.38,3.31-12.7L540.13,338.44z"/>
<polygon class="st0" points="477.14,425.24 479.14,283.45 444.7,349.44 "/>
<polygon class="st0" points="444.7,349.44 479.14,283.45 465.15,240.7 "/>
<polygon class="st0" points="479.14,283.45 519.26,204.13 465.15,240.7 "/>
<polygon class="st0" points="465.15,240.7 519.26,204.13 434.48,243.92 "/>
<polygon class="st0" points="444.7,349.44 465.15,240.7 434.48,243.92 "/>
<polygon class="st0" points="386.45,310.74 410.23,326.54 444.7,349.44 434.48,243.92 "/>
<polygon class="st0" points="372.07,275.22 434.48,243.92 389.47,231.87 "/>
<polygon class="st0" points="386.45,310.74 434.48,243.92 372.07,275.22 "/>
<polygon class="st0" points="386.59,358.05 410.23,326.54 386.45,310.74 "/>
<line class="st0" x1="395.29" y1="358.25" x2="395.29" y2="358.25"/>
<polygon class="st0" points="403.8,364.51 444.7,349.44 410.23,326.54 "/>
<polygon class="st0" points="403.8,364.51 410.23,326.54 395.29,358.25 "/>
<polygon class="st0" points="395.29,358.25 410.23,326.54 386.59,358.05 "/>
<polygon class="st0" points="344.59,248.59 372.07,275.22 357.79,237.15 "/>
<polygon class="st0" points="357.79,237.15 359.55,220.42 355.15,223.06 "/>
<polygon class="st0" points="302.36,311.1 327.14,312.7 315.56,303.18 "/>
<polygon class="st0" points="315.56,281.17 340.19,292.51 333.15,266.2 "/>
<polygon class="st0" points="327.14,312.7 340.19,292.51 315.56,281.17 "/>
<polygon class="st0" points="340.19,292.51 372.07,275.22 333.15,266.2 "/>
<polygon class="st0" points="327.14,312.7 372.07,275.22 340.19,292.51 "/>
<polygon class="st0" points="321.21,346.89 327.14,312.7 302.36,324.31 "/>
<polygon class="st0" points="321.21,346.89 372.07,275.22 327.14,312.7 "/>
<polygon class="st0" points="307.77,378.92 321.21,346.89 302.36,324.31 "/>
<polygon class="st0" points="321.21,346.89 386.45,310.74 372.07,275.22 "/>
<polygon class="st0" points="307.77,378.92 386.45,310.74 321.21,346.89 "/>
<polygon class="st0" points="256.6,422.04 307.77,378.92 291.8,371.86 "/>
<polygon class="st0" points="362.7,440.53 364.86,426.43 359.47,414.15 "/>
<polygon class="st0" points="372.07,397.35 386.45,310.74 307.77,378.92 "/>
<polygon class="st0" points="372.07,397.35 386.59,358.05 386.45,310.74 "/>
<polygon class="st0" points="399.5,383.35 403.8,364.51 395.29,358.25 "/>
<polygon class="st0" points="399.5,383.35 414.03,386.05 403.8,364.51 "/>
<polygon class="st0" points="398.43,443.12 444.7,349.44 414.03,386.05 "/>
<polygon class="st0" points="393.04,383.9 399.5,383.35 395.29,358.25 "/>
<polygon class="st0" points="393.04,383.9 395.29,358.25 387.67,374.74 "/>
<polygon class="st0" points="387.67,374.74 395.29,358.25 386.59,358.05 "/>
<polygon class="st0" points="381.21,385.51 387.67,374.74 386.59,358.05 "/>
<polygon class="st0" points="381.21,385.51 386.59,358.05 372.07,397.35 "/>
<polygon class="st0" points="386.05,402.2 387.67,374.74 381.21,385.51 "/>
<polygon class="st0" points="372.07,397.35 386.05,402.2 381.21,385.51 "/>
<polygon class="st0" points="386.05,402.2 393.04,383.9 387.67,374.74 "/>
<polygon class="st0" points="386.05,402.2 399.5,383.35 393.04,383.9 "/>
<polygon class="st0" points="398.43,443.12 399.5,383.35 378.52,426.43 "/>
<polygon class="st0" points="398.43,443.12 414.03,386.05 399.5,383.35 "/>
<polygon class="st0" points="378.52,426.43 399.5,383.35 386.05,402.2 "/>
<polygon class="st0" points="378.52,426.43 386.05,402.2 372.07,397.35 "/>
<polygon class="st0" points="364.86,426.43 378.52,426.43 372.07,397.35 "/>
<polygon class="st0" points="387.72,469.6 452.04,432.18 398.43,443.12 "/>
<polygon class="st0" points="362.7,440.53 398.43,443.12 378.52,426.43 "/>
<polygon class="st0" points="329.34,472.3 346.02,482.79 327.19,453.99 "/>
<polygon class="st0" points="359.47,414.15 372.07,397.35 307.77,378.92 "/>
<polygon class="st0" points="327.19,453.99 333.11,450.22 324.77,430.03 "/>
<polygon class="st0" points="262.89,481.18 265.86,475.53 245.16,454.62 "/>
<polygon class="st0" points="245.16,454.62 265.86,475.53 256.6,422.04 "/>
<polygon class="st0" points="387.72,469.6 398.43,443.12 362.7,440.53 "/>
<polygon class="st0" points="376.69,467.44 387.72,469.6 362.7,440.53 "/>
<path class="st0" d="M343.6,465.03"/>
<path class="st0" d="M346.02,482.79"/>
<polygon class="st0" points="321.53,495.44 323.16,485.75 305.94,476.87 "/>
<polygon class="st0" points="323.16,485.75 339.57,489.79 329.34,472.3 "/>
<polygon class="st0" points="323.16,485.75 329.34,472.3 316.97,467.44 "/>
<polygon class="st0" points="307.82,465.02 323.16,485.75 316.97,467.44 "/>
<polygon class="st0" points="300.56,441.88 307.82,465.02 316.97,467.44 302.98,446.72 "/>
<polygon class="st0" points="271.77,484.14 300.56,441.88 265.86,475.53 "/>
<polygon class="st0" points="262.89,481.18 271.77,484.14 265.86,475.53 "/>
<polygon class="st0" points="244.28,480.15 262.89,481.18 236.36,451.98 "/>
<polygon class="st0" points="217,590.2 262.89,554.3 217,575.24 "/>
<polygon class="st0" points="225.8,567.31 262.89,554.3 228.44,557.04 "/>
<polygon class="st0" points="217,575.24 262.89,554.3 225.8,567.31 "/>
<polygon class="st0" points="241.25,531.6 254.94,526.13 208.2,529.45 "/>
<polygon class="st0" points="217,536.5 244.77,541.39 241.25,531.6 "/>
<polygon class="st0" points="228.44,557.04 244.77,541.39 209.96,545.3 "/>
<polygon class="st0" points="254.94,526.13 258.85,517.91 221.4,524.17 "/>
<polygon class="st0" points="248.68,498.14 302.44,497.33 244.28,480.15 "/>
<polygon class="st0" points="214.36,504.8 248.68,498.14 233.72,488.07 "/>
<polygon class="st0" points="333.11,450.22 362.7,440.53 324.77,430.03 "/>
<polygon class="st0" points="343.6,465.02 362.7,440.53 333.11,450.22 "/>
<polygon class="st0" points="300.56,441.88 327.19,453.99 324.77,430.03 "/>
<polygon class="st0" points="302.98,446.72 316.97,467.44 327.19,453.99 300.56,441.88 "/>
<polygon class="st0" points="351.4,511.05 354.1,496.25 346.29,497.33 "/>
<polygon class="st0" points="351.4,524.52 355.43,537.7 359.21,552.24 354.1,496.25 "/>
<polygon class="st0" points="316.16,506.75 327.46,515.9 322.89,503.79 "/>
<polygon class="st0" points="310.51,508.36 327.46,515.9 316.16,506.75 "/>
<polygon class="st0" points="316.16,506.75 322.89,503.79 308.89,491.14 "/>
<polygon class="st0" points="310.51,508.36 316.16,506.75 308.89,491.14 "/>
<polygon class="st0" points="302.44,497.33 310.51,508.36 308.89,491.14 "/>
<polygon class="st0" points="302.44,497.33 311.31,518.33 310.51,508.36 "/>
<polygon class="st0" points="248.68,498.14 311.31,518.33 302.44,497.33 "/>
<polygon class="st0" points="340.92,526.13 355.43,537.7 351.4,524.52 "/>
<polygon class="st0" points="349.79,547.93 355.43,537.7 340.92,526.13 "/>
<polygon class="st0" points="349.79,547.93 359.21,552.24 355.43,537.7 "/>
<polygon class="st0" points="311.31,518.33 349.79,547.93 340.92,526.13 "/>
<polygon class="st0" points="316.7,536.63 349.79,547.93 311.31,518.33 "/>
<polygon class="st0" points="316.7,536.63 354.63,558.43 349.79,547.93 "/>
<polygon class="st0" points="295.61,545.3 354.63,558.43 316.7,536.63 "/>
<polygon class="st0" points="295.61,545.3 311.31,518.33 258.85,517.91 "/>
<polygon class="st0" points="295.61,545.3 316.7,536.63 311.31,518.33 "/>
<polygon class="st0" points="271.75,600.77 311.31,607.52 307.77,574.26 "/>
<polygon class="st0" points="354.63,558.43 359.21,552.24 349.79,547.93 "/>
<polygon class="st0" points="228.44,557.04 262.89,554.3 244.77,541.39 "/>
<polygon class="st0" points="262.89,554.3 295.61,545.3 244.77,541.39 "/>
<polygon class="st0" points="209.08,600.77 262.89,554.3 217,590.2 "/>
<polygon class="st0" points="209.08,600.77 271.75,600.77 262.89,554.3 "/>
<polygon class="st0" points="262.89,554.3 354.63,558.43 295.61,545.3 "/>
<polygon class="st0" points="307.77,574.26 354.63,558.43 262.89,554.3 "/>
<polygon class="st0" points="234.6,510.08 258.85,517.91 248.68,498.14 "/>
<polygon class="st0" points="221.4,518.89 234.6,510.08 224.04,509.2 "/>
<polygon class="st0" points="210.84,628.94 271.75,600.77 211.72,605.17 "/>
<polygon class="st0" points="346.02,583.26 354.63,558.43 307.77,574.26 "/>
<polygon class="st0" points="346.02,583.26 370.31,580.13 362.7,568.78 "/>
<polygon class="st0" points="367.82,614.57 393.97,605.49 380.57,603.61 "/>
<polygon class="st0" points="385.56,555.87 396.65,543.15 385.04,512.67 "/>
<polygon class="st0" points="378.91,591.87 395.73,587.18 385.56,580.13 "/>
<polygon class="st0" points="354.63,558.43 385.56,555.87 359.21,552.24 "/>
<polygon class="st0" points="383.21,569.57 385.56,555.87 362.7,568.78 "/>
<polygon class="st0" points="311.31,607.52 366.79,600.77 346.02,583.26 "/>
<polygon class="st0" points="311.31,607.52 367.82,614.57 366.79,600.77 "/>
<polygon class="st0" points="281.14,642.34 210.84,628.94 223.52,647.7 264.94,647.7 "/>
<polygon class="st0" points="264.94,647.7 223.52,647.7 231.08,658.88 "/>
<polygon class="st0" points="210.84,628.94 212.6,646.55 213.57,647.7 218.23,647.7 "/>
<polygon class="st0" points="218.23,647.7 213.57,647.7 222.28,658 "/>
<path class="st0" d="M525.57,555.87"/>
<polygon class="st0" points="398.43,574.26 400.03,561.74 385.56,555.87 "/>
<polygon class="st0" points="378.91,591.87 385.56,580.13 370.31,580.13 "/>
<polygon class="st0" points="362.7,568.78 385.56,580.13 383.21,569.57 "/>
<polygon class="st0" points="378.91,714.94 389.86,654.48 370.5,669.35 "/>
<polygon class="st0" points="365.81,713.37 370.5,669.35 338.05,698.31 "/>
<polygon class="st0" points="378.91,639.22 367.82,614.57 369.44,647.7 376.54,647.7 "/>
<polygon class="st0" points="376.54,647.7 369.44,647.7 370.5,669.35 "/>
<polygon class="st0" points="378.91,639.22 393.97,605.49 367.82,614.57 "/>
<polygon class="st0" points="393.97,605.49 378.91,639.22 384.99,647.7 390.43,647.7 "/>
<polygon class="st0" points="390.43,647.7 384.99,647.7 389.86,654.48 "/>
<polygon class="st0" points="338.05,698.31 343.91,658 325.92,700.26 "/>
<polygon class="st0" points="351.4,524.52 354.1,496.25 351.4,511.05 "/>
<polygon class="st0" points="475.12,772.72 493.93,791.7 502.54,791.7 509.4,760.42 "/>
<path class="st0" d="M423.89,581.69"/>
<polygon class="st0" points="411.57,620.83 393.97,605.49 390.43,647.7 394.23,647.7 "/>
<polygon class="st0" points="394.23,647.7 390.43,647.7 389.86,654.48 "/>
<polygon class="st0" points="423.89,634.13 411.57,620.83 394.23,647.7 401.2,647.7 "/>
<polygon class="st0" points="401.2,647.7 394.23,647.7 389.86,654.48 "/>
<polygon class="st0" points="423.89,634.13 444.62,614.57 411.57,620.83 "/>
<polygon class="st0" points="411.57,620.83 444.62,614.57 415.87,598.91 "/>
<polygon class="st0" points="411.57,620.83 415.87,598.91 393.97,605.49 "/>
<polygon class="st0" points="393.97,605.49 401.2,593.04 395.73,587.18 "/>
<polygon class="st0" points="393.97,605.49 415.87,598.91 401.2,593.04 "/>
<polygon class="st0" points="415.87,598.91 417.24,590.2 401.2,593.04 "/>
<polygon class="st0" points="401.2,593.04 417.24,590.2 395.73,587.18 "/>
<polygon class="st0" points="385.56,580.13 398.43,574.26 383.21,569.57 "/>
<polygon class="st0" points="395.73,587.18 417.24,590.2 398.43,574.26 "/>
<polygon class="st0" points="417.24,590.2 418.02,573.09 398.43,574.26 "/>
<polygon class="st0" points="400.03,561.74 418.02,573.09 415.87,554.11 "/>
<polygon class="st0" points="398.43,574.26 418.02,573.09 400.03,561.74 "/>
<polygon class="st0" points="380.57,603.61 393.97,605.49 378.91,591.87 "/>
<path class="st0" d="M418.02,573.09"/>
<polygon class="st0" points="359.21,552.24 385.04,512.67 354.1,496.25 "/>
<path class="st0" d="M400.03,561.74"/>
<path class="st0" d="M470.39,510c5.48,3.95,11.44,8.33,11.44,8.33l-4.69-93.09L470.39,510z"/>
<path class="st0" d="M518.72,455.5c0,0,7.99-42.01,11.07-59.98l-23.98,78.24L518.72,455.5z"/>
<polygon class="st0" points="569.44,522.28 569.44,491.94 558.48,528.15 "/>
<polygon class="st0" points="481.83,518.33 507.29,503.79 505.82,473.76 "/>
<polygon class="st0" points="468.79,530.06 469.32,530.11 468.82,529.64 "/>
<polygon class="st0" points="477.14,425.24 529.8,395.51 479.14,283.45 "/>
<polygon class="st0" points="385.04,512.67 455.56,529 408.22,501.93 "/>
<path class="st0" d="M439.83,481.07c0,0,11.76-46.96,12.21-48.88l-43.82,69.75L439.83,481.07z"/>
<polygon class="st0" points="408.22,501.93 452.04,432.18 391.49,487.91 "/>
<polygon class="st0" points="391.49,487.91 452.04,432.18 387.72,469.6 "/>
<polygon class="st0" points="385.04,512.67 408.22,501.93 391.49,487.91 "/>
<polygon class="st0" points="408.22,501.93 455.56,529 449.5,511.05 "/>
<polygon class="st0" points="408.22,501.93 449.5,511.05 439.83,481.07 "/>
<polygon class="st0" points="321.53,495.44 340.11,498.14 323.16,485.75 "/>
<polygon class="st0" points="323.16,485.75 340.11,498.14 339.57,489.79 "/>
<polygon class="st0" points="339.57,489.79 346.02,482.79 329.34,472.3 "/>
<polygon class="st0" points="354.1,496.25 362.7,440.53 343.6,465.02 "/>
<polygon class="st0" points="402.31,528.15 417.96,529.6 418.02,529 385.04,512.67 "/>
<polygon class="st0" points="425.51,553.18 467.75,543.15 418.02,529 "/>
<polygon class="st0" points="417.96,529.6 415.87,554.11 425.51,553.18 418.02,529 "/>
<polygon class="st0" points="449.5,511.05 468.82,529.64 468.9,528.71 468.9,528.71 461.49,503.79 "/>
<polygon class="st0" points="455.56,529 468.79,530.06 468.82,529.64 449.5,511.05 "/>
<polygon class="st0" points="418.02,529 455.56,529 385.04,512.67 "/>
<polygon class="st0" points="385.04,512.67 391.49,487.91 380.57,503.79 "/>
<polygon class="st0" points="354.1,496.25 385.04,512.67 380.57,503.79 "/>
<polygon class="st0" points="380.57,503.79 384.23,487.91 354.1,496.25 "/>
<polygon class="st0" points="380.57,503.79 391.49,487.91 384.23,487.91 "/>
<polygon class="st0" points="354.1,496.25 384.23,487.91 376.69,467.44 "/>
<polygon class="st0" points="354.1,496.25 376.69,467.44 362.7,440.53 "/>
<polygon class="st0" points="384.23,487.91 391.49,487.91 376.69,467.44 "/>
<polygon class="st0" points="376.69,467.44 391.49,487.91 387.72,469.6 "/>
<path class="st0" d="M470.39,510l6.75-84.76l-15.65,78.55C462.18,504.12,466.14,506.92,470.39,510z"/>
<polygon class="st0" points="461.49,503.79 477.14,425.24 452.04,432.18 "/>
<polygon class="st0" points="346.02,482.79 354.1,496.25 343.6,465.02 "/>
<polygon class="st0" points="339.57,489.79 354.1,496.25 346.02,482.79 "/>
<polygon class="st0" points="346.29,497.33 354.1,496.25 339.57,489.79 "/>
<polygon class="st0" points="340.11,498.14 346.29,497.33 339.57,489.79 "/>
<polygon class="st0" points="340.11,498.14 351.4,511.05 346.29,497.33 "/>
<polygon class="st0" points="351.4,524.52 351.4,511.05 340.92,526.13 "/>
<polygon class="st0" points="340.92,526.13 351.4,511.05 327.46,515.9 "/>
<polygon class="st0" points="327.46,515.9 351.4,511.05 334.99,505.4 "/>
<polygon class="st0" points="334.99,505.4 351.4,511.05 340.11,498.14 "/>
<polygon class="st0" points="334.99,505.4 340.11,498.14 321.53,495.44 "/>
<polygon class="st0" points="322.89,503.79 334.99,505.4 321.53,495.44 "/>
<polygon class="st0" points="327.46,515.9 334.99,505.4 322.89,503.79 "/>
<path class="st0" d="M467.75,543.15"/>
<path class="st0" d="M385.56,555.87"/>
<polygon class="st0" points="613.3,229.99 613.3,221.28 604.94,222.12 "/>
<polygon class="st0" points="613.3,200.06 613.3,187.56 591.05,212.02 "/>
<polygon class="st0" points="604.94,222.12 613.3,209.65 613.3,200.06 591.05,212.02 "/>
<polygon class="st0" points="567.24,243.92 591.05,212.02 547.86,224.76 "/>
<polygon class="st0" points="567.24,243.92 604.94,222.12 591.05,212.02 "/>
<polygon class="st0" points="567.24,243.92 613.3,262.41 613.3,229.99 604.94,222.12 "/>
<polygon class="st0" points="613.3,221.28 613.3,217.38 604.94,222.12 "/>
<polygon class="st0" points="613.3,535 613.3,507.25 589.9,553.18 "/>
<polygon class="st0" points="479.14,283.45 527.36,291.96 540.13,245.96 540.13,230.36 "/>
<polygon class="st0" points="540.13,230.36 540.13,245.96 545.84,225.39 "/>
<polygon class="st0" points="527.36,291.96 540.13,276.58 540.13,245.96 "/>
<polygon class="st0" points="547.86,224.76 545.91,225.33 545.84,225.39 540.13,245.96 540.13,276.58 567.24,243.92 "/>
<polygon class="st0" points="593.42,328.71 613.3,318.19 613.3,262.41 567.24,243.92 "/>
<polygon class="st0" points="527.36,291.96 540.13,299.07 540.13,276.58 "/>
<polygon class="st0" points="567.24,243.92 540.13,276.58 540.13,299.07 593.42,328.71 "/>
<polygon class="st0" points="423.89,581.69 448.46,593.23 445.33,574.26 "/>
<polygon class="st0" points="445.33,574.26 486.85,571.91 474.53,565.06 "/>
<polygon class="st0" points="447.41,562.72 474.53,565.06 467.75,543.15 "/>
<path class="st0" d="M534.17,596.56c0.12,0.6,2.6,3.34,5.96,6.83v-31.74L534.17,596.56z"/>
<path class="st0" d="M559.59,622.78l-14.14-73.33l-5.32,22.21v31.74C547.65,611.2,559.59,622.78,559.59,622.78z"/>
<path class="st0" d="M525.57,555.87c0,0,8.21,38.74,8.6,40.69l5.96-24.9v-20.49L525.57,555.87z"/>
<polygon class="st0" points="540.13,551.17 540.13,571.66 545.45,549.45 "/>
<polygon class="st0" points="545.45,549.45 559.59,622.78 558.48,554.63 "/>
<path class="st0" d="M534.17,596.56l-30.89,42.66l36.86-10.76V603.4C536.77,599.9,534.29,597.17,534.17,596.56z"/>
<path class="st0" d="M540.13,603.4v25.07l19.46-5.68C559.59,622.78,547.65,611.2,540.13,603.4z"/>
<polygon class="st0" points="486.85,571.91 525.57,555.87 467.75,543.15 "/>
<polygon class="st0" points="467.75,543.15 525.57,555.87 514.69,540.54 "/>
<polygon class="st0" points="514.69,540.54 525.57,555.87 540.13,551.17 540.13,547.91 "/>
<polygon class="st0" points="540.13,547.91 540.13,551.17 545.45,549.45 "/>
<polygon class="st0" points="481.83,518.33 514.69,540.54 507.29,503.79 "/>
<polygon class="st0" points="469.32,530.11 514.69,540.54 481.83,518.33 "/>
<polygon class="st0" points="467.75,543.15 514.69,540.54 469.32,530.11 "/>
<polygon class="st0" points="507.29,503.79 514.69,540.54 540.13,547.91 540.13,543.09 "/>
<polygon class="st0" points="540.13,543.09 540.13,547.91 545.45,549.45 "/>
<polygon class="st0" points="518.72,455.5 507.29,503.79 540.13,515.54 540.13,506.83 "/>
<polygon class="st0" points="540.13,506.83 540.13,515.54 544.4,517.07 "/>
<polygon class="st0" points="507.29,503.79 540.13,543.09 540.13,515.54 "/>
<polygon class="st0" points="544.4,517.07 540.13,515.54 540.13,543.09 545.45,549.45 "/>
<polygon class="st0" points="545.45,549.45 558.48,528.15 544.4,517.07 "/>
<polygon class="st0" points="529.8,395.51 540.13,481.52 540.13,443.29 "/>
<polygon class="st0" points="558.48,528.15 540.13,443.29 540.13,481.52 544.4,517.07 "/>
<polygon class="st0" points="529.8,395.51 518.72,455.5 540.13,506.83 540.13,481.52 "/>
<polygon class="st0" points="540.13,481.52 540.13,506.83 544.4,517.07 "/>
<polygon class="st0" points="481.83,518.33 505.82,473.76 477.14,425.24 "/>
<polygon class="st0" points="505.82,473.76 529.8,395.51 477.14,425.24 "/>
<path class="st0" d="M468.9,528.71L468.9,528.71l0.41,1.4l12.51-11.78c0,0-5.96-4.38-11.44-8.33L468.9,528.71z"/>
<polygon class="st0" points="558.48,554.63 558.48,528.15 545.45,549.45 "/>
<polygon class="st0" points="529.8,395.51 540.13,443.29 540.13,420.65 "/>
<polygon class="st0" points="569.44,491.94 540.13,420.65 540.13,443.29 558.48,528.15 "/>
<polygon class="st0" points="529.8,395.51 540.13,420.65 540.13,406.34 "/>
<polygon class="st0" points="583.54,451.84 540.13,406.34 540.13,420.65 569.44,491.94 "/>
<polygon class="st0" points="569.44,491.94 598.7,480.59 583.54,451.84 "/>
<polygon class="st0" points="613.3,447.94 613.3,438.03 583.54,451.84 "/>
<polygon class="st0" points="598.7,480.59 613.3,469.95 613.3,447.94 583.54,451.84 "/>
<polygon class="st0" points="613.3,504.21 613.3,469.95 598.7,480.59 "/>
<polygon class="st0" points="613.3,438.03 613.3,395.92 583.54,451.84 "/>
<polygon class="st0" points="583.54,451.84 613.3,395.92 613.3,378 593.42,328.71 "/>
<polygon class="st0" points="529.8,395.51 540.13,406.34 540.13,384.67 "/>
<polygon class="st0" points="593.42,328.71 540.13,384.67 540.13,406.34 583.54,451.84 "/>
<path class="st0" d="M529.8,395.51l10.33-10.85v-30.53C536.15,369.88,530,394.74,529.8,395.51z"/>
<path class="st0" d="M543.44,341.43c-0.16,0.32-1.51,5.58-3.31,12.7v30.53l53.29-55.95C593.42,328.71,543.97,340.39,543.44,341.43z"
	/>
<polygon class="st0" points="613.3,378 613.3,328.89 593.42,328.71 "/>
<polygon class="st0" points="613.3,328.89 613.3,318.19 593.42,328.71 "/>
<polygon class="st0" points="210.84,628.94 211.72,605.17 209.08,612.22 "/>
<polygon class="st0" points="520.68,762.28 519.3,791.7 535.53,791.7 540.13,788.32 540.13,761.17 "/>
<polygon class="st0" points="540.13,761.17 540.13,788.32 580.25,758.89 "/>
<polygon class="st0" points="546.71,791.7 559.19,791.7 565.52,783.41 "/>
<polygon class="st0" points="559.19,791.7 570.5,791.7 565.52,783.41 "/>
<polygon class="st0" points="535.53,791.7 540.13,791.7 540.13,788.32 "/>
<polygon class="st0" points="580.25,758.89 540.13,788.32 540.13,791.7 546.71,791.7 565.52,783.41 "/>
<polygon class="st0" points="565.52,783.41 583.62,791.7 606.23,791.7 580.25,758.89 "/>
<polygon class="st0" points="570.5,791.7 583.62,791.7 565.52,783.41 "/>
<polygon class="st0" points="428.41,791.7 442.95,791.7 432.88,765.68 "/>
<polygon class="st0" points="432.88,765.68 458.63,757.32 443.1,695.43 "/>
<polygon class="st0" points="365.81,713.37 378.91,714.94 370.5,669.35 "/>
<polygon class="st0" points="378.91,639.22 376.54,647.7 384.99,647.7 "/>
<polygon class="st0" points="389.86,654.48 384.99,647.7 376.54,647.7 370.5,669.35 "/>
<polygon class="st0" points="378.91,714.94 395.73,791.7 400.52,791.7 415.87,701.43 "/>
<polygon class="st0" points="415.87,701.43 400.52,791.7 409.5,791.7 432.88,765.68 "/>
<polygon class="st0" points="444.62,614.57 423.89,634.13 424.41,647.7 431.58,647.7 "/>
<polygon class="st0" points="431.58,647.7 424.41,647.7 425.06,664.26 "/>
<polygon class="st0" points="423.89,634.13 401.2,647.7 424.41,647.7 "/>
<polygon class="st0" points="425.06,664.26 424.41,647.7 401.2,647.7 389.86,654.48 "/>
<polygon class="st0" points="278.35,791.7 343.91,791.7 343.91,757.32 "/>
<polygon class="st0" points="349.79,741.93 378.91,714.94 365.81,713.37 "/>
<polygon class="st0" points="343.91,757.32 378.91,714.94 349.79,741.93 "/>
<polygon class="st0" points="444.62,614.57 434.79,647.7 444,647.7 "/>
<polygon class="st0" points="415.87,701.43 443.1,695.43 444,647.7 434.79,647.7 432.78,654.48 "/>
<polygon class="st0" points="444.62,614.57 431.58,647.7 434.79,647.7 "/>
<polygon class="st0" points="432.78,654.48 434.79,647.7 431.58,647.7 425.06,664.26 "/>
<polygon class="st0" points="415.87,701.43 432.78,654.48 425.06,664.26 "/>
<polygon class="st0" points="415.87,701.43 425.06,664.26 389.86,654.48 "/>
<polygon class="st0" points="378.91,714.94 415.87,701.43 389.86,654.48 "/>
<polygon class="st0" points="512.6,698.36 515.01,659.17 502.97,675.9 "/>
<polygon class="st0" points="502.97,675.9 515.01,659.17 494.68,656.83 "/>
<polygon class="st0" points="466.62,679.1 502.97,675.9 494.68,656.83 "/>
<polygon class="st0" points="444.62,614.57 455.91,647.7 483.86,647.7 "/>
<polygon class="st0" points="494.68,656.83 483.86,647.7 455.91,647.7 466.62,679.1 "/>
<polygon class="st0" points="423.89,581.69 425.51,553.18 418.02,573.09 "/>
<polygon class="st0" points="417.24,590.2 423.89,581.69 418.02,573.09 "/>
<polygon class="st0" points="415.87,598.91 444.62,614.57 417.24,590.2 "/>
<polygon class="st0" points="444.62,614.57 486.85,571.91 448.46,593.23 "/>
<polygon class="st0" points="486.85,571.91 444.62,614.57 483.86,647.7 493.83,647.7 "/>
<polygon class="st0" points="493.83,647.7 483.86,647.7 494.68,656.83 "/>
<polygon class="st0" points="503.27,639.22 525.57,555.87 486.85,571.91 "/>
<polygon class="st0" points="503.27,639.22 486.85,571.91 493.83,647.7 499.13,647.7 "/>
<polygon class="st0" points="499.13,647.7 493.83,647.7 494.68,656.83 "/>
<polygon class="st0" points="503.27,639.22 499.13,647.7 508.26,647.7 "/>
<polygon class="st0" points="515.01,659.17 508.26,647.7 499.13,647.7 494.68,656.83 "/>
<polygon class="st0" points="503.27,639.22 508.26,647.7 529.07,647.7 540.13,638.67 540.13,628.46 "/>
<polygon class="st0" points="540.13,628.46 540.13,638.67 559.59,622.78 "/>
<polygon class="st0" points="529.07,647.7 508.26,647.7 515.01,659.17 "/>
<path class="st0" d="M503.27,639.22l30.89-42.66c-0.39-1.95-8.6-40.69-8.6-40.69L503.27,639.22z"/>
<polygon class="st0" points="343.91,791.7 384.04,791.7 343.91,757.32 "/>
<polygon class="st0" points="281.14,642.34 367.82,614.57 311.31,607.52 "/>
<polygon class="st0" points="329.44,640.78 367.82,614.57 281.14,642.34 "/>
<polygon class="st0" points="367.82,614.57 329.44,640.78 335.25,647.7 349.58,647.7 "/>
<polygon class="st0" points="349.58,647.7 335.25,647.7 343.91,658 "/>
<polygon class="st0" points="329.44,640.78 281.14,642.34 302.6,647.7 335.25,647.7 "/>
<polygon class="st0" points="335.25,647.7 302.6,647.7 343.91,658 "/>
<polygon class="st0" points="281.14,642.34 282.69,647.7 302.6,647.7 "/>
<polygon class="st0" points="343.91,658 302.6,647.7 282.69,647.7 297.37,698.31 "/>
<polygon class="st0" points="281.14,642.34 280.1,647.7 282.69,647.7 "/>
<polygon class="st0" points="297.37,698.31 282.69,647.7 280.1,647.7 271.75,690.5 "/>
<polygon class="st0" points="231.96,669.44 271.75,690.5 231.08,658.88 "/>
<polygon class="st0" points="237.45,791.7 264.25,791.7 229.21,775.56 "/>
<polygon class="st0" points="603.21,647.7 613.3,647.7 613.3,637.79 598.7,626.3 "/>
<polygon class="st0" points="603.21,647.7 609.97,679.84 613.3,676.88 613.3,647.7 "/>
<polygon class="st0" points="613.3,637.79 613.3,628.45 598.7,626.3 "/>
<polygon class="st0" points="613.3,628.45 613.3,624.2 598.7,626.3 "/>
<polygon class="st0" points="582.49,647.7 583.21,647.7 582.67,647.05 "/>
<polygon class="st0" points="609.97,679.84 583.21,647.7 582.49,647.7 574.85,674.82 "/>
<polygon class="st0" points="592.41,718.98 609.97,679.84 568.59,693.22 "/>
<polygon class="st0" points="568.59,693.22 609.97,679.84 574.85,674.82 "/>
<polygon class="st0" points="529.94,727.72 540.13,734.04 540.13,726.29 "/>
<polygon class="st0" points="580.38,758.45 592.41,718.98 540.13,726.29 540.13,734.04 580.25,758.89 "/>
<polygon class="st0" points="529.94,727.72 540.13,726.29 540.13,718.62 "/>
<polygon class="st0" points="568.59,693.22 540.13,718.62 540.13,726.29 592.41,718.98 "/>
<polygon class="st0" points="529.94,727.72 520.68,762.28 540.13,761.17 540.13,734.04 "/>
<polygon class="st0" points="540.13,734.04 540.13,761.17 580.25,758.89 "/>
<polygon class="st0" points="509.4,760.42 502.54,791.7 504.81,791.7 520.68,762.28 "/>
<polygon class="st0" points="509.4,760.42 520.68,762.28 514.34,727.79 "/>
<polygon class="st0" points="520.68,762.28 529.94,727.72 514.34,727.79 "/>
<polygon class="st0" points="512.6,698.36 529.94,727.72 540.13,710.7 540.13,685.46 "/>
<polygon class="st0" points="540.13,685.46 540.13,710.7 561.16,675.61 "/>
<polygon class="st0" points="529.94,727.72 540.13,718.62 540.13,710.7 "/>
<polygon class="st0" points="561.16,675.61 540.13,710.7 540.13,718.62 568.59,693.22 "/>
<polygon class="st0" points="568.59,693.22 574.85,674.82 561.16,675.61 "/>
<polygon class="st0" points="562.92,647.7 564.28,647.7 563.11,644.7 "/>
<polygon class="st0" points="574.85,674.82 564.28,647.7 562.92,647.7 561.16,675.61 "/>
<polygon class="st0" points="563.11,644.7 564.28,647.7 571.54,647.7 570.93,642.74 "/>
<polygon class="st0" points="571.54,647.7 564.28,647.7 574.85,674.82 "/>
<polygon class="st0" points="570.93,642.74 571.54,647.7 582.49,647.7 582.67,647.05 "/>
<polygon class="st0" points="582.49,647.7 571.54,647.7 574.85,674.82 "/>
<polygon class="st0" points="546.69,640.78 549.56,647.7 562.92,647.7 563.11,644.7 "/>
<polygon class="st0" points="562.92,647.7 549.56,647.7 561.16,675.61 "/>
<polygon class="st0" points="582.67,647.05 583.21,647.7 603.21,647.7 598.7,626.3 "/>
<polygon class="st0" points="603.21,647.7 583.21,647.7 609.97,679.84 "/>
<polygon class="st0" points="534.77,647.7 540.13,647.7 540.13,644.59 "/>
<polygon class="st0" points="540.13,644.59 540.13,647.7 549.56,647.7 546.69,640.78 "/>
<polygon class="st0" points="534.77,647.7 515.01,659.17 540.13,668.12 540.13,647.7 "/>
<polygon class="st0" points="549.56,647.7 540.13,647.7 540.13,668.12 561.16,675.61 "/>
<polygon class="st0" points="515.01,659.17 512.6,698.36 540.13,685.46 540.13,668.12 "/>
<polygon class="st0" points="540.13,668.12 540.13,685.46 561.16,675.61 "/>
<polygon class="st0" points="514.34,727.79 529.94,727.72 512.6,698.36 "/>
<polygon class="st0" points="559.59,622.78 584.62,618.87 558.48,554.63 "/>
<polygon class="st0" points="563.11,644.7 584.62,618.87 559.59,622.78 "/>
<polygon class="st0" points="546.69,640.78 563.11,644.7 559.59,622.78 "/>
<polygon class="st0" points="529.07,647.7 534.77,647.7 540.13,644.59 540.13,638.67 "/>
<polygon class="st0" points="559.59,622.78 540.13,638.67 540.13,644.59 546.69,640.78 "/>
<polygon class="st0" points="534.77,647.7 529.07,647.7 515.01,659.17 "/>
<polygon class="st0" points="580.51,512.67 598.7,480.59 569.44,491.94 "/>
<polygon class="st0" points="569.44,522.28 580.51,512.67 569.44,491.94 "/>
<polygon class="st0" points="580.51,512.67 613.3,505.76 613.3,504.21 598.7,480.59 "/>
<polygon class="st0" points="589.9,553.18 613.3,507.25 613.3,505.76 580.51,512.67 "/>
<polygon class="st0" points="569.44,522.28 589.9,553.18 580.51,512.67 "/>
<polygon class="st0" points="558.48,554.63 589.9,553.18 569.44,522.28 "/>
<polygon class="st0" points="584.62,618.87 589.9,553.18 558.48,554.63 "/>
<polygon class="st0" points="584.62,618.87 613.3,591.86 613.3,563.01 589.9,553.18 "/>
<polygon class="st0" points="598.7,626.3 613.3,604.11 613.3,591.86 584.62,618.87 "/>
<polygon class="st0" points="570.93,642.74 598.7,626.3 584.62,618.87 "/>
<polygon class="st0" points="582.67,647.05 598.7,626.3 570.93,642.74 "/>
<polygon class="st0" points="570.93,642.74 584.62,618.87 563.11,644.7 "/>
<polygon class="st0" points="613.3,624.2 613.3,604.11 598.7,626.3 "/>
<polygon class="st0" points="613.3,563.01 613.3,535 589.9,553.18 "/>
<polygon class="st0" points="297.37,698.31 272.67,791.7 274.36,791.7 325.92,723.42 "/>
<polygon class="st0" points="325.92,723.42 338.05,698.31 325.92,700.26 "/>
<polygon class="st0" points="349.79,741.93 365.81,713.37 338.05,698.31 "/>
<polygon class="st0" points="432.88,765.68 442.95,791.7 458.63,791.7 458.63,757.32 "/>
<polygon class="st0" points="458.63,791.7 470.76,791.7 458.63,757.32 "/>
<polygon class="st0" points="415.87,554.11 417.96,529.6 402.31,528.15 "/>
<polygon class="st0" points="445.33,574.26 447.41,562.72 425.51,553.18 "/>
<polygon class="st0" points="423.89,581.69 445.33,574.26 425.51,553.18 "/>
<polygon class="st0" points="445.33,574.26 474.53,565.06 447.41,562.72 "/>
<polygon class="st0" points="417.24,590.2 448.46,593.23 423.89,581.69 "/>
<polygon class="st0" points="444.62,614.57 448.46,593.23 417.24,590.2 "/>
<polygon class="st0" points="448.46,593.23 486.85,571.91 445.33,574.26 "/>
<polygon class="st0" points="474.53,565.06 486.85,571.91 467.75,543.15 "/>
<polygon class="st0" points="418.02,573.09 425.51,553.18 415.87,554.11 "/>
<polygon class="st0" points="447.41,562.72 467.75,543.15 425.51,553.18 "/>
<path class="st0" d="M418.02,528.99"/>
<polygon class="st0" points="467.75,543.15 468.79,530.06 455.56,529 "/>
<polygon class="st0" points="418.02,529 467.75,543.15 455.56,529 "/>
<polygon class="st0" points="385.56,555.87 400.03,561.74 396.65,543.15 "/>
<polygon class="st0" points="400.03,561.74 415.87,554.11 396.65,543.15 "/>
<path class="st0" d="M232.44,705.02l39.32-14.52l-39.79-21.06C233.23,671.89,232.44,705.02,232.44,705.02z"/>
<path class="st0" d="M224.04,686.17l8.39,18.85c0,0,0.79-33.13-0.48-35.58L224.04,686.17z"/>
<polygon class="st0" points="228.83,742.47 232.44,705.02 224.37,730.86 "/>
<polygon class="st0" points="228.83,742.47 271.75,690.5 232.44,705.02 "/>
<polygon class="st0" points="229.21,775.56 271.75,690.5 228.83,742.47 "/>
<polygon class="st0" points="229.21,775.56 264.25,791.7 271.75,791.7 271.75,690.5 "/>
<polygon class="st0" points="558.48,554.63 569.44,522.28 558.48,528.15 "/>
<polygon class="st0" points="507.29,503.79 518.72,455.5 505.82,473.76 "/>
<polygon class="st0" points="327.19,453.99 343.6,465.02 333.11,450.22 "/>
<polygon class="st0" points="221.4,524.17 258.85,517.91 234.6,510.08 "/>
<polygon class="st0" points="244.77,541.39 295.61,545.3 254.94,526.13 "/>
<path class="st0" d="M580.38,758.45c1.98-2.76,21.48-16.12,32.92-23.82v-8.38l-20.89-7.27L580.38,758.45z"/>
<polygon class="st0" points="592.41,718.98 613.3,705.92 613.3,684.8 609.97,679.84 "/>
<polygon class="st0" points="613.3,679.46 613.3,676.88 609.97,679.84 "/>
<path class="st0" d="M606.23,791.7h7.06v-30.4c-13.38-0.5-32.24-1.39-33.05-2.41L606.23,791.7z"/>
<path class="st0" d="M580.38,758.45l-0.13,0.44c0.8,1.02,19.67,1.91,33.05,2.41v-26.67C601.87,742.33,582.36,755.69,580.38,758.45z"
	/>
<path class="st0" d="M580.25,758.89l0.13-0.44C580.23,758.66,580.19,758.81,580.25,758.89z"/>
<polygon class="st0" points="613.3,726.25 613.3,705.92 592.41,718.98 "/>
<polygon class="st0" points="613.3,684.8 613.3,679.46 609.97,679.84 "/>
<polygon class="st0" points="498.84,744.12 505.57,738.47 498.17,738.93 "/>
<polygon class="st0" points="505.16,746.54 505.57,738.47 501.66,746.01 "/>
<polygon class="st0" points="505.83,727.79 506.64,713.77 498.17,724.88 "/>
<polygon class="st0" points="498.17,724.88 506.64,713.77 494.94,720.7 "/>
<polygon class="st0" points="506.64,713.77 506.64,703.41 497.49,700.92 "/>
<polygon class="st0" points="482.02,718.69 484.72,708.99 475.17,716.67 "/>
<polygon class="st0" points="469.92,713.08 475.17,716.67 479.2,707.65 465.22,709.4 "/>
<polygon class="st0" points="465.22,709.4 475.43,705.5 461.71,704.56 "/>
<polygon class="st0" points="460.37,694.1 471.4,694.1 464.39,687.16 "/>
<polygon class="st0" points="475.57,686.66 476.65,681.51 464.39,687.16 "/>
<polygon class="st0" points="490.77,685.85 491.47,681.21 483.24,684.33 "/>
<polygon class="st0" points="496.15,688.41 501.21,686.9 491.47,681.21 "/>
<polygon class="st0" points="498.17,691.9 504.63,695.43 501.21,686.9 "/>
<polygon class="st0" points="498.17,691.9 501.21,686.9 496.15,688.41 "/>
<polygon class="st0" points="498.17,695.95 506.64,703.41 504.63,695.43 "/>
<polygon class="st0" points="497.49,700.92 506.64,703.41 498.17,695.95 "/>
<polygon class="st0" points="486.38,700.29 494.67,705.5 490.51,699.17 "/>
<polygon class="st0" points="484.72,708.99 489.56,708.59 486.38,700.29 "/>
<polygon class="st0" points="479.2,707.65 480.23,698.87 475.43,705.5 "/>
<polygon class="st0" points="473.15,702.54 480.23,698.87 478.41,695.64 "/>
<path class="st0" d="M471,698.36l7.42-2.72l-7.01-1.54C471.4,694.4,471,698.36,471,698.36z"/>
<path class="st0" d="M471.4,694.1l7.81-1.94l-6.34-2.54C472.88,689.62,471.4,693.79,471.4,694.1z"/>
<polygon class="st0" points="472.88,689.62 480.03,690.29 475.57,686.66 "/>
<polygon class="st0" points="480.03,690.29 483.24,684.33 475.57,686.66 "/>
<polygon class="st0" points="485.58,687.56 490.77,685.85 483.24,684.33 "/>
<polygon class="st0" points="492.23,689.28 496.15,688.41 490.77,685.85 "/>
<polygon class="st0" points="493.54,692.16 498.17,691.9 496.15,688.41 "/>
<polygon class="st0" points="497.49,700.92 498.17,695.95 492.54,696.22 "/>
<polygon class="st0" points="490.51,699.17 497.49,700.92 492.54,696.22 "/>
<polygon class="st0" points="482.96,700.29 486.38,700.29 484.58,697.02 "/>
<polygon class="st0" points="480.23,698.87 484.58,697.02 478.41,695.64 "/>
<polygon class="st0" points="478.41,695.64 483.24,695.23 479.22,692.16 "/>
<polygon class="st0" points="479.22,692.16 483.24,693.27 480.03,690.29 "/>
<polygon class="st0" points="480.03,690.29 483.24,693.27 481.74,688.88 "/>
<polygon class="st0" points="484.74,692.16 485.58,687.56 481.74,688.88 "/>
<polygon class="st0" points="487.21,692.16 489,687.86 485.58,687.56 "/>
<polygon class="st0" points="488.32,693.62 493.54,692.16 492.23,689.28 "/>
<polygon class="st0" points="492.54,696.22 493.54,692.16 488.32,693.62 "/>
<polygon class="st0" points="490.51,699.17 492.54,696.22 488.23,695.99 "/>
<polygon class="st0" points="486.66,697.2 490.51,699.17 488.23,695.99 "/>
<polygon class="st0" points="486.66,697.2 488.23,695.99 485.88,694.73 "/>
<polygon class="st0" points="484.58,697.02 485.88,694.73 483.24,695.23 "/>
<polygon class="st0" points="483.24,693.27 485.88,694.73 484.74,692.16 "/>
<polygon class="st0" points="485.88,694.73 488.32,693.62 487.21,692.16 "/>
<polygon class="st0" points="479.2,707.65 484.72,708.99 482.96,700.29 "/>
<polygon class="st0" points="479.2,707.65 482.96,700.29 480.23,698.87 "/>
<polygon class="st0" points="482.96,700.29 484.58,697.02 480.23,698.87 "/>
<polygon class="st0" points="478.41,695.64 484.58,697.02 483.24,695.23 "/>
<polygon class="st0" points="483.24,695.23 483.24,693.27 479.22,692.16 "/>
<polygon class="st0" points="483.24,693.27 484.74,692.16 481.74,688.88 "/>
<polygon class="st0" points="484.74,692.16 487.21,692.16 485.58,687.56 "/>
<polygon class="st0" points="472.88,689.62 475.57,686.66 464.39,687.16 "/>
<polygon class="st0" points="478.41,695.64 479.22,692.16 471.4,694.1 "/>
<polygon class="st0" points="479.22,692.16 480.03,690.29 472.88,689.62 "/>
<polygon class="st0" points="481.74,688.88 485.58,687.56 483.24,684.33 "/>
<polygon class="st0" points="487.21,692.16 492.23,689.28 489,687.86 "/>
<polygon class="st0" points="488.32,693.62 492.23,689.28 487.21,692.16 "/>
<polygon class="st0" points="481.74,688.88 483.24,684.33 480.03,690.29 "/>
<polygon class="st0" points="490.51,718.98 494.94,720.7 494.67,705.5 "/>
<polygon class="st0" points="490.77,685.85 496.15,688.41 491.47,681.21 "/>
<polygon class="st0" points="494.67,705.5 497.49,700.92 490.51,699.17 "/>
<polygon class="st0" points="489.56,708.59 494.67,705.5 486.38,700.29 "/>
<polygon class="st0" points="489,687.86 490.77,685.85 485.58,687.56 "/>
<polygon class="st0" points="489,687.86 492.23,689.28 490.77,685.85 "/>
<polygon class="st0" points="493.54,692.16 496.15,688.41 492.23,689.28 "/>
<polygon class="st0" points="486.38,700.29 490.51,699.17 486.66,697.2 "/>
<polygon class="st0" points="488.23,695.99 492.54,696.22 488.32,693.62 "/>
<polygon class="st0" points="498.17,695.95 498.17,691.9 493.54,692.16 "/>
<polygon class="st0" points="492.54,696.22 498.17,695.95 493.54,692.16 "/>
<polygon class="st0" points="484.72,708.99 486.38,700.29 482.96,700.29 "/>
<polygon class="st0" points="486.38,700.29 486.66,697.2 484.58,697.02 "/>
<polygon class="st0" points="494.94,720.7 506.64,713.77 494.67,705.5 "/>
<polygon class="st0" points="494.67,705.5 506.64,713.77 497.49,700.92 "/>
<polygon class="st0" points="490.51,718.98 494.67,705.5 489.56,708.59 "/>
<polygon class="st0" points="498.17,695.95 504.63,695.43 498.17,691.9 "/>
<polygon class="st0" points="475.57,686.66 483.24,684.33 476.65,681.51 "/>
<polygon class="st0" points="483.24,684.33 491.47,681.21 476.65,681.51 "/>
<polygon class="st0" points="477.18,751.99 487.28,750.92 482.43,748.37 "/>
<polygon class="st0" points="475.12,747.96 482.43,748.37 475.12,740.56 "/>
<polygon class="st0" points="477.18,751.99 482.43,748.37 475.12,747.96 "/>
<polygon class="st0" points="475.12,740.56 484.58,746.08 476.78,735.85 "/>
<polygon class="st0" points="492.12,742.44 492.52,738.93 484.58,746.08 "/>
<polygon class="st0" points="491.17,748.77 492.12,742.44 484.58,746.08 "/>
<polygon class="st0" points="492.12,742.44 498.17,738.93 492.52,738.93 "/>
<polygon class="st0" points="476.78,735.85 492.52,738.93 473.69,730.55 "/>
<polygon class="st0" points="473.69,730.55 482.02,718.69 465.22,725.89 "/>
<polygon class="st0" points="465.22,725.89 475.17,716.67 458.63,718.35 "/>
<polygon class="st0" points="455.53,711.49 461.71,704.56 454.86,702.47 "/>
<polygon class="st0" points="454.86,702.47 459.83,699.31 455.8,697.35 "/>
<polygon class="st0" points="459.83,699.31 460.37,694.1 455.8,697.35 "/>
<polygon class="st0" points="459.83,699.31 471,698.36 460.37,694.1 "/>
<path class="st0" d="M471,698.36c0,0,0.4-3.95,0.4-4.26h-11.03L471,698.36z"/>
<path class="st0" d="M471.4,694.1c0-0.31,1.48-4.48,1.48-4.48l-8.49-2.46L471.4,694.1z"/>
<polygon class="st0" points="482.43,748.37 487.28,750.92 485.25,748.77 "/>
<polygon class="st0" points="505.57,738.47 505.83,727.79 498.84,730.12 "/>
<polygon class="st0" points="498.17,738.93 498.84,730.12 497.2,735.51 "/>
<polygon class="st0" points="497.2,735.51 498.84,730.12 498.17,724.88 "/>
<polygon class="st0" points="497.2,735.51 498.17,724.88 494.94,720.7 "/>
<polygon class="st0" points="498.84,730.12 505.83,727.79 498.17,724.88 "/>
<polygon class="st0" points="493.73,746.21 502.27,758.89 501.66,746.01 "/>
<polygon class="st0" points="502.27,758.89 505.16,746.54 501.66,746.01 "/>
<polygon class="st0" points="491.17,748.77 502.27,758.89 493.73,746.21 "/>
<polygon class="st0" points="487.28,750.92 491.17,748.77 485.25,748.77 "/>
<polygon class="st0" points="487.28,750.92 502.27,758.89 491.17,748.77 "/>
<polygon class="st0" points="477.18,751.99 502.27,758.89 487.28,750.92 "/>
<polygon class="st0" points="485.25,748.77 491.17,748.77 484.58,746.08 "/>
<polygon class="st0" points="482.43,748.37 485.25,748.77 484.58,746.08 "/>
<polygon class="st0" points="482.43,748.37 484.58,746.08 475.12,740.56 "/>
<polygon class="st0" points="491.17,748.77 493.73,746.21 492.12,742.44 "/>
<polygon class="st0" points="493.73,746.21 498.84,744.12 492.12,742.44 "/>
<polygon class="st0" points="492.12,742.44 498.84,744.12 498.17,738.93 "/>
<polygon class="st0" points="493.73,746.21 501.66,746.01 498.84,744.12 "/>
<polygon class="st0" points="501.66,746.01 505.57,738.47 498.84,744.12 "/>
<polygon class="st0" points="484.58,746.08 492.52,738.93 476.78,735.85 "/>
<polygon class="st0" points="492.52,738.93 498.17,738.93 497.2,735.51 "/>
<polygon class="st0" points="492.52,738.93 497.2,735.51 490.51,718.98 "/>
<polygon class="st0" points="473.69,730.55 492.52,738.93 482.02,718.69 "/>
<polygon class="st0" points="465.22,725.89 482.02,718.69 475.17,716.67 "/>
<polygon class="st0" points="465.22,709.4 458.63,718.35 475.17,716.67 469.92,713.08 "/>
<polygon class="st0" points="458.63,718.35 465.22,709.4 455.53,711.49 "/>
<polygon class="st0" points="455.53,711.49 465.22,709.4 461.71,704.56 "/>
<polygon class="st0" points="482.02,718.69 490.51,718.98 489.56,708.59 "/>
<polygon class="st0" points="482.02,718.69 489.56,708.59 484.72,708.99 "/>
<polygon class="st0" points="475.17,716.67 484.72,708.99 479.2,707.65 "/>
<polygon class="st0" points="465.22,709.4 479.2,707.65 475.43,705.5 "/>
<polygon class="st0" points="461.71,704.56 475.43,705.5 473.15,702.54 "/>
<polygon class="st0" points="461.71,704.56 473.15,702.54 459.83,699.31 "/>
<polygon class="st0" points="459.83,699.31 473.15,702.54 471,698.36 "/>
<polygon class="st0" points="475.43,705.5 480.23,698.87 473.15,702.54 "/>
<polygon class="st0" points="473.15,702.54 478.41,695.64 471,698.36 "/>
<polygon class="st0" points="454.86,702.47 461.71,704.56 459.83,699.31 "/>
<polygon class="st0" points="490.51,718.98 497.2,735.51 494.94,720.7 "/>
<polygon class="st0" points="482.02,718.69 492.52,738.93 490.51,718.98 "/>
<polygon class="st0" points="498.17,738.93 505.57,738.47 498.84,730.12 "/>
<polygon class="st0" points="485.88,694.73 487.21,692.16 484.74,692.16 "/>
<polygon class="st0" points="488.23,695.99 488.32,693.62 485.88,694.73 "/>
<polygon class="st0" points="484.58,697.02 486.66,697.2 485.88,694.73 "/>
<path class="st0" d="M487.21,698.03"/>
<path class="st0" d="M480.03,690.29"/>
<polygon class="st0" points="483.24,695.23 485.88,694.73 483.24,693.27 "/>
<path class="st0" d="M455.53,711.49"/>
<polygon class="st0" points="475.12,747.96 475.12,740.56 458.63,718.35 "/>
<polygon class="st0" points="475.12,740.56 476.78,735.85 473.69,730.55 "/>
<polygon class="st0" points="458.63,718.35 475.12,740.56 465.22,725.89 "/>
<polygon class="st0" points="465.22,725.89 475.12,740.56 473.69,730.55 "/>
<polygon class="st0" points="460.37,694.1 464.39,687.16 455.8,697.35 "/>
<polygon class="st0" points="455.8,697.35 464.39,687.16 443.1,695.43 "/>
<polygon class="st0" points="506.64,703.41 514.34,727.79 512.6,698.36 "/>
<polygon class="st0" points="502.27,758.89 509.4,760.42 505.16,746.54 "/>
<polygon class="st0" points="505.16,746.54 509.4,760.42 505.57,738.47 "/>
<polygon class="st0" points="509.4,760.42 514.34,727.79 505.57,738.47 "/>
<polygon class="st0" points="475.12,772.72 477.18,751.99 458.63,757.32 "/>
<polygon class="st0" points="458.63,718.35 458.63,757.32 477.18,751.99 475.12,747.96 "/>
<polygon class="st0" points="458.63,757.32 458.63,718.35 443.1,695.43 "/>
<polygon class="st0" points="454.86,702.47 455.8,697.35 443.1,695.43 "/>
<polygon class="st0" points="443.1,695.43 458.63,718.35 455.53,711.49 "/>
<polygon class="st0" points="443.1,695.43 455.53,711.49 454.86,702.47 "/>
<polygon class="st0" points="464.39,687.16 476.65,681.51 466.62,679.1 "/>
<polygon class="st0" points="501.21,686.9 502.97,675.9 491.47,681.21 "/>
<polygon class="st0" points="506.64,703.41 512.6,698.36 504.63,695.43 "/>
<polygon class="st0" points="501.21,686.9 504.63,695.43 502.97,675.9 "/>
<polygon class="st0" points="504.63,695.43 512.6,698.36 502.97,675.9 "/>
<polygon class="st0" points="505.57,738.47 514.34,727.79 505.83,727.79 "/>
<polygon class="st0" points="506.64,713.77 514.34,727.79 506.64,703.41 "/>
<polygon class="st0" points="505.83,727.79 514.34,727.79 506.64,713.77 "/>
<polygon class="st0" points="475.12,772.72 502.27,758.89 477.18,751.99 "/>
<polygon class="st0" points="475.12,772.72 509.4,760.42 502.27,758.89 "/>
<polygon class="st0" points="476.65,681.51 491.47,681.21 466.62,679.1 "/>
<polygon class="st0" points="491.47,681.21 502.97,675.9 466.62,679.1 "/>
<polygon class="st0" points="464.39,687.16 466.62,679.1 443.1,695.43 "/>
<rect x="0.15" y="-0.3" class="st0" width="612" height="792"/>
</svg>
